<svg xmlns="http://www.w3.org/2000/svg" viewBox="0 0 786.9 486"><g opacity=".15" fill="#3A6392"><path d="M663 319.6c-15.3 0-27.7 12.4-27.7 27.7 0 15.3 12.4 27.7 27.7 27.7 15.3 0 27.7-12.4 27.7-27.7 0-15.3-12.4-27.7-27.7-27.7zm0 52.8c-13.9 0-25.1-11.3-25.1-25.1 0-13.9 11.3-25.1 25.1-25.1s25.1 11.3 25.1 25.1c0 13.9-11.3 25.1-25.1 25.1z"/><path d="M663 324.9c-12.4 0-22.4 10.1-22.4 22.4 0 12.4 10.1 22.4 22.4 22.4 12.4 0 22.4-10.1 22.4-22.4 0-12.4-10-22.4-22.4-22.4zm0 42.2c-10.9 0-19.8-8.9-19.8-19.8s8.9-19.8 19.8-19.8 19.8 8.9 19.8 19.8-8.9 19.8-19.8 19.8z"/><path d="M661 335.7h1c.1 0 .1-.1.1-.1V333l2 2.6.1.1h.9c.1 0 .1-.1.1-.1V331c0-.1-.1-.1-.1-.1h-1c-.1 0-.1.1-.1.1v2.4l-1.9-2.5-.1-.1h-1c-.1 0-.1.1-.1.1v4.6c0 .2.1.2.1.2zM652.8 344.9l-.1-.1h-1.1c-.1 0-.1 0-.1.1l-.8 2.7-.9-2.7c0-.1-.1-.1-.1-.1h-.9c-.1 0-.1 0-.1.1l-.9 2.7-.8-2.6c0-.1-.1-.1-.1-.1h-1.1s-.1 0-.1.1v.1l1.6 4.6c0 .1.1.1.1.1h.9c.1 0 .1 0 .1-.1l.9-2.7.9 2.7c0 .1.1.1.1.1h.9c.1 0 .1 0 .1-.1l1.6-4.6c0-.1 0-.1-.1-.2zM679.9 348.6h-2.4v-.7h2c.1 0 .1-.1.1-.1v-.9c0-.1-.1-.1-.1-.1h-2v-.8h2.3c.1 0 .1-.1.1-.1v-.9c0-.1-.1-.1-.1-.1h-3.5c-.1 0-.1.1-.1.1v4.6c0 .1.1.1.1.1h3.5c.1 0 .1-.1.1-.1v-.9c.1-.1 0-.1 0-.1zM662.9 361.5c-.8-.2-.9-.3-.9-.5s.2-.3.5-.3.7.1 1.1.4h.1s.1 0 .1-.1l.5-.8v-.2c-.5-.4-1.1-.6-1.8-.6-1 0-1.7.6-1.7 1.5 0 1 .7 1.3 1.6 1.5.8.2.8.3.8.5 0 .3-.4.3-.5.3-.4 0-.9-.2-1.3-.5h-.2l-.6.7v.2c.6.5 1.3.8 2 .8 1.1 0 1.8-.6 1.8-1.6.1-.7-.6-1.1-1.5-1.3zM673.4 334l-13.9 9c-.2.1-.3.2-.4.4-.1.1-.3.3-.4.5l-7 15.1c-.2.5-.1 1.1.3 1.5.2.2.5.3.9.3.2 0 .5-.1.7-.2l13.9-9c.2-.1.3-.3.4-.4l.4-.4 7-15.1c.2-.5.1-1.1-.3-1.5-.5-.5-1.1-.6-1.6-.2zm-7.4 15.5l-10 6.5 5-10.9 10-6.5-5 10.9z"/><circle cx="663.5" cy="347.3" r="1.7"/><path d="M652.6 339c.2.2.5.3.7.3.3 0 .5-.1.7-.3.4-.4.4-1.1 0-1.5l-1.6-1.6c-.4-.4-1.1-.4-1.5 0-.4.4-.4 1.1 0 1.5l1.7 1.6zM672.2 355.7c-.4-.4-1.1-.4-1.5 0-.4.4-.4 1.1 0 1.5l1.6 1.6c.2.2.5.3.7.3.3 0 .5-.1.7-.3.4-.4.4-1.1 0-1.5l-1.5-1.6z"/></g><path opacity=".15" fill="#E9B530" d="M532.9 351c-.2-2.2-1.9-4.5-4.5-6.3-2.7-1.8-3.6-4.7-3.9-7.1 0-.3-.1-.6-.1-1v-.8h.6c.4 0 .8-.4.8-.8s-.4-.8-.8-.8h-.6v-1c0-.4-.4-.8-.8-.8s-.8.4-.8.8v1h-.7c-.4 0-.8.4-.8.8s.4.8.8.8h.7v.8c0 3.7-2 6.2-5.1 8.8l-5.9-13.7c1.6-.4 2.8-1.8 2.8-3.6 0-1.7-1.2-3.2-2.8-3.6v-4.1h1.1c.4 0 .8-.4.8-.8s-.4-.8-.8-.8h-1.1v-1.5c0-.4-.4-.8-.8-.8s-.8.4-.8.8v1.5H509c-.4 0-.8.4-.8.8s.4.8.8.8h1.2v4.1c-1.7.3-2.9 1.8-2.9 3.6 0 1.6 1 2.9 2.4 3.4l-6.6 14.5c-.1.2-.1.4 0 .6 0 .1-.1.2-.1.3v1.4c-2.3-1.8-4.5-4.5-5.1-10.9v-1.3h1.1c.4 0 .8-.4.8-.8s-.4-.8-.8-.8h-1.1V333c0-.4-.4-.8-.8-.8s-.8.4-.8.8v1.5h-1.2c-.4 0-.8.4-.8.8s.4.8.8.8h1.2v1.4c0 6.1-3.5 9.1-6.6 11.7-2.4 2-4.7 4-4.7 7 0 2.3.7 4.2 2 5.5l.1.1v15.3c0 .4.4.8.8.8h42.5c.4 0 .8-.4.8-.8v-21.9c.1 0 .2-.1.2-.2 1.2-1.1 1.7-2.5 1.5-4zm-3.3 10.4h-.5v-2.6c0-1.2-1-2.2-2.2-2.2h-.3c-1.2 0-2.2 1-2.2 2.2v2.6h-1v-2.6c0-1.2-1-2.2-2.2-2.2h-.3c-1.2 0-2.2 1-2.2 2.2v2.6h-.6v-6h11.4v6zm-3.5-.3v-2.2c0-.3.3-.6.6-.6h.3c.3 0 .6.3.6.6v2.2h-1.5zm-5.6 0v-2.2c0-.3.3-.6.6-.6h.3c.3 0 .6.3.6.6v2.2h-1.5zm-10.1 15.3v-13.3c0-.7.5-1.2 1.2-1.2h.4c.7 0 1.2.5 1.2 1.2v13.3h-2.8zm1.6-16.1h-.4c-1.5 0-2.8 1.3-2.8 2.8v13.3h-1.6v-14.5l.1-.1c1.6-1.6 2.3-3.5 2-5.6-.4-3.6-2.4-5.1-4.6-6.6v-1.7h12V376.5h-1.8v-13.3c-.1-1.6-1.3-2.9-2.9-2.9zm-18.1.5l10.8-9.2c1.1.8 2 1.6 2.5 2.8l-7.3 6.3h-6zm13.7-4.7v.3c.2 1.6-.3 3.1-1.6 4.3v.1h-3.8l5.4-4.7zm3.9-21.2l4.9 11.3h-4.9v-11.3zm-1.6 11.4h-5.1l5.1-11.2v11.2zm-1-18.1c0-1.1.9-2.1 2.1-2.1 1.1 0 2.1.9 2.1 2.1 0 1.1-.9 2.1-2.1 2.1-1.1 0-2.1-.9-2.1-2.1zm-18.2 22.3c2.4-2 5.1-4.3 6.4-8.2.5 1.6 1.1 2.9 1.8 4-.1 0-.3.1-.4.2l-12 10.5v-.7c.1-2.3 1.9-3.9 4.2-5.8zm-3.7 8.3l12.7-11.1.2-.2c1 1.3 2.2 2.2 3.3 3V350.8l-11.4 9.8c-.1.1-.1.2-.2.2h-3.3v-.1c-.7-.5-1.1-1.1-1.3-1.9zm4.7 17.6v-7.5c0-.7.5-1.2 1.2-1.2h.4c.7 0 1.2.5 1.2 1.2v7.5h-2.8zm10.1 0H499v-7.5c0-.7.5-1.2 1.2-1.2h.4c.7 0 1.2.5 1.2 1.2v7.5zm1.6.1v-7.6c0-1.5-1.3-2.8-2.8-2.8h-.4c-1.5 0-2.8 1.3-2.8 2.8v7.6h-1.2v-7.6c0-1.5-1.3-2.8-2.8-2.8h-.4c-1.5 0-2.8 1.3-2.8 2.8v7.6h-1.4v-14.1h16.8v14.1h-2.2zm19.1-.1v-7.5c0-.7.5-1.2 1.2-1.2h.4c.7 0 1.2.5 1.2 1.2v7.5h-2.8zm4.5.1v-7.6c0-1.5-1.3-2.8-2.8-2.8h-.4c-1.5 0-2.8 1.3-2.8 2.8v7.6h-2.7V363h11.4v13.5H527zm3.6-22.7H518.3v-6.3c.1-.1.1-.3.1-.4.1 0 .2-.1.3-.2 2.2-1.9 4-3.7 5-6 .8 2.2 2.1 4 3.9 5.2 2.2 1.5 3.6 3.4 3.8 5.2 0 .8-.2 1.7-.8 2.5z"/><path opacity=".15" fill="#CE462A" d="M201.7 371.4h-1.8v-9.5l2.2-1.8c.4-.3.4-.8.1-1.2-.3-.4-.8-.4-1.2-.1l-1.1.9v-7.8l1.8 1.1 5-8.1-5.2-2.5-1.5 2.4V342v-.1-.1-.1-.1-.1-.1l-.1-.1-.1-.1h-.1l-.1-.1-2.3-1.3V336v-.2-1.5-.1h1.9c.5 0 .8-.4.8-.8 0-.5-.4-.8-.8-.8H197l1.7-1.7c.3-.3.3-.9 0-1.2s-.8-.3-1.2 0l-2 2v-2.8c0-.5-.4-.8-.8-.8-.5 0-.8.4-.8.8v2.8l-1.8-1.8c-.2-.2-.4-.3-.7-.2V325h.6v-4.2h-.7c.3-.4.6-1 .6-1.6 0-1.1-1.4-3.8-1.8-4.6l-.7-1.4-.7 1.4c-.4.8-1.8 3.5-1.8 4.6 0 .6.2 1.2.6 1.6h-1v4.2h.7v11.5c0 .2 0 .4.1.6-.2-.3-.6-.4-1-.2s-.6.7-.4 1.1l4.5 8.9c0 .1.1.1.1.2l-4.2 24.3v.1H185v5.1h-1.9v4.3c0 .5.4.8.8.8H196c.1 0 .2.1.3.1h6.2c.4 0 .7-.2.8-.5.1-.1.1-.2.1-.4v-4.3h-1.5v-5.2zm-12.5-54.7c.5 1.1.9 2.1.9 2.4 0 .5-.4.9-.9.9s-.9-.4-.9-.9c0-.4.4-1.4.9-2.4zm4.1 22.9l2.9 1.7-4.6 8.4 1.7-10.1zm-4.7-3.4V329l1-1v8.5c-.1.2-.3.3-.5.3-.3 0-.5-.2-.5-.5v-.1zm2.6-.1v-1.7H192.4c-.3.4-.4.9-.4 1.4v1l-.8-.5v-.1c.1.1.1 0 0-.1zm-.5 18.7l6.2-11.2-2.8 11c-.1.4.2.9.6 1h.2c.4 0 .7-.2.8-.6l2.7-10.3v6.5l-9.8 16.2 2.1-12.6zm7.6 16.1h-9.1l9.1-7.6v7.6zm-8.4-2.9l8.3-13.8v6.8l-8.3 7zm10.2-20.5l2-3 2.2 1-3.1 5.1-1.2-.7v-2.2c0-.1.1-.1.1-.2zm-6.4-9.6v-1.6-.3-.1c0-.5.4-1 1-1 .4 0 .8.3.9.7v3.3l-1.9-1zm.2-4.9c.1-.1.1-.1.1-.2.1.1.3.2.5.2s.4-.1.6-.2c0 .1.1.2.2.3.1.1.2.2.3.2V333.6c-.3-.1-.6-.2-1-.2-.5 0-1.1.2-1.5.5v-.1c0-.2-.1-.3-.1-.5.1 0 .2.1.3.1.2-.2.5-.3.6-.4zm-1.3-.1H191.2v-1.3l1.4 1.3zm-4.7-9.7v-.9h2.4v.9h-2.4zm1.7 1.6v.9l-1 1v-1.9h1zm-2.1 13c.4.5 1 .8 1.6.8.6 0 1.1-.2 1.5-.6l1.2.7-1 5.7-3.3-6.6zm-1 35.2H200v3.4h-13.6V373zm-1.7 5.1h16.7v1.9h-5.4c-.1 0-.2-.1-.3-.1h-11.3v-1.8h.3z"/><g opacity=".15" fill="#72BAA6"><path d="M350.8 353.9c-.4 0-.7.3-.7.7v30.1c0 .4.3.7.7.7.4 0 .7-.3.7-.7v-30.1c0-.4-.3-.7-.7-.7zM356.6 338.3H345v11.6h11.6v-11.6zm-1.3 3.5c-.5-.9-1.2-1.7-2.1-2.1h2.1v2.1zm-.7 2.3c0 2-1.7 3.7-3.7 3.7s-3.7-1.7-3.7-3.7 1.7-3.7 3.7-3.7 3.7 1.6 3.7 3.7zm-6.1-4.5c-.9.5-1.7 1.2-2.1 2.1v-2.1h2.1zm-2.1 6.8c.5.9 1.2 1.7 2.1 2.1h-2.1v-2.1zm6.8 2.1c.9-.5 1.7-1.2 2.1-2.1v2.1h-2.1z"/><path d="M351.5 343.9l.5-.5c.2-.2.2-.6 0-.8-.2-.2-.6-.2-.8 0l-.5.5-.1-.1c-.2-.2-.6-.2-.8 0-.2.2-.2.6 0 .8l.1.1-1.3 1.3c-.2.2-.2.6 0 .8.1.1.2.2.4.2.1 0 .3-.1.4-.2l1.3-1.3.9.9c.1.1.2.2.4.2.1 0 .3-.1.4-.2.2-.2.2-.6 0-.8l-.9-.9z"/><path d="M358.9 334.9v-4.7c0-.4-.3-.7-.7-.7s-.7.3-.7.7v1.2l-1.9-4.3v-11c0-.4-.3-.7-.7-.7-.4 0-.7.3-.7.7v1.5l-2.9-8.1c-.1-.3-.3-.4-.6-.4s-.5.2-.6.4l-2.8 8v-1.4c0-.4-.3-.7-.7-.7-.4 0-.7.3-.7.7V327l-2 4.6v-1.4c0-.4-.3-.7-.7-.7s-.7.3-.7.7V352c0 .4.3.7.7.7h.4v32c0 .4.3.7.7.7.4 0 .7-.3.7-.7v-32h11.1v32c0 .4.3.7.7.7.4 0 .7-.3.7-.7v-32h.4c.4 0 .7-.3.7-.7v-16.9-.2zm-1.4 16.6h-13.3v-16h13.3v16zm-10-29.5h6.8v4.3h-6.8V322zm3.4-10.2l3.1 8.9h-6.2l3.1-8.9zm-3.6 15.8h7.1l2.8 6.5h-12.7l2.8-6.5z"/><path d="M347.3 353.9c-.4 0-.7.3-.7.7v30.3c0 .4.3.7.7.7.4 0 .7-.3.7-.7v-30.3c0-.4-.3-.7-.7-.7zM354.5 353.9c-.4 0-.7.3-.7.7v30.3c0 .4.3.7.7.7s.7-.3.7-.7v-30.3c-.1-.4-.4-.7-.7-.7z"/></g><path opacity=".15" fill="#3A6392" d="M58.7 380.4h-.2c-.1-.2-.2-.4-.3-.5 0 0-4.3-3.2-8.5-11.7-.6-1.3-1.2-2.7-1.8-4.1h1.9v-4.2h-3.4c-1.7-5.2-2.8-10.7-3.5-16.1h2.8v-4.2h-3.3c-.6-6-.7-11.8-.6-16.8h1.4v-3.7h-3.6v-5.7c0-.5-.4-.9-.9-.9s-.9.4-.9.9v5.7h-4v3.7h1.6c.1 4.9 0 10.7-.6 16.8h-3.3v4.2h2.8c-.7 5.4-1.8 10.8-3.5 16.1h-3.2v4.2h1.7c-.6 1.4-1.2 2.8-1.8 4.1-.2.4-.4.9-.6 1.3-.1.1-.1.2-.1.3-3.9 7.4-7.6 10.1-7.7 10.2-.2.1-.3.3-.3.5-.4.1-.8.4-.8.9s.4.9.9.9h10.7c.5 0 .9-.4.9-.9 0-.1 0-.3-.1-.4 0-1.3.4-2.4.9-3.5.1-.1.2-.2.2-.3l.3-.6c1.6-2.4 4.3-4 7.3-4 3.1 0 5.9 1.7 7.4 4.2l.4.8.1.1c.5 1.1.8 2.4.8 3.7 0 .1 0 .3.1.4.1.3.5.6.8.6h10.1c.5 0 .9-.4.9-.9-.1-.7-.5-1.1-1-1.1zm-19.1-57.6l-1.1 1.7-1.3-1.7h2.4zm-8.9 48.1l-1.2.7-.5-.7h1.7zm-.5-1.8l1.7-1.3.6 1.3h-2.3zm3.5-1.2l-.5-1.1 1.6-1.3-1.1 2.4zm6-19.6l-.9-1.3 1.3-1.2c-.2.8-.3 1.6-.4 2.5zm-1.8-2.6l-1.4-2H40l-2.1 2zm-.3 2.3l1.2 1.7-1.7 1.3-1-1.5 1.5-1.5zm-2.2.1c.2-.9.3-1.8.4-2.7l1 1.4-1.4 1.3zm3.7 3.3c-.1.7-.3 1.4-.4 2l-.8-1.2 1.2-.8zm1.7 1.1l.3.5-.5.3c.1-.3.1-.6.2-.8zM38 355l-2.1 1.5-1.2-1.8 2.1-1.6L38 355zm-.1 1.9c-.2.6-.3 1.2-.5 1.8l-.7-1 1.2-.8zm-1.5 2.9h-2.7l1.8-1.3.9 1.3zm-2.1 4.2l-1.8 1.4-.6-1.4h2.4zm10.1 3.2l-.3 1L43 366l1.4 1.2zm-.9-3.2h2l-.5 1.3-1.5-1.3zm5.4 6.9l-.7 1.3-2.3-1.3h3zm-3.3-1.8l.2-.7.8.7h-1zm2 4.5l-.4.7-.7-1.4 1.1.7zm.8 1.7l.5-1 2.7 1.5-.7 1-2.5-1.5zm1.7 2.8l-.8 1.2c-.1-.7-.3-1.3-.6-2l1.4.8zm2.7-1.3c.7 1 1.4 1.8 2 2.4l-2.6-1.5.6-.9zm-3.3-3.8l.3-.6c.2.4.5.8.7 1.2l-1-.6zm-3-6.4l.2-.6c.2.4.4.8.5 1.2l-.7-.6zm-5.8-6.8l.4-.3.2.3h-.6zm-1.4-.8c.1-.5.3-1 .4-1.5l.6.8-1 .7zm.8-3.5v-.1l1.8-1.2 1.4 2-1.9 1.3-1.3-2zm2.3-3.4l-1.2-1.7c.2-1 .3-2 .5-2.9.3 1.6.6 3.1.9 4.5l-.2.1zM39.6 331l.4-.7v1.3l-.4-.6zm-1-1.3l-1-1.3 1-1.5 1 1.2-1 1.6zm-1.5.5l.6.8-.7 1.1c0-.6.1-1.3.1-1.9zm0-3.7v-1.4l.5.6-.5.8zm1.6 5.8l1 1.4-1.1 1.7-1-1.3 1.1-1.8zm1.6 3.3c0 .7.1 1.4.2 2.1l-.9-1.1.7-1zm-2.7 3.9l1.1-1.6 1.2 1.6h-2.3zm1.9-13.9l.4-.6v1.1l-.4-.5zm-2.7 10l.9 1.1-1.1 1.6c.1-.9.2-1.8.2-2.7zm-1.9 15l1 1.3-1.5 1.1c.2-.8.4-1.6.5-2.4zm-1.2 5.4l.9 1.3-1.6 1.1c.3-.8.5-1.6.7-2.4zm-3 9.1l.6 1.2-1.6 1.3c.3-.8.7-1.7 1-2.5zm-3.1 6.5l.5.7-1.3.7c.3-.5.6-.9.8-1.4zm1.1 7.2l-.9-1.3 1.8-1c-.4.7-.7 1.5-.9 2.3zm-1.8-2.6l-.8-1.2 2.9-1.6.8 1-2.9 1.8zm-2-.3l.7 1.1-3 1.8c.7-.8 1.5-1.7 2.3-2.9zm1.6 2.3l1.4 2.1H23l3.5-2.1zm4.5-4.7l-.6-.8 1.3-.7-.7 1.5zm6.5-9.5h2.4l2.6 5h-7.4l2.4-5zm13.9 14.9l2.5 1.5h-3.5l1-1.5zM43 359.8l-.7-1.1 1.6-1c.2.7.4 1.5.6 2.1H43zm-8.7 11.1h2.6c-1.2.2-2.2.6-3.2 1.2l.6-1.2zm6.6 0h2.5l.6 1.1c-1-.6-2-.9-3.1-1.1z"/><path opacity=".15" fill="#E9B530" d="M687.4 236.8c0-6.6-2.4-12.9-6.9-17.7l2.2-2.2c.5-.5.5-1.3 0-1.8s-1.3-.5-1.8 0l-6.5 6.5c-3.7-3.2-8.4-5-13.4-5-5.4 0-10.5 2.1-14.4 5.9-7.6 7.6-7.9 19.8-.9 27.7l-6.9 6.9c-.5.5-.5 1.3 0 1.8.3.3.6.4.9.4.3 0 .7-.1.9-.4l2.6-2.6c3.4 3.1 7.4 5.2 11.8 6.2-3.3 1.4-6.2 3.8-8 7-.2.4-.2.9 0 1.3s.7.6 1.1.6h26.4c.5 0 .9-.2 1.1-.6.2-.4.2-.9 0-1.3-1.9-3.3-4.9-5.8-8.3-7.1 4.6-1.1 8.7-3.5 12.2-6.9 5.2-5.1 7.9-11.7 7.9-18.7zm-39.2 3.5l3.8 3.8-4.2 4.2c-1.1-2-.9-4.9.4-8zm-.5-15.1l4.4 4.4c-1.9 2-3.5 4.2-4.7 6.3l-3-3c-.1-.1-.3-.2-.5-.3.7-2.7 1.9-5.2 3.8-7.4zm10.1-5.7l3.2 3.2c-2.4 1.3-4.9 3-7.1 5.1l-4.4-4.4c2.4-2 5.2-3.4 8.3-3.9 0-.1 0-.1 0 0zm16.6 13l-3.6-3.6 3.6-3.6c1 1.8.9 4.3 0 7.2zm-24.8 17.6l4.2-4.2 3.9 3.9c-1.8.7-3.5 1-5 1-1.2 0-2.2-.2-3.1-.7zm6-6l5.5-5.5 5.4 5.4c-2 1.9-4.2 3.4-6.4 4.6l-4.5-4.5zm7.3-7.3l6.1-6.1 4.3 4.3c-1.2 2.4-2.9 4.9-5 7.2l-5.4-5.4zm9.6-13.3L669 227l-3.5-3.5c1.4-.5 2.8-.7 4-.7 1.2 0 2.2.3 3 .7zm-5.3 5.4l-6.1 6.1-5.4-5.4c2.3-2.1 4.8-3.8 7.2-5l4.3 4.3zm-13.3 2.5l5.4 5.4-5.5 5.5-4.5-4.5c1.1-2.2 2.7-4.3 4.6-6.4zm5.7 20.3l2.8 2.8c-.4 0-.9.1-1.3.1-2.3 0-4.6-.4-6.7-1.3 1.7-.3 3.5-.8 5.2-1.6zm5.9 2.3l-.1-.1-3.4-3.4c2.2-1.2 4.3-2.8 6.3-4.6l4.4 4.4c-2.1 1.8-4.5 3-7.2 3.7zm9-5.6l-4.4-4.4c2.1-2.3 3.9-4.7 5.1-7.1l3.2 3.2c-.5 3.1-1.8 6-3.9 8.3zm4.3-11.5l-2.4-2.4c.6-1.5 1-2.9 1.1-4.3.9 2.1 1.3 4.3 1.3 6.7zm-11-16.5c-1.4.2-2.8.6-4.3 1.2l-2.4-2.4h.1c2.2-.1 4.5.3 6.6 1.2zm-24.4 15.1l2.7 2.7c-.8 1.8-1.3 3.5-1.5 5.2-1-2.5-1.4-5.2-1.2-7.9zm28.9 33.3h-21.5c2.6-3.2 6.6-5.1 10.8-5.1s8.1 1.9 10.7 5.1zm-11.2-8.3c-5.9 0-11.5-2.2-15.9-6.1l2.4-2.4c3.7 3.3 8.5 5.1 13.5 5.1 5.4 0 10.5-2.1 14.4-5.9 3.8-3.8 5.9-8.9 5.9-14.4 0-5-1.8-9.8-5.1-13.5l2.4-2.4c3.9 4.4 6.1 10 6.1 15.9 0 6.3-2.5 12.3-6.9 16.8-4.5 4.5-10.5 6.9-16.8 6.9z"/><g opacity=".15" fill="#72BAA6"><path d="M543 255.1l-.3-7.7c0-2.3-1.9-4.2-4.2-4.2h-7.2l-3.2-6.9c-.7-1.7-1.9-3.9-4.4-3.9h-3.4c.2-.3.3-.7.3-1.2v-6c0-1.3-1-2.3-2.3-2.3h-2.6v-1.6c0-.4-.3-.7-.7-.7h-3.4c-.4 0-.7.3-.7.7v1.6h-2.4c-1.3 0-2.3 1-2.3 2.3v6c0 .4.1.8.3 1.2h-4.4c-2.3 0-4.2 1.9-4.2 4.2v6.6h-4.8c-2.3 0-4.2 1.9-4.2 4.2v.1l.9 7.7c0 2.3 1.9 4.1 4.2 4.1h2.8c.3 3.3 3.1 6 6.6 6 3.4 0 6.2-2.6 6.6-5.9h10.8c.4 3.3 3.2 5.9 6.6 5.9 3.4 0 6.2-2.6 6.6-5.9h4.9c.1 0 .2 0 .3-.1 2-.1 3.8-1.9 3.8-4.2zm-1.6-4.8h-3.1v-1.4h3l.1 1.4zm-14.6-13.4l3.4 7.3c.1.3.4.4.7.4h7.7c1.5 0 2.7 1.2 2.7 2.8h-3.7c-.4 0-.7.3-.7.7v2.8c0 .4.3.7.7.7h3.8l.1 1.8h-10.1c-1.1-.9-2.5-1.4-4.1-1.4-1.5 0-3 .5-4.1 1.4h-9.3v-9.1h12.4c.2 0 .5-.1.6-.3.1-.2.2-.4.1-.7l-1.7-5c-.5-1.2-1.2-2.8-3-2.8H514v-1.7h9.9c1.1.1 2 1 2.9 3.1zm-6.1 21.1h-6.8v-3h7.9c-.6.8-1 1.9-1.1 3zm-12-3.1h3.7v3h-2.6c-.1-1-.5-2.1-1.1-3zm-5.6-13.4l4.4-4.4h4.9v5.9H503v-1.5zm0-2.1v-.8c0-.9.7-1.7 1.7-1.7h.8l-2.5 2.5zm10.8-2.4h7.7l-5.9 5.9h-1.8V237zm11.4 5.9H522l2.5-2.5.8 2.5zm-5.4 0h-2.3l5.5-5.5c.3.3.5.8.8 1.5l-4 4zm-8.3-18.4h4.8v7.7h-6.3v-7.7h1.5zm7.6.9v6c0 .5-.4.9-.9.9h-.3v-7.7h.4c.4-.1.8.3.8.8zm-6.8-3.2h2v.8h-2v-.8zm-4.8 3.2c0-.5.4-.9.9-.9h.3v7.7h-.3c-.5 0-.9-.4-.9-.9v-5.9zm-14.5 19.3h5.5c.4 0 .7-.3.7-.7v-7.3c0-1.5 1.2-2.7 2.7-2.7h10.4v1.7h-7.7c-1.7 0-3.1 1.4-3.1 3.1v5c0 .4.3.7.7.7h10.1v9.1h-5.1c-1.1-.9-2.5-1.4-4.1-1.4-1.6 0-3 .6-4.1 1.5-.1 0-.2-.1-.3-.1H491l-.7-6.1c.1-1.6 1.3-2.8 2.8-2.8zm-1.9 10.5c0-.1 0-.1 0 0v-.2h6.7c-.6.9-1 1.9-1.1 3H494c-1.6-.1-2.8-1.3-2.8-2.8zm12.1 8.7c-2.8 0-5.2-2.3-5.2-5.2 0-2.8 2.3-5.2 5.2-5.2 2.9 0 5.2 2.3 5.2 5.2 0 2.8-2.4 5.2-5.2 5.2zm24 0c-2.8 0-5.2-2.3-5.2-5.2 0-1.5.6-2.9 1.7-3.8.2-.1.3-.2.4-.3.9-.7 1.9-1 3.1-1 2.8 0 5.2 2.3 5.2 5.2-.1 2.7-2.4 5.1-5.2 5.1zm11.5-6c-.1 0-.2 0-.3.1h-4.7c-.1-1.1-.5-2.2-1.1-3h8.8v.2c.1 1.5-1.2 2.7-2.7 2.7z"/><path d="M520.2 246.5h-3.1c-.4 0-.7.3-.7.7 0 .4.3.7.7.7h3.1c.4 0 .7-.3.7-.7.1-.4-.3-.7-.7-.7zM502 247.9h3.1c.4 0 .7-.3.7-.7 0-.4-.3-.7-.7-.7H502c-.4 0-.7.3-.7.7 0 .4.3.7.7.7zM478.6 245.3h6.4c.4 0 .7-.3.7-.7 0-.4-.3-.7-.7-.7h-6.4c-.4 0-.7.3-.7.7 0 .4.3.7.7.7zM486.4 248.6c0-.4-.3-.7-.7-.7h-10c-.4 0-.7.3-.7.7 0 .4.3.7.7.7h10c.3.1.7-.3.7-.7zM486.5 256.3h-10c-.4 0-.7.3-.7.7 0 .4.3.7.7.7h10c.4 0 .7-.3.7-.7 0-.4-.3-.7-.7-.7zM480 252.1c-.4 0-.7.3-.7.7 0 .4.3.7.7.7h6.2c.4 0 .7-.3.7-.7 0-.4-.3-.7-.7-.7H480zM503.3 256c-1.5 0-2.7 1.2-2.7 2.7 0 1.5 1.2 2.7 2.7 2.7 1.5 0 2.7-1.2 2.7-2.7 0-1.5-1.2-2.7-2.7-2.7zm0 3.9c-.7 0-1.2-.5-1.2-1.2s.5-1.2 1.2-1.2 1.2.5 1.2 1.2-.5 1.2-1.2 1.2zM527.4 256c-1.5 0-2.7 1.2-2.7 2.7 0 1.5 1.2 2.7 2.7 2.7 1.5 0 2.7-1.2 2.7-2.7-.1-1.5-1.2-2.7-2.7-2.7zm0 3.9c-.7 0-1.2-.5-1.2-1.2s.5-1.2 1.2-1.2 1.2.5 1.2 1.2-.5 1.2-1.2 1.2z"/></g><path opacity=".15" fill="#3A6392" d="M229.1 246.6c0-4.2-6.2-7.1-14.7-8.7-2.3-8.9-10.4-15.6-20.1-15.6-9.7 0-17.9 6.7-20.1 15.7-1 .2-2 .4-2.9.7-7.3 1.9-11 4.5-11 7.9 0 2.9 2.9 5.4 8.7 7.2.2.1.4.1.6.1.8 0 1.6-.5 1.9-1.4.3-1-.2-2.1-1.3-2.5-4.8-1.5-5.9-3.1-5.9-3.5 0-.5 1.5-2.4 8-4.1.4-.1.9-.2 1.3-.3v.8c0 11.4 9.3 20.7 20.7 20.7s20.7-9.3 20.7-20.7v-1c.7.2 1.5.3 2.2.5 6.6 1.7 8 3.6 8 4.1 0 .3-.5 1.1-2.7 2.2l.1-.2c.4-1-.1-2.1-1.2-2.5-1-.4-2.1.1-2.5 1.2l-1.7 4.7c-.2.5-.2 1 .1 1.5.2.5.6.8 1.1 1l4.7 1.7c.1.1.3.1.4.1.9.1 1.8-.4 2.1-1.3.4-1-.1-2.1-1.2-2.5l-.3-.1c3.3-1.5 5-3.5 5-5.7zm-19.2 5.7h-5c.7-2.4 1.1-5.1 1.2-7.9h6.3c-.2 2.8-1.1 5.5-2.5 7.9zm-31 .1c-1.4-2.4-2.3-5.1-2.5-8h6.3c.1 2.8.5 5.5 1.2 7.9h-4.3c-.4-.1-.6 0-.7.1zm.5-19.5h4.7c-.8 2.6-1.3 5.6-1.4 8.8h-6.3c.1-3.2 1.2-6.2 3-8.8zm16.3-2.6v-5.2c2 .6 3.8 2.5 5.1 5.2h-5.1zm6.2 2.6c.9 2.6 1.5 5.6 1.6 8.8h-7.8v-8.8h6.2zm-8.9-7.8v5.2h-5.1c1.4-2.7 3.2-4.6 5.1-5.2zm0 7.8v8.8h-7.8c.1-3.2.7-6.2 1.6-8.8h6.2zm-7.8 11.4h7.8v7.9h-6.5c-.7-2.3-1.2-5-1.3-7.9zm7.8 10.6v6.1c-2.2-.6-4.1-2.9-5.6-6.1h5.6zm2.7 6v-6.1h5.6c-1.5 3.2-3.5 5.5-5.6 6.1zm0-8.7v-7.9h7.8c-.1 2.8-.6 5.5-1.3 7.9h-6.5zm10.4-10.5c-.1-3.2-.6-6.2-1.4-8.8h4.7c1.7 2.6 2.8 5.6 3.1 8.8h-6.4zm1.1-11.4h-3.5c-.6-1.5-1.4-2.8-2.3-3.9 2.2.9 4.2 2.3 5.8 3.9zm-19.9-3.9c-.9 1.1-1.6 2.4-2.3 3.9h-3.5c1.6-1.6 3.6-3 5.8-3.9zm-6.6 28.5h4c.7 1.9 1.6 3.5 2.6 4.8-2.6-1.1-4.8-2.8-6.6-4.8zm20.7 4.8c1-1.3 1.9-3 2.6-4.8h4c-1.8 2-4 3.7-6.6 4.8z"/><path opacity=".15" fill="#CE462A" d="M372 236.4c-1.8 0-3.5.4-5 1.1l-4.9-8.3c0-.1-.1-.2-.1-.3-.9-1.8-2.7-3-4.7-3.3h-5.7c-.7 0-1.2.5-1.2 1.2s.5 1.2 1.2 1.2h5.3c1.1.1 2.2.8 2.8 1.8 0 .1.1.2.1.3l1.5 2.5h-18.7l-1.5-2.5h1.9c.7 0 1.2-.5 1.2-1.2s-.5-1.2-1.2-1.2h-9.9c-.7 0-1.2.5-1.2 1.2s.5 1.2 1.2 1.2h5.3l2.1 3.7-4.1 4.8c-1.9-1.3-4.3-2.1-6.8-2.1-6.7 0-12.1 5.4-12.1 12.1s5.4 12.1 12.1 12.1c6.3 0 11.4-4.8 12-10.9h9.1c.1 0 .1 0 .2-.1h.1l.1-.1.1-.1.1-.1 11.6-13.6 1.8 3.1c-3 2.2-5 5.8-5 9.8 0 6.7 5.4 12.1 12.1 12.1 6.7 0 12.1-5.4 12.1-12.1s-5.3-12.3-11.9-12.3zm-21.2 10.1l-6.7-11.6h16.6l-9.9 11.6zm-2.3.8h-6.8c-.3-2.8-1.5-5.4-3.4-7.3l3.5-4.1 6.7 11.4zm-11.8-5.5c1.4 1.5 2.3 3.4 2.6 5.5H332l4.7-5.5zm-7 16.4c-5.4 0-9.7-4.4-9.7-9.7 0-5.4 4.4-9.7 9.7-9.7 1.9 0 3.7.6 5.2 1.5l-6.3 7.4c-.4.5-.4 1.2.1 1.7.2.2.5.3.8.3H339.3c-.5 4.8-4.6 8.5-9.6 8.5zm42.3 0c-5.4 0-9.7-4.4-9.7-9.7 0-3.2 1.5-6 3.9-7.7l4.9 8.3c.2.4.6.6 1 .6.2 0 .4-.1.6-.2.6-.3.8-1.1.4-1.6l-4.9-8.3c1.2-.5 2.5-.8 3.8-.8 5.4 0 9.7 4.4 9.7 9.7 0 5.3-4.4 9.7-9.7 9.7z"/><g opacity=".15" fill="#E9B530"><path d="M65.5 245.6c-.7-.3-.6-1.1-.6-1.4.2-1-.4-1.9-1.3-2.2l-11.9-3.1v-9.4c0-.9-.6-1.6-1.5-1.8-.8-.1-.9-.9-.9-1.2 0-1-.8-1.7-1.8-1.7H15.6c-1 0-1.8.8-1.8 1.7 0 .5-.2 1.2-1.2 1.2s-1.8.8-1.8 1.8v11.2c0 .9.7 1.7 1.7 1.8.2 0 .8.1 1 .8.2.8.9 1.3 1.7 1.3H25l-.9 3.2c-.2.9.2 1.9 1.1 2.2.2.1.7.3.7 1 0 .8.6 1.5 1.3 1.7l31.5 8.6c.2 0 .3.1.5.1.7 0 1.4-.4 1.7-1.1.1-.3.4-.7 1-.7.8 0 1.5-.6 1.7-1.3l2.8-10.4c.4-1.1-.1-1.9-.9-2.3zm-17.4-14.8v8.4c-.7.4-1.2 1.1-1.6 1.8h-4.4v-12.5h4c.4.9 1.1 1.8 2 2.3zm-33.7 8.6v-8.3c1.2-.5 2.1-1.4 2.6-2.6h21.4V241H16.3c-.5-.7-1.1-1.2-1.9-1.6zm13.5 8l.8-2.8h3.2c-.1.2-.2.3-.3.6-.3 1 .3 2 1.3 2.2l11 3.1c.2 0 .3.1.5.1.8 0 1.5-.5 1.8-1.3.3-1-.3-2-1.3-2.2l-8.4-2.4h11.4c.9 0 1.7-.7 1.8-1.5 0-.2.1-.6.4-.8l3.9 1-3.3 12-21.4-5.8c-.3-1-.7-1.7-1.4-2.2zm32.6 8.7c-.8.3-1.4.7-2 1.3l-4.2-1.2 3.3-12 3.8 1c.1 1.1.6 2 1.3 2.8l-2.2 8.1z"/><path d="M31 235.8H19.6c-1 0-1.8.8-1.8 1.8s.8 1.8 1.8 1.8H31c1 0 1.8-.8 1.8-1.8s-.8-1.8-1.8-1.8zM20.6 234.4h4.6c1 0 1.8-.8 1.8-1.8s-.8-1.8-1.8-1.8h-4.6c-1 0-1.8.8-1.8 1.8 0 .9.8 1.8 1.8 1.8z"/></g><g opacity=".15" fill="#72BAA6"><path d="M656.7 144.9h-4.8v-11.8h-3.1v14.4h7.9zM660.6 144.7h3l.6 2.9h3.1l-3.4-14.4h-3.5l-3.4 14.4h2.9l.7-2.9zm1.6-7.6l1 5.3h-2.1l1.1-5.3zM670.6 147.5l2.1-4.9 2 4.9h3.3l-3.4-7.5 3.3-6.9h-3l-2 4.8-1.9-4.8h-3.2l3.2 7.1-3.4 7.3zM648 151h30.2v1.1H648zM648 158.4h30.2v1.1H648zM648.1 154.1v2.3h1.6v-.5h-1.1v-1.8zM649.8 155.2c0 .7.5 1.2 1.2 1.2s1.2-.5 1.2-1.2c0-.6-.5-1.2-1.2-1.2-.6 0-1.2.6-1.2 1.2zm1.9 0c0 .4-.3.7-.7.7-.4 0-.7-.3-.7-.7 0-.4.3-.7.7-.7s.7.3.7.7zM653.5 155.9c-.3 0-.5-.1-.7-.3l-.3.4c.3.2.6.4 1 .4.5 0 .8-.3.8-.7 0-.4-.3-.6-.7-.7-.4-.1-.5-.2-.5-.3 0-.1.1-.2.3-.2.2 0 .4.1.6.2l.3-.4c-.2-.2-.5-.3-.8-.3-.5 0-.8.3-.8.7 0 .5.3.6.8.7.4.1.5.2.5.3-.1.2-.3.2-.5.2zM655.6 156.4h.5l.2-.5h1l.2.5h.5l-1-2.3h-.5l-.9 2.3zm1.5-1h-.6l.3-.7.3.7zM658.8 154.1h-.4v2.3h.5v-1.5l1.1 1.5h.4v-2.3h-.5v1.4zM662 154.5c.3 0 .4.1.6.2l.3-.4c-.2-.2-.5-.3-.9-.3-.7 0-1.2.5-1.2 1.2s.5 1.2 1.2 1.2c.4 0 .7-.2 1-.4v-1h-1v.4h.5v.3c-.1.1-.3.1-.5.1-.4 0-.7-.3-.7-.7.1-.3.4-.6.7-.6zM669.5 154.5v-.4h-1.8v2.3h1.8v-.5h-1.3v-.5h1.1v-.4h-1.1v-.5zM665.2 154.5v-.4h-1.7v2.3h1.7v-.5H664v-.5h1.1v-.4H664v-.5zM665.7 154.1v2.3h1.6v-.5h-1.1v-1.8zM670.6 155.9c-.3 0-.5-.1-.7-.3l-.3.4c.3.2.6.4 1 .4.5 0 .8-.3.8-.7 0-.4-.3-.6-.7-.7-.4-.1-.5-.2-.5-.3 0-.1.1-.2.3-.2.2 0 .4.1.6.2l.3-.4c-.2-.2-.5-.3-.8-.3-.5 0-.8.3-.8.7 0 .5.3.6.8.7.4.1.5.2.5.3-.1.2-.3.2-.5.2zM674.3 155.2c0 .7.4 1.2 1 1.2s1-.5 1-1.2-.4-1.2-1-1.2-1 .5-1 1.2zm1.5 0c0 .4-.2.7-.5.7s-.5-.3-.5-.7c0-.4.2-.7.5-.7s.5.3.5.7zM678.3 154.7c0-.4-.3-.7-.8-.7-.4 0-.6.2-.9.5l.4.3c.2-.2.3-.3.5-.3s.3.1.3.3c0 .2-.1.3-.4.5l-.8.6v.4h1.7v-.4h-1l.4-.3c.4-.3.6-.5.6-.9zM649 161.3c-.6 0-1 .5-1 1.2s.4 1.2 1 1.2 1-.5 1-1.2-.4-1.2-1-1.2zm.5 1.2c0 .4-.2.7-.5.7s-.5-.3-.5-.7c0-.4.2-.7.5-.7.3-.1.5.2.5.7zM650.2 161.5l.1.4.4-.1v1.8h.5v-2.3h-.3zM651.7 163.1h.5v.5h-.5zM653.6 161.3c-.6 0-1 .5-1 1.2s.4 1.2 1 1.2 1-.5 1-1.2-.4-1.2-1-1.2zm.5 1.2c0 .4-.2.7-.5.7s-.5-.3-.5-.7c0-.4.2-.7.5-.7.3-.1.5.2.5.7zM656.6 161.3h-.4l-1.3 1.5.1.4h1.1v.5h.5v-.5h.3v-.4h-.3v-1.5zm-.5 1.4h-.6l.6-.7v.7zM657.2 163.1h.5v.5h-.5zM657.9 161.5l.1.4.4-.1v1.8h.5v-2.3h-.4zM660.4 162.2l.6-.6v-.4h-1.5v.4h.9l-.5.5.1.3h.2c.3 0 .4.1.4.3 0 .2-.1.3-.3.3-.2 0-.4-.1-.6-.3l-.3.3c.2.2.5.4.9.4.5 0 .8-.3.8-.7-.1-.2-.4-.4-.7-.5z"/><path d="M683.2 116.7l-9.4-8.3c-.2-.2-.6-.3-.9-.3h-19.2c-.3 0-.6.1-.8.3l-10.2 8c-.3.3-.5.6-.5 1v50.7c0 .7.6 1.3 1.3 1.3h38.7c.7 0 1.3-.6 1.3-1.3V117.7c.2-.4 0-.8-.3-1zm-28.9-6h18.2l8.6 7.6v7.4H645V118l9.3-7.3zm26.7 56.1h-36v-38.5h36v38.5z"/><path d="M663 122.7c2.5 0 4.5-2 4.5-4.5s-2-4.5-4.5-4.5-4.5 2-4.5 4.5 2 4.5 4.5 4.5zm0-6.6c1.2 0 2.2 1 2.2 2.2 0 1.2-1 2.2-2.2 2.2-1.2 0-2.2-1-2.2-2.2 0-1.2 1-2.2 2.2-2.2z"/></g><g opacity=".15" fill="#CE462A"><path d="M497.1 144.8h3.1l.6 2.9h3.2l-3.4-14.8h-3.5l-3.5 14.8h3l.5-2.9zm1.5-7.7l1 5.4h-2.2l1.2-5.4zM507.6 147.7h3.2v-12.1h3.2V133h-9.6v2.6h3.2zM524.2 145h-4.9v-12h-3.1v14.7h8zM519.6 151.3h-1.2l1.1 4-2.7.1-.5-.9h-1.1l.6 1.5-.6 1.5h1.1l.5-.9 2.6.1-1 3.9h1.2l2.1-3.9h2.6c.4 0 .8-.3.8-.7 0-.4-.3-.8-.8-.8h-2.6l-2.1-3.9zM495.7 155.5h16.8v1.1h-16.8zM495.7 160.2h20.6v1.1h-20.6zM495.7 150.8h20.6v1.1h-20.6z"/><path d="M530.1 117.2c0-.4-.2-.8-.5-1l-9.6-8.5c-.2-.2-.6-.3-.9-.3h-19.6c-.3 0-.6.1-.8.3l-10.4 8.2c-.3.3-.5.6-.5 1.1V168.9c0 .7.6 1.4 1.4 1.4h39.6c.7 0 1.4-.6 1.4-1.4v-51.7zM500 110h18.6l8.8 7.7v7.6h-36.9v-7.8l9.5-7.5zm27.4 57.5h-36.9v-39.4h36.9v39.4z"/><path d="M509 122.3c2.5 0 4.6-2.1 4.6-4.6 0-2.5-2.1-4.6-4.6-4.6s-4.6 2.1-4.6 4.6c0 2.5 2 4.6 4.6 4.6zm0-6.7c1.3 0 2.3 1 2.3 2.3 0 1.3-1 2.3-2.3 2.3-1.3 0-2.3-1-2.3-2.3 0-1.3 1-2.3 2.3-2.3z"/></g><g opacity=".15" fill="#E9B530"><path d="M180.6 129.5h-.3l-1 .2c-.1 0-.2.1-.3.2-.1.1-.1.2-.1.3l.5 2.5c.1.2.3.4.4.4h.1c.2-.1.4-.3.3-.5l-.1-.5.6-.1c.3-.1.6-.2.8-.5.2-.3.3-.6.2-1-.1-.6-.5-1-1.1-1zm.3 1.2c0 .1 0 .2-.1.3-.1.1-.2.2-.3.2l-.6.1-.2-.9.6-.1c.4 0 .6.2.6.4zM183.9 129.1c-.1-.1-.2-.2-.4-.2s-.4.1-.4.3l-.8 2.8c-.1.3.1.5.3.6.3 0 .4-.1.5-.3l.1-.4 1.5-.3.2.3c.2.3.6.2.7-.1.1-.2 0-.3-.1-.4l-1.6-2.3zm.2 1.7l-.7.1.2-.8.5.7zM187 130.3c.4 0 .7.1.7.2s0 .2-.1.3c-.1.1-.3.2-.6.2-.2 0-.4 0-.5-.1-.2-.1-.4-.1-.6.2-.1.2 0 .5.2.6.2.1.5.2.8.2.4 0 1.1-.1 1.4-.6.2-.2.3-.5.2-.9-.1-.8-.9-.8-1.4-.9-.5 0-.7-.1-.7-.3 0-.1 0-.1.1-.2s.3-.2.5-.2c.1 0 .3 0 .4.1.2.1.5 0 .5-.3 0-.2 0-.4-.2-.5-.2-.1-.4-.1-.6-.1-.5 0-.9.2-1.2.5-.2.2-.3.5-.3.8 0 .9.8.9 1.4 1zM190 129.6c.4 0 .7.1.7.2s0 .2-.1.3c-.1.1-.3.2-.6.2-.2 0-.4 0-.5-.1-.2-.1-.4-.1-.6.2-.1.2 0 .5.2.6.2.1.5.2.8.2.4 0 1-.1 1.4-.6.2-.2.3-.5.2-.9-.1-.8-.9-.8-1.4-.9-.5 0-.7-.1-.7-.3 0-.1 0-.1.1-.2s.3-.2.5-.2c.1 0 .3 0 .4.1.2.1.5 0 .5-.3 0-.2 0-.4-.2-.5-.2-.1-.4-.1-.6-.1-.5 0-.9.2-1.2.5-.2.2-.3.5-.3.8.1.9.8 1 1.4 1zM192.1 130.2c.1.2.3.4.4.4h.1c.1 0 .2-.1.3-.2.1-.1.1-.2.1-.3l-.1-.5.6-.1c.6-.1 1.2-.7 1-1.5-.1-.6-.6-1-1.2-1h-.3l-1 .2c-.1 0-.2.1-.3.2-.1.1-.1.2-.1.3l.5 2.5zm.4-2.4l.6-.1c.2-.1.5.1.5.4 0 .2-.1.5-.3.5l-.6.1-.2-.9zM196.6 129.7c.2 0 .3 0 .5-.1.4-.1.8-.3 1.1-.7.2-.3.4-.8.3-1.4-.2-1.1-1.1-1.4-1.8-1.4h-.3c-.5.1-.9.3-1.2.7-.3.4-.4.9-.3 1.5.2.9.8 1.4 1.7 1.4zm-.1-2.7h.2c.4 0 .8.2.9.8.1.6-.3 1-.8 1.1h-.2c-.4 0-.8-.2-.9-.8-.1-.6.3-1 .8-1.1zM199.2 128.8c0 .2.2.3.4.3.1 0 .3-.1.4-.2.1-.1.1-.2.1-.4l-.1-.7.5-.1.8.8c.2.2.6.1.7-.1.1-.2 0-.3-.1-.5l-.6-.5c.3-.3.4-.7.3-1.2-.2-.6-.7-.9-1.4-.8l-1.2.2c-.1 0-.2.1-.3.2-.1.1-.1.2-.1.3l.6 2.7zm.4-2.4l.7-.2c.2-.1.4.1.4.3 0 .1 0 .3-.3.4l-.7.2-.1-.7zM204.1 124.6l-2.1.4c-.2 0-.4.2-.3.5 0 .2.2.4.5.4l.7-.1.4 2.2c0 .2.2.3.4.3.1 0 .3-.1.4-.2.1-.1.1-.2.1-.4l-.4-2.2.6-.1c.3-.1.4-.3.3-.5-.1-.1-.3-.3-.6-.3zM195.6 156.2c0-.2-.2-.4-.4-.4-.1 0-.3.1-.4.2-.1.1-.1.3-.1.4l.4 1.8c0 .2 0 .4-.1.5-.1.2-.4.3-.7.3-.3 0-.6-.1-.7-.5l-.4-1.8c0-.2-.2-.4-.5-.4-.1 0-.3.1-.4.2-.1.1-.1.3-.1.4l.4 1.8c.2.9.9 1.3 1.6 1.3.6 0 1.1-.2 1.5-.7.3-.4.4-.8.3-1.3l-.4-1.8zM198 156.7c-.6 0-.8-.1-.8-.3 0-.1 0-.2.1-.2.1-.1.3-.2.6-.2.2 0 .3 0 .4.1.2.1.5 0 .6-.3 0-.2-.1-.4-.3-.5-.2-.1-.4-.1-.7-.1-.5 0-1.1.2-1.4.5-.2.2-.3.5-.3.8.1 1 .9 1 1.6 1.1.5 0 .8.1.8.3 0 .1 0 .2-.1.3-.1.1-.4.2-.7.2-.2 0-.4 0-.6-.1-.2-.1-.4-.1-.6.2-.1.2 0 .5.2.6.2.1.5.2.8.2.5 0 1.2-.2 1.6-.6.2-.3.3-.6.2-1 0-.9-.8-.9-1.4-1zM201.7 154.7c-.1-.1-.2-.2-.4-.2s-.4.2-.5.4l-.9 3.2c-.1.3.1.5.3.6.3 0 .5-.1.5-.4l.1-.4 1.7-.4.3.3c.1.1.2.2.3.2.2 0 .4-.1.4-.3.1-.2.1-.3-.1-.5l-1.7-2.5zm.4 2l-.8.2.2-.9.6.7z"/><path d="M217.9 160.4l-8.6-41.7c-.3-1.5-1.7-2.6-3.2-2.6-.2 0-.4 0-.7.1l-18.6 3.8 16.7-7.5c.6-.3.9-1 .6-1.7-.3-.6-1-.9-1.7-.6l-20.9 9.4 13.7-10.5c.6-.4.7-1.2.2-1.8-.4-.6-1.2-.7-1.8-.2L172 123.8c-.6.4-.7 1.2-.2 1.8 0 .3 0 .6.1.9l8.6 41.7c.3 1.5 1.7 2.6 3.2 2.6.2 0 .4 0 .7-.1l31.1-6.4c1.7-.4 2.8-2.1 2.4-3.9zm-3 1.4l-31.1 6.4c-.4.1-.8-.2-.9-.6l-8.6-41.7c0-.2 0-.4.1-.6.1-.2.3-.3.5-.3l1.3-.3 29.8-6.1h.1c.3 0 .6.2.7.6l8.6 41.7c.1.4-.1.8-.5.9z"/><path d="M202.8 140.9c-.8-4-4.4-6.9-8.4-6.9-.6 0-1.2.1-1.7.2-4.6 1-7.7 5.5-6.7 10.2.8 4 4.4 6.9 8.4 6.9.6 0 1.2-.1 1.7-.2 4.7-1 7.7-5.5 6.7-10.2zm-3.3 5.9c.3-1.3.3-2.7.1-4.2l1.4-.3c0 1.7-.5 3.3-1.5 4.5zm-2.2.3c-.2.6-.4 1.1-.7 1.5l-1-5 2-.4c.2 1.3.1 2.7-.3 3.9zm-2.1-5.6l-1-5.1c1.1.6 2.3 2.2 3 4.6l-2 .5zm-3-4.7l1 5.1-2 .4c-.3-2.5.1-4.5 1-5.5zm1.4 7.1l1 5.1c-1.1-.6-2.3-2.2-3-4.6l2-.5zm7-3.5l-1.4.3c-.4-1.5-1-2.8-1.7-3.8 1.3.7 2.5 1.9 3.1 3.5zm-11.3-1.9c-.3 1.3-.3 2.7-.1 4.2l-1.4.3c-.1-1.7.5-3.3 1.5-4.5zm-1.1 6.5l1.4-.3c.4 1.5 1 2.8 1.7 3.8-1.4-.7-2.5-2-3.1-3.5z"/></g><g opacity=".15" fill="#3A6392"><path d="M372.3 115.4l-9.9-8.8c-.3-.2-.6-.4-.9-.4h-20.3c-.3 0-.6.1-.9.3l-10.8 8.5c-.3.3-.5.7-.5 1.1v53.8c0 .8.6 1.4 1.4 1.4h41c.8 0 1.4-.6 1.4-1.4v-53.5c-.1-.4-.2-.8-.5-1zm-30.7-6.4h19.3l9.1 8v7.9h-38.2v-8.1l9.8-7.8zm28.3 59.5h-38.2v-40.8h38.2v40.8z"/><path d="M339.4 148.4c.8 0 1.5-.1 2.1-.3.6-.2 1.1-.5 1.5-1 .4-.4.7-.9.9-1.5.2-.6.3-1.2.3-1.9v-11h-3.3V144c0 .6-.1 1-.4 1.3-.3.3-.6.4-1.1.4-.5 0-.9-.1-1.1-.4-.3-.3-.4-.7-.4-1.3v-2h-3.1v2c0 1.4.4 2.4 1.2 3.2.7.8 1.9 1.2 3.4 1.2zM349.6 141.7h3.7v-2.6h-3.7v-3.7h5.1v-2.6h-8.4V148h3.3zM359.3 143.7l1.2-1.9 2.5 6.2h3.5l-3.8-8.8 3.6-6.4H363l-3.7 6.8v-6.8h-3.2V148h3.2zM335.5 151.8h32v1.1h-32zM337.3 158h.4v-2.5h-.5v1.5l-1.1-1.5h-.5v2.5h.5v-1.6zM338.8 157h1.2v-.5h-1.2v-.5h1.3v-.5h-1.8v2.5h1.9v-.5h-1.4zM343.6 155.5l-.5 1.7-.6-1.7h-.4l-.6 1.7-.5-1.7h-.6l.9 2.5h.4l.6-1.6.5 1.6h.5l.8-2.5zM346.5 156.5l-.6-1h-.6l.9 1.5v1h.6v-1l.9-1.5h-.6zM349 155.5c-.7 0-1.3.6-1.3 1.3 0 .7.5 1.2 1.3 1.2.7 0 1.3-.6 1.3-1.3 0-.6-.5-1.2-1.3-1.2zm.7 1.3c0 .4-.3.8-.7.8-.4 0-.7-.3-.7-.8 0-.4.3-.8.7-.8.4 0 .7.3.7.8zM352.8 156.3c0-.2-.1-.4-.2-.6-.2-.2-.4-.2-.7-.2h-1.1v2.4h.5v-.8h.4l.5.8h.6l-.6-.9c.4 0 .6-.3.6-.7zm-.6.1c0 .2-.1.3-.4.3h-.5v-.7h.5c.3 0 .4.1.4.4zM355.4 155.5h-.6l-1 1.1v-1.1h-.5v2.5h.5v-.8l.3-.3.7 1.1h.7l-1.1-1.4zM364.1 156.8c0-.7-.4-1.3-1.1-1.3-.6 0-1.1.5-1.1 1.3 0 .7.4 1.2 1.1 1.2s1.1-.5 1.1-1.2zm-1.6 0c0-.4.2-.8.5-.8s.5.3.5.8c0 .4-.2.8-.5.8-.3-.1-.5-.4-.5-.8zM365.4 158v-2.5h-.4l-.7.2.1.5.5-.1v1.9zM336.9 160.1l-2.1 5h1.1l.5-1.1h2.1l.5 1.1h1.1l-2.1-5h-1.1zm-.1 2.9l.7-1.6.7 1.6h-1.4zM340.4 160.5l.2.9.9-.2v3.9h1.1v-5h-.8zM345.9 162.1l1.3-1.2v-.8h-3.3v.9h1.9l-1.2 1.2.2.7h.5c.6 0 1 .2 1 .6 0 .4-.3.6-.7.6-.5 0-.9-.2-1.2-.6l-.8.7c.4.5 1 .9 1.9.9 1.1 0 1.8-.7 1.8-1.6-.1-.9-.7-1.2-1.4-1.4zM366.7 159.7c-.2-.2-.5-.2-.7 0l-1.2 1.2-2.9-.9-.6.6 2.4 1.4-1.2 1.3-.7-.2-.5.5 1 .4.4 1 .5-.5-.2-.5 1.3-1.2 1.4 2.4.6-.6-.9-2.9 1.3-1.3c.2-.2.2-.5 0-.7zM350.8 121.7c2.6 0 4.8-2.1 4.8-4.8 0-2.6-2.1-4.8-4.8-4.8-2.6 0-4.8 2.1-4.8 4.8.1 2.7 2.2 4.8 4.8 4.8zm0-6.9c1.3 0 2.3 1 2.3 2.3 0 1.3-1.1 2.3-2.3 2.3-1.3 0-2.3-1.1-2.3-2.3 0-1.3 1-2.3 2.3-2.3z"/></g><path fill="#72BAA6" d="M23.4 171.6h-.3c-.5-.1-.9-.4-1.1-.9l-4.7-10.6-10.6-4.7c-.5-.2-.8-.6-.9-1.1-.1-.5.1-1 .4-1.4l6.1-6.1c.4-.4.9-.5 1.4-.4l6.7 1.7 11.7-12.8-25.3-14.8c-.4-.2-.7-.6-.7-1.1-.1-.5.1-.9.4-1.3l6.2-6.2c.4-.4 1-.5 1.5-.4l31.8 9.7 13.1-13.1c1.4-1.4 3.2-2.2 5.2-2.2s3.8.8 5.2 2.2l.1.1c2.8 2.8 2.6 7.1-.3 10.1L56 131.5l9.5 31.2c.2.5 0 1.1-.4 1.5l-6.2 6.2c-.3.3-.8.5-1.3.4-.5-.1-.9-.3-1.1-.7L42 145.4l-12.7 11.5 1.7 6.8c.1.5 0 1.1-.4 1.4l-6.1 6.1c-.3.3-.7.4-1.1.4zM9.9 153.5l9.1 4c.4.2.6.4.8.8l4 9.1 3.9-3.9-1.7-6.8c-.1-.5 0-1.1.5-1.5l14.8-13.4c.3-.3.8-.4 1.3-.4.5.1.9.3 1.1.7l14.4 24.7 4.2-4.2-9.5-31.2c-.2-.5 0-1.1.4-1.5l14-14c1.5-1.5 2.2-3.9.3-5.8l-.1-.1c-.8-.8-1.9-1.3-3.1-1.3-1.2 0-2.2.4-3.1 1.3l-13.6 14c-.4.4-1 .5-1.5.4l-31.8-9.7-4.2 4.2 25.2 14.7c.4.2.7.6.7 1.1.1.5-.1.9-.4 1.3l-13.5 14.9c-.4.4-.9.6-1.5.5l-6.8-1.7-3.9 3.8z" opacity=".15"/><g opacity=".15" fill="#CE462A"><path d="M669.5 38.1h-2.9c.7-.8 1.1-1.9 1.1-3V20.7c0-2.6-2.1-4.6-4.6-4.6H656V12c0-.4-.4-.8-.8-.8h-8.3c-.4 0-.8.4-.8.8v4h-6.8c-2.6 0-4.6 2.1-4.6 4.6V35c0 2.6 2.1 4.6 4.6 4.6h2.9c-.7.8-1.1 1.9-1.1 3v5.8c0 2.6 2.1 4.6 4.6 4.6h9.9c.1.4.4.7.8.7h8.3c.4 0 .7-.3.8-.7h4c2.6 0 4.6-2.1 4.6-4.6v-5.8c0-2.4-2.1-4.5-4.6-4.5zm3 4.7v2.1h-25v-2.1c0-1.7 1.4-3 3-3H669.4c1.8-.1 3.1 1.3 3.1 3zm-33.3-11.2l1.4-3.2 6.8 2.9-1.4 3.2-6.8-2.9zm6.9 4.7c.1 0 .2.1.3.1.3 0 .6-.2.7-.5l2-4.7c.1-.2.1-.4 0-.6-.1-.2-.2-.4-.4-.4l-4.9-2.1V17.6H658.5v9c-.7 0-1.4.2-2.1.4-2.2.8-3.4 2.4-2.9 3.7.3.8 1.2 1.3 2.5 1.3.7 0 1.5-.1 2.2-.4.1 0 .2-.1.3-.1v6.6h-14.8v-2.8l2.4 1zm8.3-21v.7h-6.7v-1.1h6.7v.4zm4.3 12.9c.7 0 .9.2 1 .3.1.2-.5 1.1-2 1.7-.6.2-1.1.3-1.6.3-.7 0-.9-.2-1-.3-.1-.2.5-1.1 2-1.7.5-.1 1.1-.3 1.6-.3zm-13.1 11.5h1.4c-.7.8-1.1 1.9-1.1 3v2.1h-3.3v-2.1c0-1.6 1.3-3 3-3zm20.5-19v14.4c0 1.7-1.4 3-3 3h-.1V17.6h.1c1.6 0 3 1.4 3 3.1zm-4.7-3.1v20.5h-1.2v-7.6c.9-.8 1.3-1.8 1-2.6-.2-.5-.5-.8-1-1v-9.3h1.2zm-7-4.8v.5h-6.7v-.5h6.7zm-12.2 4.8v9.8l-1.2-.5v-9.2h1.2zm-6 17.5V20.7c0-1.7 1.4-3 3-3h.2v9.6l-2 4.6c-.1.2-.1.4 0 .6.1.2.2.4.4.4l1.5.7v4.7h-.2c-1.6-.2-2.9-1.5-2.9-3.2zm4.8-1l1.2.5v3.5H641v-4zm1.6 14.4v-2.1h3.3v2.1c0 1.2.4 2.2 1.1 3h-1.4c-1.7.1-3-1.3-3-3zm14.5 3.7v-.5h6.7v.5h-6.7zm12.4-.6c-.1 0-.1 0 0 0h-4v-3.4c0-.4-.4-.8-.8-.8s-.8.4-.8.8v1.9h-6.7v-1.9c0-.4-.4-.8-.8-.8s-.8.4-.8.8V51.6h-5c-1.7 0-3-1.4-3-3v-2.1h25v2.1c-.1 1.6-1.4 3-3.1 3zM686.1 19.8h-1v-1.3c0-1.1-.9-1.9-1.9-1.9-1.1 0-1.9.9-1.9 1.9v1.3h-1c-2.6 0-4.6 2.1-4.6 4.6V48.3c0 2.6 2.1 4.6 4.6 4.6h5.8c2.6 0 4.6-2.1 4.6-4.6V24.4c0-2.5-2.1-4.6-4.6-4.6zm0 1.6c1.7 0 3 1.4 3 3v1.4c-.8-.7-1.9-1.1-3-1.1H684v-.2c.7-.3 1.1-1 1.1-1.7v-1.4h1zm-5.8 0h1v1.4c0 .8.5 1.4 1.1 1.7v.2h-2.1c-1.2 0-2.2.4-3 1.1v-1.4c0-1.6 1.3-3 3-3zm-3 26.9s0-.1 0 0V29.4c0-1.7 1.4-3 3-3h2.1v25h-2.1c-1.7-.1-3-1.4-3-3.1zm11.8 0c0 1.7-1.4 3-3 3H684v-25h2.1c1.7 0 3 1.4 3 3v19z"/><path d="M654.7 23.5c.1-.3 0-.6-.3-.8l-4.5-3.6c-.2-.2-.4-.2-.7-.2-.2.1-.4.2-.5.4l-2.5 5.2c-.1.3-.1.6.1.8.2.2.4.3.6.3h.2l7-1.6c.3 0 .6-.2.6-.5zm-6.4.3l1.3-2.8 2.5 1.9-3.8.9z"/></g><g opacity=".15" fill="#72BAA6"><path d="M181.3 30.4c-1.4 0-2.6 1.2-2.6 2.6 0 1.4 1.2 2.6 2.6 2.6 1.4 0 2.6-1.2 2.6-2.6 0-1.4-1.1-2.6-2.6-2.6zm0 3.4c-.4 0-.8-.3-.8-.8 0-.4.3-.8.8-.8.4 0 .8.3.8.8 0 .4-.3.8-.8.8zM188.3 30.4c-1.4 0-2.6 1.2-2.6 2.6 0 1.4 1.2 2.6 2.6 2.6 1.4 0 2.6-1.2 2.6-2.6 0-1.4-1.2-2.6-2.6-2.6zm0 3.4c-.4 0-.8-.3-.8-.8 0-.4.3-.8.8-.8.4 0 .8.3.8.8 0 .4-.4.8-.8.8zM190.8 56.7c-.5 0-.9.4-.9.9 0 1.5-1.2 2.7-2.7 2.7-1.5 0-2.7-1.2-2.7-2.7 0-.5-.4-.9-.9-.9s-.9.4-.9.9c0 1.5-1.2 2.7-2.7 2.7s-2.7-1.2-2.7-2.7c0-.5-.4-.9-.9-.9s-.9.4-.9.9c0 1.5-1.2 2.7-2.7 2.7-1.5 0-2.7-1.2-2.7-2.7 0-.5-.4-.9-.9-.9s-.9.4-.9.9c0 2.5 2 4.5 4.5 4.5 1.5 0 2.8-.7 3.6-1.8.8 1.1 2.1 1.8 3.6 1.8s2.8-.7 3.6-1.8c.8 1.1 2.1 1.8 3.6 1.8 2.5 0 4.5-2 4.5-4.5 0-.5-.4-.9-.9-.9zM222.6 56.7c-.5 0-.9.4-.9.9 0 1.5-1.2 2.7-2.7 2.7-1.5 0-2.7-1.2-2.7-2.7 0-.5-.4-.9-.9-.9s-.9.4-.9.9c0 1.5-1.2 2.7-2.7 2.7-1.5 0-2.7-1.2-2.7-2.7 0-.5-.4-.9-.9-.9s-.9.4-.9.9c0 1.5-1.2 2.7-2.7 2.7s-2.7-1.2-2.7-2.7c0-.5-.4-.9-.9-.9s-.9.4-.9.9c0 2.5 2 4.5 4.5 4.5 1.5 0 2.8-.7 3.6-1.8.8 1.1 2.1 1.8 3.6 1.8s2.8-.7 3.6-1.8c.8 1.1 2.1 1.8 3.6 1.8 2.5 0 4.5-2 4.5-4.5 0-.5-.4-.9-.9-.9z"/><path d="M227.5 46.2c-.5 0-.9.4-.9.9 0 1.5-1.2 2.7-2.7 2.7-1.5 0-2.7-1.2-2.7-2.7 0-.5-.4-.9-.9-.9s-.9.4-.9.9c0 1.5-1.2 2.7-2.7 2.7h-.3c2.4-2.5 3.8-5.7 3.8-9.2v-3.3c0-.5-.4-.9-.9-.9h-23.5V3.7c0-.5-.4-.9-.9-.9s-.9.4-.9.9V28h-17.7c-.5 0-.9.4-.9.9v7.6h-5c-.5 0-.9.4-.9.9v3.3c0 3.5 1.4 6.8 3.8 9.2h-.3c-1.5 0-2.7-1.2-2.7-2.7 0-.5-.4-.9-.9-.9s-.9.4-.9.9c0 1.5-1.2 2.7-2.7 2.7-1.5 0-2.7-1.2-2.7-2.7 0-.5-.4-.9-.9-.9s-.9.4-.9.9c0 2.5 2 4.5 4.5 4.5 1.5 0 2.8-.7 3.6-1.8.8 1.1 2.1 1.8 3.6 1.8s2.8-.7 3.6-1.8c.8 1.1 2.1 1.8 3.6 1.8s2.8-.7 3.6-1.8c.8 1.1 2.1 1.8 3.6 1.8s2.8-.7 3.6-1.8c.8 1.1 2.1 1.8 3.6 1.8s2.8-.7 3.6-1.8c.8 1.1 2.1 1.8 3.6 1.8s2.8-.7 3.6-1.8c.8 1.1 2.1 1.8 3.6 1.8s2.8-.7 3.6-1.8c.8 1.1 2.2 1.8 3.6 1.8 1.5 0 2.8-.7 3.6-1.8.8 1.1 2.1 1.8 3.6 1.8 2.5 0 4.5-2 4.5-4.5.5-.6.1-1-.4-1zm-50.4-16.4h16.8v6.7h-16.8v-6.7zm32.2 20.1c-1.5 0-2.7-1.2-2.7-2.7 0-.5-.4-.9-.9-.9s-.9.4-.9.9c0 1.5-1.2 2.7-2.7 2.7-1.5 0-2.7-1.2-2.7-2.7 0-.5-.4-.9-.9-.9s-.9.4-.9.9c0 1.5-1.2 2.7-2.7 2.7-1.5 0-2.7-1.2-2.7-2.7 0-.5-.4-.9-.9-.9s-.9.4-.9.9c0 1.5-1.2 2.7-2.7 2.7-1.5 0-2.7-1.2-2.7-2.7 0-.5-.4-.9-.9-.9s-.9.4-.9.9c0 1.5-1.2 2.7-2.7 2.7-1.5 0-2.7-1.2-2.7-2.7 0-.5-.4-.9-.9-.9s-.9.4-.9.9c0 .7-.3 1.4-.7 1.8h-.1c-2.3-2.1-3.6-5.2-3.6-8.3v-2.4h47.1v2.4c0 3.1-1.2 6-3.4 8.1h-.4c-.4-.5-.6-1-.6-1.7 0-.5-.4-.9-.9-.9s-.9.4-.9.9c-.5 1.5-1.7 2.8-3.2 2.8z"/><path d="M198 34.7h20.2c.3 0 .6-.2.8-.5.2-.3.1-.6 0-.9l-20.2-30c-.2-.3-.6-.5-1-.4-.4.1-.6.5-.6.9v30c-.1.5.3.9.8.9zm.9-28l17.6 26.2h-17.6V6.7z"/></g><path opacity=".15" fill="#E9B530" d="M375.6 35.8c0-.2 0-.3-.1-.5 0-.1 0-.2-.1-.2 0-.1 0-.2-.1-.3 0-.1-.1-.2-.1-.3 0-.1-.1-.1-.1-.2-.2-.3-.4-.5-.7-.7-.1 0-.1-.1-.2-.1s-.2-.1-.2-.1c-.1 0-.2-.1-.3-.1-.1 0-.1 0-.2-.1-.2 0-.3-.1-.5-.1s-.3 0-.5.1c-.1 0-.2 0-.2.1-.1 0-.2 0-.3.1-.1 0-.2.1-.3.1-.1 0-.1.1-.2.1-.1.1-.3.2-.4.3l-5.7 5.7c-1 1-1 2.7 0 3.7.5.5 1.2.8 1.8.8.5 0 1-.1 1.4-.4-2.7 6.1-8.4 10.6-15.3 11.5v-35h9.1c1.4 0 2.6-1.2 2.6-2.6 0-1.4-1.2-2.6-2.6-2.6h-9.1V7c0-1.4-1.2-2.6-2.6-2.6-1.4 0-2.6 1.2-2.6 2.6v8H339c-1.4 0-2.6 1.2-2.6 2.6 0 1.4 1.2 2.6 2.6 2.6h9.1v35c-7-.9-12.8-5.6-15.4-11.8.3.1.7.2 1 .2.7 0 1.3-.3 1.8-.8 1-1 1-2.7 0-3.7l-5.1-5.1c-.1-.1-.3-.2-.4-.3-.1 0-.1-.1-.2-.1s-.2-.1-.2-.1c-.1 0-.2-.1-.3-.1-.1 0-.1 0-.2-.1-.3-.1-.7-.1-1 0-.1 0-.1 0-.2.1-.1 0-.2 0-.3.1-.1 0-.2.1-.2.1-.1 0-.1.1-.2.1-.3.2-.5.4-.7.7 0 .1-.1.1-.1.2s-.1.2-.1.3c0 .1-.1.2-.1.3 0 .1-.1.1-.1.2 0 .2-.1.3-.1.5 0 13.7 11.1 24.8 24.8 24.8 13.7-.1 24.8-11.2 24.8-24.9z"/><g opacity=".15" fill="#CE462A"><path d="M4.3 25l7.9 4c.1.1.2.1.4.1.1 0 .3 0 .4-.1.2-.1.4-.4.4-.7v-7.9c0-.3-.1-.5-.4-.7-.2-.1-.5-.2-.8 0l-7.9 4c-.3 0-.4.3-.4.6s.1.6.4.7zm7.5-3.4V27l-5.3-2.7 5.3-2.7zM25.1 28.7c-1.3 0-2.3 1-2.3 2.3s1 2.3 2.3 2.3c1.3 0 2.3-1 2.3-2.3s-1-2.3-2.3-2.3zm0 3c-.4 0-.7-.3-.7-.7 0-.4.3-.7.7-.7.4 0 .7.3.7.7 0 .4-.3.7-.7.7zM31.8 28.7c-1.3 0-2.3 1-2.3 2.3s1 2.3 2.3 2.3c1.3 0 2.3-1 2.3-2.3s-1.1-2.3-2.3-2.3zm0 3c-.4 0-.7-.3-.7-.7 0-.4.3-.7.7-.7.4 0 .7.3.7.7 0 .4-.3.7-.7.7zM38.4 28.7c-1.3 0-2.3 1-2.3 2.3s1 2.3 2.3 2.3c1.3 0 2.3-1 2.3-2.3s-1-2.3-2.3-2.3zm0 3c-.4 0-.7-.3-.7-.7 0-.4.3-.7.7-.7.4 0 .7.3.7.7 0 .4-.3.7-.7.7zM33.5 53.4c-.4 0-.8.4-.8.8 0 1.5-1.2 2.6-2.6 2.6-1.5 0-2.6-1.2-2.6-2.6 0-.4-.4-.8-.8-.8s-.8.4-.8.8c0 1.5-1.2 2.6-2.6 2.6-1.5 0-2.6-1.2-2.6-2.6 0-.4-.4-.8-.8-.8s-.8.4-.8.8c0 1.5-1.2 2.6-2.6 2.6-1.5 0-2.6-1.2-2.6-2.6 0-.4-.4-.8-.8-.8s-.8.4-.8.8c0 2.3 1.9 4.2 4.2 4.2 1.4 0 2.7-.7 3.4-1.8.8 1.1 2 1.8 3.4 1.8s2.7-.7 3.4-1.8c.8 1.1 2 1.8 3.4 1.8 2.3 0 4.2-1.9 4.2-4.2 0-.5-.4-.8-.8-.8zM63.6 53.4c-.4 0-.8.4-.8.8 0 1.5-1.2 2.6-2.6 2.6-1.5 0-2.6-1.2-2.6-2.6 0-.4-.4-.8-.8-.8s-.8.4-.8.8c0 1.5-1.2 2.6-2.6 2.6-1.5 0-2.6-1.2-2.6-2.6 0-.4-.4-.8-.8-.8s-.8.4-.8.8c0 1.5-1.2 2.6-2.6 2.6S44 55.6 44 54.2c0-.4-.4-.8-.8-.8s-.8.4-.8.8c0 2.3 1.9 4.2 4.2 4.2 1.4 0 2.7-.7 3.4-1.8.8 1.1 2 1.8 3.4 1.8s2.7-.7 3.4-1.8c.8 1.1 2 1.8 3.4 1.8 2.3 0 4.2-1.9 4.2-4.2 0-.5-.4-.8-.8-.8z"/><path d="M76.6 43.5c-.4 0-.8.4-.8.8 0 1.5-1.2 2.6-2.6 2.6-1.5 0-2.6-1.2-2.6-2.6 0-.3-.1-.5-.3-.7.8-1.7 1.3-3.6 1.3-5.5V35c0-.4-.4-.8-.8-.8h-9V18.5c0-.4-.4-.8-.8-.8H42.7h-.1-.1c-.4 0-.8.4-.8.8 0 3.4-2.3 6.2-5.4 7V7.4c0-.4-.4-.8-.8-.8h-7.8c-.4 0-.8.4-.8.8v18.3h-7.1c-.4 0-.8.4-.8.8v7.7h-3.1V20.4c0-.4-.4-.8-.8-.8s-.8.4-.8.8v13.7H8.4c-.4 0-.8.4-.8.8V38c0 3.3 1.3 6.5 3.7 8.8h-.1c-1.5 0-2.6-1.2-2.6-2.6 0-.4-.4-.8-.8-.8s-.8.4-.8.8c0 1.5-1.2 2.6-2.6 2.6-1.5 0-2.6-1.2-2.6-2.6 0-.4-.4-.8-.8-.8s-.8.4-.8.8c0 2.3 1.9 4.2 4.2 4.2 1.4 0 2.7-.7 3.4-1.8.8 1.1 2 1.8 3.4 1.8s2.7-.7 3.4-1.8c.8 1.1 2 1.8 3.4 1.8s2.7-.7 3.5-1.8c.8 1.1 2 1.8 3.5 1.8 1.4 0 2.7-.7 3.4-1.8.8 1.1 2 1.8 3.4 1.8s2.7-.7 3.4-1.8c.8 1.1 2 1.8 3.4 1.8s2.7-.7 3.4-1.8c.8 1.1 2 1.8 3.4 1.8s2.7-.7 3.5-1.8c.8 1.1 2 1.8 3.5 1.8 1.4 0 2.7-.7 3.4-1.8.8 1.1 2 1.8 3.4 1.8s2.7-.7 3.4-1.8c.8 1.1 2 1.8 3.4 1.8s2.7-.7 3.4-1.8c.8 1.1 2 1.8 3.4 1.8 2.3 0 4.2-1.9 4.2-4.2.4-.4 0-.7-.4-.7zM60 25.7h-3.3v-4.1H60v4.1zm-16.8-6.4H60v.7h-4.1c-.4 0-.8.4-.8.8v4.9h-1v-4.9c0-.4-.4-.8-.8-.8h-7.7c-.4 0-.8.4-.8.8v4.9h-5.3c2-1.5 3.4-3.8 3.7-6.4zm9.3 6.4h-6.1v-4.1h6.1v4.1zm-18.1 0h-6.1V14.1h6.2v11.6h-.1zm.2-17.5v4.3h-6.2V8.2h6.2zM20.5 27.3H60v6.9H20.5v-6.9zm43.1 17c0-.4-.4-.8-.8-.8s-.8.4-.8.8c0 1.5-1.2 2.6-2.6 2.6-1.5 0-2.6-1.2-2.6-2.6 0-.4-.4-.8-.8-.8s-.8.4-.8.8c0 1.5-1.2 2.6-2.6 2.6S50 45.7 50 44.3c0-.4-.4-.8-.8-.8s-.8.4-.8.8c0 1.5-1.2 2.6-2.6 2.6-1.5 0-2.6-1.2-2.6-2.6 0-.4-.4-.8-.8-.8s-.8.4-.8.8c0 1.5-1.2 2.6-2.6 2.6-1.5 0-2.6-1.2-2.6-2.6 0-.4-.4-.8-.8-.8s-.8.4-.8.8c0 1.5-1.2 2.6-2.6 2.6-1.5 0-2.6-1.2-2.6-2.6 0-.4-.4-.8-.8-.8s-.8.4-.8.8c0 1.5-1.2 2.6-2.6 2.6-1.5 0-2.6-1.2-2.6-2.6 0-.4-.4-.8-.8-.8s-.8.4-.8.8c0 1.5-1.2 2.6-2.6 2.6-1.5 0-2.6-1.2-2.6-2.6 0-.4-.4-.8-.8-.8s-.8.4-.8.8c0 .7-.3 1.4-.8 1.9-.1-.1-.2-.1-.3-.1-2.2-2-3.5-4.9-3.5-7.9v-2.3h60.6v2.3c0 3.3-1.6 6.5-4.2 8.6-.1 0-.1.1-.2.1-1.6-.5-2.4-1.5-2.4-2.6z"/></g><g opacity=".15" fill="#3A6392"><path d="M535.9 28.9h-21.6v-5.1H526c.3 0 .6-.1.8-.3l5.9-6.1c.4-.4.4-1.1 0-1.5l-5.9-6.1c-.2-.2-.5-.3-.8-.3h-11.7V1.1c0-.6-.5-1.1-1.1-1.1h-13.3c-.6 0-1.1.5-1.1 1.1v8.2H485c-.6 0-1.1.5-1.1 1.1v12.2c0 .6.5 1.1 1.1 1.1h13.8v5.1H479c-.3 0-.6.1-.8.3l-5.9 6.1c-.4.4-.4 1.1 0 1.5l5.9 6.1c.2.2.5.3.8.3h19.8v24.5c0 .6.5 1.1 1.1 1.1h13.3c.6 0 1.1-.5 1.1-1.1V43.4h21.6c.6 0 1.1-.5 1.1-1.1V30c.1-.6-.4-1.1-1.1-1.1zM501 2.2h11.1v7.1H501V2.2zm-14.9 9.4h39.5l4.8 5-4.8 5h-39.5v-10zM501 23.8h11.1v5.1H501v-5.1zm11.1 43H501V43.4h11.1v23.4zm22.7-25.6h-55.4l-4.8-5 4.8-5h55.4v10z"/><path d="M493 14.4h-2.7c-.3 0-.5.2-.5.5 0 .2.2.5.5.5h.9v2.8c0 .3.2.5.5.5.2 0 .5-.2.5-.5v-2.8h.8c.2 0 .3-.1.4-.2.1-.1.1-.2.1-.3 0-.2-.2-.5-.5-.5zM497.7 14.4c-.3 0-.5.2-.5.5V16h-1.7v-1.1c0-.3-.2-.5-.5-.5s-.5.2-.5.5v3.3c0 .3.2.5.5.5s.5-.2.5-.5V17h1.7v1.1c0 .3.2.5.5.5s.5-.2.5-.5v-3.3c-.1-.2-.3-.4-.5-.4zM499.5 14.9v3.3c0 .3.2.5.5.5.2 0 .5-.2.5-.5v-3.3c-.1-.6-1-.6-1 0zM503.5 16c-.5-.2-.9-.3-.8-.6.1-.3.3-.3.6-.3s.6.1.8.2c.2.2.6.1.7-.2.1-.2 0-.4-.2-.5-.3-.2-.7-.4-1.2-.4-.7 0-1.5.4-1.6 1.1-.1 1.1.7 1.3 1.4 1.5.4.1.8.2.9.5 0 .3-.2.5-.6.5-.4 0-.8-.1-1-.3-.2-.2-.4-.2-.7.1-.1.2-.1.5.1.7.3.3.9.4 1.4.4.8 0 1.7-.4 1.7-1.4 0-.8-.9-1.1-1.5-1.3zM513.8 14.4c-.2 0-.4.1-.5.3l-.8 2.1-.9-2.1c-.1-.2-.2-.3-.4-.3s-.4.1-.4.3l-.9 2.1-.8-2.1c-.1-.2-.2-.3-.5-.3-.2 0-.3.1-.4.2-.1.1-.1.3-.1.5l1.1 3.1c.1.2.2.5.5.5s.4-.2.5-.4l.9-2 .9 2c.1.2.2.4.5.4s.4-.2.5-.5l1.1-3.1c.1-.2 0-.3-.1-.5s-.1-.2-.2-.2zM517.3 14.7c-.1-.2-.3-.3-.4-.3-.2 0-.4.1-.5.3l-1.7 3.2c-.1.3 0 .6.2.7h.2c.2 0 .4-.1.5-.3l.2-.4h2l.2.4c.1.2.2.3.4.3s.4-.1.5-.3c.1-.1.1-.3 0-.5l-1.6-3.1zm0 2.3h-1l.5-1.1.5 1.1zM522.4 14.4c-.2 0-.3.1-.4.2l-.9 1.4-.9-1.4c-.1-.2-.2-.2-.4-.2s-.4.1-.5.3c-.1.2-.1.3 0 .5l1.2 1.9v1.2c0 .3.2.5.5.5.2 0 .5-.2.5-.5V17l1.3-1.8c.1-.1.1-.3.1-.5-.1-.2-.3-.3-.5-.3zM484 38.3c.3 0 .5-.2.5-.5v-1.9l1.7 2.2c.2.2.3.2.5.2.3-.1.4-.3.4-.5v-3.2c0-.3-.3-.5-.5-.5-.3 0-.5.3-.5.5v1.9l-1.7-2.1c-.1-.1-.2-.2-.5-.2s-.5.2-.5.5v3.2c.1.2.3.4.6.4zM490.4 38.3c.1 0 .1 0 0 0 1.2 0 2.3-.8 2.3-2.2 0-1.4-1.1-2.2-2.2-2.2s-2.3.8-2.3 2.2c.1 1.5 1.2 2.2 2.2 2.2zm.1-3.4c.6 0 1.3.4 1.3 1.3 0 .8-.6 1.3-1.3 1.3-.6 0-1.2-.4-1.2-1.3-.1-.9.6-1.3 1.2-1.3zM494.1 38.9c.2 0 .4-.1.5-.3.1-.2.2-.5.2-.8 0-.3-.2-.5-.5-.5s-.5.2-.5.5v.4c-.1.2 0 .4 0 .4 0 .2.1.3.3.3zM498.3 35h.9v2.8c0 .3.2.5.5.5.2 0 .5-.2.5-.5V35h.8c.2 0 .3-.1.4-.2.1-.1.1-.2.1-.3 0-.2-.2-.5-.5-.5h-2.7c-.3 0-.5.2-.5.5.1.3.2.5.5.5zM503.1 38.3c.3 0 .5-.2.5-.5v-1.1h1.7v1.1c0 .3.2.5.5.5s.5-.2.5-.5v-3.3c0-.3-.2-.5-.5-.5s-.5.2-.5.5v1.1h-1.7v-1.1c0-.3-.2-.5-.5-.5s-.5.2-.5.5v3.3c0 .3.2.5.5.5zM508 38.3c.2 0 .5-.2.5-.5v-3.3c0-.6-1-.6-1 0v3.3c0 .3.2.5.5.5zM511.4 37.4c-.4 0-.8-.1-1-.3-.2-.2-.4-.2-.7.1-.1.2-.1.5.1.7.3.3.9.4 1.4.4.8 0 1.7-.4 1.7-1.4 0-.9-.8-1.2-1.5-1.4-.5-.2-.9-.3-.8-.6.1-.3.3-.3.6-.3s.6.1.8.2c.2.2.6.1.7-.2.1-.2 0-.4-.2-.5-.3-.2-.7-.4-1.2-.4-.7 0-1.5.4-1.6 1.1-.1 1.1.7 1.3 1.4 1.5.4.1.8.2.9.5 0 .5-.2.6-.6.6zM517.4 37.8c.1.2.2.5.5.5s.4-.2.5-.4l.9-2 .9 2c.1.2.2.4.5.4s.4-.2.5-.5l1.1-3.1c.1-.2 0-.3-.1-.5-.1-.1-.2-.2-.4-.2s-.4.1-.5.3l-.8 2.1-.9-2.1c-.1-.2-.2-.3-.4-.3s-.4.1-.4.3l-.9 2.1-.8-2.1c-.1-.2-.2-.3-.5-.3-.2 0-.3.1-.4.2-.1.1-.1.3-.1.5l1.3 3.1zM523 38.2h.2c.2 0 .4-.1.5-.3l.2-.4h2l.2.4c.1.2.2.3.4.3s.4-.1.5-.3c.1-.1.1-.3 0-.5l-1.6-3.2c-.1-.2-.3-.3-.4-.3-.2 0-.4.1-.5.3l-1.7 3.2c-.1.5 0 .7.2.8zm1.4-1.6l.5-1.1.5 1.1h-1zM528.8 36.6v1.2c0 .3.3.5.5.5.1 0 .3-.1.4-.2.1-.1.1-.2.1-.3v-1.2l1.3-1.9c.1-.1.1-.3.1-.5-.1-.2-.3-.3-.5-.3s-.3.1-.4.2l-1 1.4-1-1.4c-.1-.1-.2-.2-.4-.2s-.4.1-.5.3c-.1.2 0 .3.1.5l1.3 1.9z"/></g><g opacity=".15" fill="#CE462A"><path d="M692.4 450.8l-28.7-28.7c-.4-.4-1.1-.4-1.5 0l-28.7 28.7c-.4.4-.4 1.1 0 1.5l28.7 28.7c.2.2.5.3.7.3.3 0 .5-.1.7-.3l28.7-28.7c.5-.4.5-1 .1-1.5zm-29.4 28l-27.2-27.2 27.2-27.2 27.2 27.2-27.2 27.2z"/><path d="M660.9 434.8l-6 6c-.2.2-.2.4-.1.7.1.2.3.4.6.4h3v25.5c0 .3.3.6.6.6h4.8c.3 0 .6-.3.6-.6v-4.7c.3-5.6 4.9-10.2 10.5-10.5v3.7c0 .3.2.5.4.6h.2c.2 0 .3-.1.4-.2l6-6c.1-.1.2-.3.2-.4 0-.2-.1-.3-.2-.4l-6-6c-.2-.2-.4-.2-.7-.1-.2.1-.4.3-.4.6v2.9c-4 .2-7.7 1.8-10.5 4.3v-9.3h3c.3 0 .6-.3.6-.6 0-.2-.1-.4-.2-.5l-6-6c-.2-.2-.6-.2-.8 0z"/></g><g opacity=".15" fill="#CE462A"><path d="M64.5 442.2c-.3-.2-.7-.3-1.1-.1l-12.6 4.5-7.3-2.6c1.6-3.5 3-7.1 3-9.1 0-4.8-3.9-8.7-8.7-8.7-4.8 0-8.7 3.9-8.7 8.7 0 2 1.4 5.5 3 9l-7.7 2.7-12.7-4.6c-.4-.1-.8-.1-1.1.1-.3.2-.5.6-.5 1V471c0 .5.3 1 .8 1.1l13 4.6c.1 0 .3.1.4.1h.4c.1 0 .3 0 .4-.1l12.7-4.5 12.7 4.5h.8l13-4.6c.5-.2.8-.6.8-1.1v-27.9c-.1-.3-.3-.6-.6-.9zm-26.7-13.6c3.5 0 6.3 2.8 6.3 6.3 0 2.7-3.9 10.5-6.3 15-2.4-4.5-6.3-12.3-6.3-15 0-3.5 2.9-6.3 6.3-6.3zm-14.7 45.5l-10.6-3.8v-25.4l10.6 3.8v25.4zm2.7 0v-25.4l7.3-2.6c1.3 2.7 2.6 5 3.2 6.2v18l-10.5 3.8zM39 452.7c.5-1 2-3.5 3.4-6.5l7.2 2.6v25.4L39 470.3v-17.6zm23.6 17.6L52 474.1v-25.4l10.6-3.8v25.4z"/><circle cx="37.8" cy="435.1" r="2.8"/></g><g opacity=".15" fill="#72BAA6"><path d="M217.1 422.6h-.4c-.5 0-1 .3-1.2.7-1.8 3.3-5.3 5.3-9 5.3-4.1 0-8.5-2.3-10.1-5.3-.2-.4-.7-.7-1.2-.7h-.4c-.5 0-1 .3-1.2.7-1.7 3-6.1 5.3-10.1 5.3-3.8 0-7.2-2-9-5.3-.2-.4-.7-.7-1.2-.7h-.7c-.8 0-1.4.6-1.4 1.4v30.7c0 7.8 4.1 14.7 11.8 20.1 5.7 4 11.3 5.7 11.6 5.8.1 0 .3.1.4.1.1 0 .3 0 .4-.1.2-.1 5.9-1.8 11.6-5.8 7.7-5.4 11.8-12.3 11.8-20.1V424c-.3-.8-.9-1.4-1.7-1.4zm-33.7 8.8c4.4 0 9-2.1 11.5-5.3 2.5 3.1 7.1 5.3 11.5 5.3 3.5 0 6.8-1.4 9.3-3.8v14.6h-41.9v-15c2.4 2.6 5.9 4.2 9.6 4.2zm11.4 46.4c-2.9-1-21-7.8-21-23.1v-9.8h41.9v9.8c0 15.3-18 22.1-20.9 23.1z"/><path d="M181 438.5v-1.2h.9l1 1.5c.1.2.3.3.5.3s.4-.1.5-.3c.1-.2.1-.4-.1-.7l-.8-1c.7-.4 1-1.2.8-1.8-.1-.6-.6-1.4-1.7-1.4h-1.9c-.3 0-.6.2-.6.6v4.1c.1.7 1.4.7 1.4-.1zm0-2.2V435h1.2c.2 0 .3.1.4.2.1.1.1.3.1.4 0 .3-.2.6-.6.6H181zM188.2 439.2h.1c1.3 0 2.7-.9 2.7-2.7 0-1.8-1.4-2.7-2.7-2.8-1.4 0-2.8.9-2.8 2.8 0 1.8 1.4 2.7 2.7 2.7zm.1-4.3c.8 0 1.6.5 1.6 1.6 0 1-.8 1.6-1.6 1.6s-1.5-.5-1.5-1.6c-.1-1 .7-1.6 1.5-1.6zM195.1 439.2c1.1 0 2.3-.7 2.3-2.1v-2.6c0-.4-.3-.6-.6-.6s-.6.2-.6.6v2.6c0 .3-.1.5-.3.7-.2.2-.5.2-.7.2-.6 0-1.1-.3-1.1-.9v-2.6c0-.4-.3-.6-.6-.6s-.6.2-.6.6v2.6c-.1 1.5 1.1 2.1 2.2 2.1zM199.4 435.1h1.1v3.5c0 .4.3.6.6.6s.6-.2.6-.6v-3.5h1c.2 0 .4-.1.5-.2.1-.1.2-.3.2-.4 0-.3-.2-.6-.6-.6h-3.4c-.4 0-.6.3-.6.6s.3.6.6.6zM205.6 439.1h2.7c.2 0 .4-.1.5-.2.1-.1.2-.3.2-.4 0-.3-.2-.6-.6-.6h-2v-.8h1.7c.4 0 .6-.3.6-.6s-.2-.6-.6-.6h-1.7v-.8h1.9c.2 0 .4-.1.5-.2.1-.1.2-.3.2-.4 0-.3-.2-.6-.6-.6h-2.6c-.3 0-.6.2-.6.6v4.1c-.2.3 0 .5.4.5zM188.3 454.7c-1.7 0-2.7.5-3.6 1.1.2-2.3 1.3-4 3.5-4 1.5 0 2.4.5 3.5 1.4l2-2.9c-1.5-1.2-3.1-1.9-5.4-1.9-5.2 0-7.6 4.1-7.6 9.4v.1c0 3.4.8 5.3 2.1 6.5 1.2 1.2 2.7 1.9 5 1.9 3.8 0 6.6-2.4 6.6-6v-.1c0-3.6-2.7-5.5-6.1-5.5zm2.3 5.8c0 1.5-1.1 2.5-3 2.5s-3-1.1-3-2.6v-.1c0-1.5 1.1-2.5 3-2.5 1.9.1 3 1.2 3 2.7zM203.7 454.7c-1.7 0-2.7.5-3.6 1.1.2-2.3 1.3-4 3.5-4 1.5 0 2.4.5 3.5 1.4l2-2.9c-1.5-1.2-3.1-1.9-5.4-1.9-5.2 0-7.6 4.1-7.6 9.4v.1c0 3.4.8 5.3 2 6.5 1.2 1.2 2.7 1.9 5 1.9 3.8 0 6.6-2.4 6.6-6v-.1c0-3.6-2.6-5.5-6-5.5zm2.3 5.8c0 1.5-1.1 2.5-3 2.5s-3-1.1-3-2.6v-.1c0-1.5 1.1-2.5 3-2.5 1.8.1 3 1.2 3 2.7z"/></g><path opacity=".15" fill="#3A6392" d="M542.6 442.9c-.2-.1-.3-.2-.5-.2h-16.9c-1.4-.4-3-.4-5-.4H517.6c-1.8 0-3.4 0-4.7.1.2-.2.3-.4.3-.7 0-.5-.4-1-1-1h-16.7c-.5 0-1 .4-1 1 0 .2.1.5.2.6-1.2-.1-2.7-.1-4.3-.1H487.8c-5.9 0-9.2.4-9.2 8.3 0 4.2 2.3 8 5.7 10h.1c1.8 1 3.8 1.6 6 1.6 6.4 0 11.2-6.2 11.7-12.1h4c.5 5.9 5.3 12.1 11.7 12.1 6.5 0 11.7-5.3 11.7-11.7 0-2.2-.3-3.9-.8-5.1 0-.1-.1-.2-.2-.3-.1-.2-.2-.4-.3-.5h13.5c.1.1.3.1.5.1 2 0 3.6 1.6 3.6 3.6s-1.6 3.6-3.6 3.6c-.5 0-1 .4-1 1 0 .5.4 1 1 1 3.1 0 5.6-2.5 5.6-5.6-.1-2.6-2.3-5-5.2-5.3zm-32.4-.1c-2.7.6-4 2-4.2 5.5h-4c-.1-2.1-.7-4.1-2.9-5.1-.4-.2-.8-.3-1.3-.4h12.4zm-22.4 1.5H491.8l-10.3 10.3c-.5-1.2-.8-2.5-.8-4-.1-6 1.4-6.3 7.1-6.3zm-5.4 12.1l12-12c1.7.1 3 .2 3.9.6l-13.6 13.6c-.9-.6-1.6-1.4-2.3-2.2zm7.9 4c-1.4 0-2.7-.3-3.8-.8l13.2-13.2c.2.6.4 1.5.4 2.8 0 5.2-4.3 11.2-9.8 11.2zm27.3-16.1H520.3L509.5 455c-1-1.8-1.6-3.9-1.6-5.8 0-4.9 1.5-4.9 9.7-4.9zm-7 12.4c.1 0 .1-.1.2-.2l12.1-12.1c1.6.1 2.7.4 3.4 1.3L513 458.9c-.9-.6-1.7-1.4-2.4-2.2zm7 3.7c-1 0-1.9-.2-2.8-.5l12.4-12.2c.1.8.2 1.8.2 3 0 5.3-4.4 9.7-9.8 9.7z"/><g opacity=".15" fill="#E9B530"><path d="M381.4 462.8c0-.5-.3-1-.8-1.2l-4.3-6.7c-.7-1-1-1.6-1.2-2-.2-.3-.3-.6-.6-.8.2-.5.4-1.1.4-1.6v-17c0-2.1-1.7-3.8-3.8-3.8h-30.6v-2.9c0-1.9-1.5-3.4-3.4-3.4h-4c-1.9 0-3.4 1.5-3.4 3.4v2.9h-.7c-2.1 0-3.8 1.7-3.8 3.8v17c0 .6.2 1.2.4 1.8-.3.3-.6.6-.9 1.2-.2.4-.5.8-.9 1.5l-4.9 7.2c-.1.1-.1.2-.1.3v.7c0 .1.1.2.1.3l4.9 9.9.3.6c.8 1.6 1.3 2.6 3.4 2.6h2.9l-1.7 8c-.1.4 0 .8.3 1 .2.3.6.5 1 .5h41.7c.4 0 .8-.2 1-.5.2-.3.3-.7.2-1.1l-2.1-8h2.2c2.2 0 2.8-1.3 3.7-3.2l4.9-9.5c.1-.2.2-.5.1-.8-.3-.1-.3-.1-.3-.2zm-3.8-1.3h-23.1v-7.3H372.9c.2.4.6 1.1 1.2 2l3.5 5.3zm-29.7-7.2h4v6.2h-4v-6.2zm2.1-6.9c-3 0-5.5-2.5-5.5-5.5s2.5-5.5 5.5-5.5 5.5 2.5 5.5 5.5c-.1 3-2.5 5.5-5.5 5.5zm0 2.5c.7 0 1.4-.1 2-.3v2.1h-4v-2.1c.6.2 1.3.3 2 .3zm-17.9-23.3c0-.5.4-.9.9-.9h4c.5 0 .9.4.9.9v2.9h-5.8v-2.9zm-4.5 6.8c0-.7.6-1.3 1.3-1.3H371c.7 0 1.3.6 1.3 1.3v17c0 .7-.6 1.3-1.3 1.3h-16.5v-3.3c2.1-1.4 3.4-3.8 3.4-6.6 0-4.4-3.6-8-8-8s-8 3.6-8 8c0 2.7 1.4 5.1 3.5 6.6V451.7h-16.5c-.7 0-1.3-.6-1.3-1.3v-17zm-1.9 22.9c.5-.7.8-1.3 1-1.7.1-.1.2-.3.2-.4h18.4v7.3H322l3.7-5.2zm5.6 27.2l2.8-13.5v-.3h3.3l-1.7 9.2c-.1.4 0 .7.3 1 .2.3.6.5 1 .5h26.8c.4 0 .7-.2 1-.4.2-.3.3-.7.3-1l-1.7-9.3h2.9v.3l3.5 13.5h-38.5zm29.5-13.7v.2l1.4 8h-23.8l1.5-8v-.2h20.9zm13.3 2.3l-.1.1c-.8 1.8-.8 1.8-1.4 1.8h-2.8l-.9-3.4h.8c.9 0 1.6-.7 1.6-1.6s-.7-1.6-1.6-1.6h-39.3c-.9 0-1.6.7-1.6 1.6s.7 1.6 1.6 1.6h1l-.7 3.4h-3.9c-.1-.1-.4-.7-.7-1.2l-.3-.6-4-8h56.5l-4.2 7.9z"/><path d="M366.1 449.2c2.1 0 3.8-1.7 3.8-3.8 0-2.1-1.7-3.8-3.8-3.8-2.1 0-3.8 1.7-3.8 3.8 0 2.1 1.7 3.8 3.8 3.8zm0-5.1c.7 0 1.3.6 1.3 1.3 0 .7-.6 1.3-1.3 1.3-.7 0-1.3-.6-1.3-1.3 0-.8.6-1.3 1.3-1.3zM333.8 449.2c2.1 0 3.8-1.7 3.8-3.8 0-2.1-1.7-3.8-3.8-3.8-2.1 0-3.8 1.7-3.8 3.8 0 2.1 1.7 3.8 3.8 3.8zm0-5.1c.7 0 1.3.6 1.3 1.3 0 .7-.6 1.3-1.3 1.3-.7 0-1.3-.6-1.3-1.3 0-.8.6-1.3 1.3-1.3zM352.1 441.9c-1.8 0-2.2-2.2-1.1-3.1-.3-.1-.7-.2-1.1-.2-1.8 0-3.3 1.5-3.3 3.3 0 1.8 1.5 3.3 3.3 3.3 1.8 0 3.3-1.5 3.3-3.3v-.4c-.2.3-.6.4-1.1.4zM363.7 440.2h4.5c.7 0 1.3-.6 1.3-1.3V436c0-.7-.6-1.3-1.3-1.3h-4.5c-.7 0-1.3.6-1.3 1.3v2.9c.1.7.6 1.3 1.3 1.3zm1.3-2.9h2v.4h-2v-.4zM361.7 425.7c.2.2.6.4.9.4.3 0 .6-.1.9-.4.5-.5.5-1.3 0-1.8l-3-3c-.5-.5-1.3-.5-1.8 0s-.5 1.3 0 1.8l3 3zM366.6 424.5c.7 0 1.3-.6 1.3-1.3v-4.8c0-.7-.6-1.3-1.3-1.3-.7 0-1.3.6-1.3 1.3v4.8c.1.7.6 1.3 1.3 1.3zM370.4 426.6c.3 0 .6-.1.9-.4l4.1-4.1c.5-.5.5-1.3 0-1.8s-1.3-.5-1.8 0l-4.1 4.1c-.5.5-.5 1.3 0 1.8.3.3.6.4.9.4z"/></g></svg>