<?xml version="1.0" encoding="utf-8"?>
<!-- Generator: Adobe Illustrator 18.0.0, SVG Export Plug-In . SVG Version: 6.00 Build 0)  -->
<!DOCTYPE svg PUBLIC "-//W3C//DTD SVG 1.1//EN" "http://www.w3.org/Graphics/SVG/1.1/DTD/svg11.dtd">
<svg version="1.1" id="Capa_1" xmlns="http://www.w3.org/2000/svg" xmlns:xlink="http://www.w3.org/1999/xlink" x="0px" y="0px"
	 viewBox="0 0 786.9 486" enable-background="new 0 0 786.9 486" xml:space="preserve">
<g opacity="0.15">
	<path fill="#3A6392" d="M663,319.6c-15.3,0-27.7,12.4-27.7,27.7c0,15.3,12.4,27.7,27.7,27.7c15.3,0,27.7-12.4,27.7-27.7
		C690.7,332,678.3,319.6,663,319.6z M663,372.4c-13.9,0-25.1-11.3-25.1-25.1c0-13.9,11.3-25.1,25.1-25.1s25.1,11.3,25.1,25.1
		C688.1,361.2,676.8,372.4,663,372.4z"/>
	<path fill="#3A6392" d="M663,324.9c-12.4,0-22.4,10.1-22.4,22.4c0,12.4,10.1,22.4,22.4,22.4c12.4,0,22.4-10.1,22.4-22.4
		C685.4,334.9,675.4,324.9,663,324.9z M663,367.1c-10.9,0-19.8-8.9-19.8-19.8c0-10.9,8.9-19.8,19.8-19.8c10.9,0,19.8,8.9,19.8,19.8
		C682.8,358.2,673.9,367.1,663,367.1z"/>
	<path fill="#3A6392" d="M661,335.7h1c0.1,0,0.1-0.1,0.1-0.1V333l2,2.6c0,0,0.1,0.1,0.1,0.1h0.9c0.1,0,0.1-0.1,0.1-0.1V331
		c0-0.1-0.1-0.1-0.1-0.1h-1c-0.1,0-0.1,0.1-0.1,0.1v2.4l-1.9-2.5c0,0-0.1-0.1-0.1-0.1H661c-0.1,0-0.1,0.1-0.1,0.1v4.6
		C660.9,335.7,661,335.7,661,335.7z"/>
	<path fill="#3A6392" d="M652.8,344.9c0,0-0.1-0.1-0.1-0.1h-1.1c-0.1,0-0.1,0-0.1,0.1l-0.8,2.7l-0.9-2.7c0-0.1-0.1-0.1-0.1-0.1h-0.9
		c-0.1,0-0.1,0-0.1,0.1l-0.9,2.7L647,345c0-0.1-0.1-0.1-0.1-0.1h-1.1c0,0-0.1,0-0.1,0.1c0,0,0,0.1,0,0.1l1.6,4.6
		c0,0.1,0.1,0.1,0.1,0.1h0.9c0.1,0,0.1,0,0.1-0.1l0.9-2.7l0.9,2.7c0,0.1,0.1,0.1,0.1,0.1h0.9c0.1,0,0.1,0,0.1-0.1l1.6-4.6
		C652.9,345,652.9,345,652.8,344.9z"/>
	<path fill="#3A6392" d="M679.9,348.6h-2.4v-0.7h2c0.1,0,0.1-0.1,0.1-0.1v-0.9c0-0.1-0.1-0.1-0.1-0.1h-2V346h2.3
		c0.1,0,0.1-0.1,0.1-0.1V345c0-0.1-0.1-0.1-0.1-0.1h-3.5c-0.1,0-0.1,0.1-0.1,0.1v4.6c0,0.1,0.1,0.1,0.1,0.1h3.5
		c0.1,0,0.1-0.1,0.1-0.1v-0.9C680,348.6,679.9,348.6,679.9,348.6z"/>
	<path fill="#3A6392" d="M662.9,361.5c-0.8-0.2-0.9-0.3-0.9-0.5c0-0.2,0.2-0.3,0.5-0.3c0.3,0,0.7,0.1,1.1,0.4c0,0,0.1,0,0.1,0
		c0,0,0.1,0,0.1-0.1l0.5-0.8c0-0.1,0-0.1,0-0.2c-0.5-0.4-1.1-0.6-1.8-0.6c-1,0-1.7,0.6-1.7,1.5c0,1,0.7,1.3,1.6,1.5
		c0.8,0.2,0.8,0.3,0.8,0.5c0,0.3-0.4,0.3-0.5,0.3c-0.4,0-0.9-0.2-1.3-0.5c-0.1,0-0.1,0-0.2,0l-0.6,0.7c0,0.1,0,0.1,0,0.2
		c0.6,0.5,1.3,0.8,2,0.8c1.1,0,1.8-0.6,1.8-1.6C664.5,362.1,663.8,361.7,662.9,361.5z"/>
	<path fill="#3A6392" d="M673.4,334l-13.9,9c-0.2,0.1-0.3,0.2-0.4,0.4c-0.1,0.1-0.3,0.3-0.4,0.5l-7,15.1c-0.2,0.5-0.1,1.1,0.3,1.5
		c0.2,0.2,0.5,0.3,0.9,0.3c0.2,0,0.5-0.1,0.7-0.2l13.9-9c0.2-0.1,0.3-0.3,0.4-0.4c0.1-0.1,0.3-0.3,0.4-0.4l7-15.1
		c0.2-0.5,0.1-1.1-0.3-1.5C674.5,333.7,673.9,333.6,673.4,334z M666,349.5l-10,6.5l5-10.9l10-6.5L666,349.5z"/>
	<circle fill="#3A6392" cx="663.5" cy="347.3" r="1.7"/>
	<path fill="#3A6392" d="M652.6,339c0.2,0.2,0.5,0.3,0.7,0.3c0.3,0,0.5-0.1,0.7-0.3c0.4-0.4,0.4-1.1,0-1.5l-1.6-1.6
		c-0.4-0.4-1.1-0.4-1.5,0c-0.4,0.4-0.4,1.1,0,1.5L652.6,339z"/>
	<path fill="#3A6392" d="M672.2,355.7c-0.4-0.4-1.1-0.4-1.5,0c-0.4,0.4-0.4,1.1,0,1.5l1.6,1.6c0.2,0.2,0.5,0.3,0.7,0.3
		c0.3,0,0.5-0.1,0.7-0.3c0.4-0.4,0.4-1.1,0-1.5L672.2,355.7z"/>
</g>
<path opacity="0.15" fill="#E9B530" d="M532.9,351c-0.2-2.2-1.9-4.5-4.5-6.3c-2.7-1.8-3.6-4.7-3.9-7.1c0-0.3-0.1-0.6-0.1-1v-0.8h0.6
	c0.4,0,0.8-0.4,0.8-0.8c0-0.4-0.4-0.8-0.8-0.8h-0.6v-1c0-0.4-0.4-0.8-0.8-0.8c-0.4,0-0.8,0.4-0.8,0.8v1h-0.7c-0.4,0-0.8,0.4-0.8,0.8
	c0,0.4,0.4,0.8,0.8,0.8h0.7v0.8v0c0,0,0,0,0,0c0,0,0,0,0,0v0c0,0,0,0,0,0v0v0l0,0v0l0,0v0v0v0l0,0c0,0,0,0,0,0v0c0,0,0,0,0,0
	c0,3.7-2,6.2-5.1,8.8l-5.9-13.7c1.6-0.4,2.8-1.8,2.8-3.6c0-1.7-1.2-3.2-2.8-3.6v-4.1h1.1c0.4,0,0.8-0.4,0.8-0.8
	c0-0.4-0.4-0.8-0.8-0.8h-1.1v-1.5c0-0.4-0.4-0.8-0.8-0.8c-0.4,0-0.8,0.4-0.8,0.8v1.5h-1.2c-0.4,0-0.8,0.4-0.8,0.8
	c0,0.4,0.4,0.8,0.8,0.8h1.2v4.1c-1.7,0.3-2.9,1.8-2.9,3.6c0,1.6,1,2.9,2.4,3.4l-6.6,14.5c-0.1,0.2-0.1,0.4,0,0.6
	c0,0.1-0.1,0.2-0.1,0.3v1.4c-2.3-1.8-4.5-4.5-5.1-10.9v-1.3h1.1c0.4,0,0.8-0.4,0.8-0.8c0-0.4-0.4-0.8-0.8-0.8h-1.1v-1.5
	c0-0.4-0.4-0.8-0.8-0.8c-0.4,0-0.8,0.4-0.8,0.8v1.5h-1.2c-0.4,0-0.8,0.4-0.8,0.8c0,0.4,0.4,0.8,0.8,0.8h1.2v1.4
	c0,6.1-3.5,9.1-6.6,11.7c-2.4,2-4.7,4-4.7,7c0,2.3,0.7,4.2,2,5.5c0,0,0.1,0.1,0.1,0.1v15.3c0,0.4,0.4,0.8,0.8,0.8H499h7.3h11.1h13
	c0.4,0,0.8-0.4,0.8-0.8v-21.9c0.1,0,0.2-0.1,0.2-0.2C532.6,353.9,533.1,352.5,532.9,351z M529.6,361.4h-0.5v-2.6
	c0-1.2-1-2.2-2.2-2.2h-0.3c-1.2,0-2.2,1-2.2,2.2v2.6h-1v-2.6c0-1.2-1-2.2-2.2-2.2h-0.3c-1.2,0-2.2,1-2.2,2.2v2.6h-0.6v-6h11.4V361.4
	z M526.1,361.1v-2.2c0-0.3,0.3-0.6,0.6-0.6h0.3c0.3,0,0.6,0.3,0.6,0.6v2.2H526.1z M520.5,361.1v-2.2c0-0.3,0.3-0.6,0.6-0.6h0.3
	c0.3,0,0.6,0.3,0.6,0.6v2.2H520.5z M510.4,376.4v-13.3c0-0.7,0.5-1.2,1.2-1.2h0.4c0.7,0,1.2,0.5,1.2,1.2v13.3H510.4z M512,360.3
	h-0.4c-1.5,0-2.8,1.3-2.8,2.8v13.3h-1.6v-14.5c0,0,0.1-0.1,0.1-0.1c1.6-1.6,2.3-3.5,2-5.6c-0.4-3.6-2.4-5.1-4.6-6.6v-1.7h12v6.7
	v21.9h-1.8v-13.3C514.8,361.6,513.6,360.3,512,360.3z M493.9,360.8l10.8-9.2c1.1,0.8,2,1.6,2.5,2.8l-7.3,6.3H493.9z M507.6,356.1
	c0,0.1,0,0.2,0,0.3c0.2,1.6-0.3,3.1-1.6,4.3c0,0,0,0,0,0.1h-3.8L507.6,356.1z M511.5,334.9l4.9,11.3h-4.9V334.9z M509.9,346.3h-5.1
	l5.1-11.2V346.3z M508.9,328.2c0-1.1,0.9-2.1,2.1-2.1c1.1,0,2.1,0.9,2.1,2.1c0,1.1-0.9,2.1-2.1,2.1
	C509.9,330.3,508.9,329.4,508.9,328.2z M490.7,350.5c2.4-2,5.1-4.3,6.4-8.2c0.5,1.6,1.1,2.9,1.8,4c-0.1,0-0.3,0.1-0.4,0.2l-12,10.5
	c0-0.2,0-0.5,0-0.7C486.6,354,488.4,352.4,490.7,350.5z M487,358.8C487,358.8,487,358.8,487,358.8l12.7-11.1
	c0.1-0.1,0.1-0.1,0.2-0.2c1,1.3,2.2,2.2,3.3,3v0.1c0,0.1,0,0.1,0,0.2l-11.4,9.8c-0.1,0.1-0.1,0.2-0.2,0.2h-3.3c0,0,0,0,0-0.1
	C487.6,360.2,487.2,359.6,487,358.8z M491.7,376.4v-7.5c0-0.7,0.5-1.2,1.2-1.2h0.4c0.7,0,1.2,0.5,1.2,1.2v7.5H491.7z M501.8,376.4
	H499v-7.5c0-0.7,0.5-1.2,1.2-1.2h0.4c0.7,0,1.2,0.5,1.2,1.2V376.4z M503.4,376.5v-7.6c0-1.5-1.3-2.8-2.8-2.8h-0.4
	c-1.5,0-2.8,1.3-2.8,2.8v7.6h-1.2v-7.6c0-1.5-1.3-2.8-2.8-2.8h-0.4c-1.5,0-2.8,1.3-2.8,2.8v7.6h-1.4v-14.1h16.8v14.1H503.4z
	 M522.5,376.4v-7.5c0-0.7,0.5-1.2,1.2-1.2h0.4c0.7,0,1.2,0.5,1.2,1.2v7.5H522.5z M527,376.5v-7.6c0-1.5-1.3-2.8-2.8-2.8h-0.4
	c-1.5,0-2.8,1.3-2.8,2.8v7.6h-2.7V363h11.4v13.5H527z M530.6,353.8c0,0-0.1,0-0.1,0h-12.2v-6.3c0.1-0.1,0.1-0.3,0.1-0.4
	c0.1,0,0.2-0.1,0.3-0.2c2.2-1.9,4-3.7,5-6c0.8,2.2,2.1,4,3.9,5.2c2.2,1.5,3.6,3.4,3.8,5.2C531.4,352.1,531.2,353,530.6,353.8z"/>
<path opacity="0.15" fill="#CE462A" d="M201.7,371.4h-1.8v-9.5l2.2-1.8c0.4-0.3,0.4-0.8,0.1-1.2c-0.3-0.4-0.8-0.4-1.2-0.1l-1.1,0.9
	v-7.8l1.8,1.1l5-8.1l-5.2-2.5l-1.5,2.4V342c0,0,0,0,0,0c0,0,0-0.1,0-0.1c0,0,0-0.1,0-0.1c0,0,0-0.1,0-0.1c0,0,0-0.1,0-0.1
	c0,0,0,0,0-0.1c0,0,0,0,0-0.1c0,0,0,0-0.1-0.1c0,0,0,0-0.1-0.1c0,0,0,0-0.1,0c0,0,0,0-0.1-0.1c0,0,0,0,0,0l-2.3-1.3c0,0,0-0.1,0-0.1
	v-3.7c0-0.1,0-0.1,0-0.2c0-0.1,0-0.3,0-0.4v-1.1c0,0,0-0.1,0-0.1h1.9c0.5,0,0.8-0.4,0.8-0.8c0-0.5-0.4-0.8-0.8-0.8h-2.2l1.7-1.7
	c0.3-0.3,0.3-0.9,0-1.2s-0.8-0.3-1.2,0l-2,2v-2.8c0-0.5-0.4-0.8-0.8-0.8c-0.5,0-0.8,0.4-0.8,0.8v2.8l-1.8-1.8
	c-0.2-0.2-0.4-0.3-0.7-0.2v-4.7h0.6v-4.2h-0.7c0.3-0.4,0.6-1,0.6-1.6c0-1.1-1.4-3.8-1.8-4.6l-0.7-1.4l-0.7,1.4
	c-0.4,0.8-1.8,3.5-1.8,4.6c0,0.6,0.2,1.2,0.6,1.6h-1v4.2h0.7v11.4c0,0,0,0.1,0,0.1c0,0,0,0,0,0c0,0.2,0,0.4,0.1,0.6
	c-0.2-0.3-0.6-0.4-1-0.2c-0.4,0.2-0.6,0.7-0.4,1.1l4.5,8.9c0,0.1,0.1,0.1,0.1,0.2l-4.2,24.3c0,0,0,0,0,0c0,0,0,0,0,0.1h-1.3v5.1
	h-1.9v4.3c0,0.5,0.4,0.8,0.8,0.8h12.1c0.1,0,0.2,0.1,0.3,0.1h6.2c0.4,0,0.7-0.2,0.8-0.5c0.1-0.1,0.1-0.2,0.1-0.4v-4.3h-1.5V371.4z
	 M189.2,316.7c0.5,1.1,0.9,2.1,0.9,2.4c0,0.5-0.4,0.9-0.9,0.9c-0.5,0-0.9-0.4-0.9-0.9C188.3,318.7,188.7,317.7,189.2,316.7z
	 M193.3,339.6l2.9,1.7l-4.6,8.4L193.3,339.6z M188.6,336.2V329l1-1v8.5c-0.1,0.2-0.3,0.3-0.5,0.3c-0.3,0-0.5-0.2-0.5-0.5
	C188.6,336.3,188.6,336.3,188.6,336.2C188.6,336.2,188.6,336.2,188.6,336.2z M191.2,336.1v-1.7h1.1c0,0,0.1,0,0.1,0
	c-0.3,0.4-0.4,0.9-0.4,1.4c0,0.1,0,0.2,0,0.3c0,0,0,0.1,0,0.1v0.6l-0.8-0.5c0,0,0,0,0-0.1C191.3,336.3,191.3,336.2,191.2,336.1z
	 M190.7,354.8l6.2-11.2l-2.8,11c-0.1,0.4,0.2,0.9,0.6,1c0.1,0,0.1,0,0.2,0c0.4,0,0.7-0.2,0.8-0.6l2.7-10.3v6.5l-9.8,16.2
	L190.7,354.8z M198.3,370.9h-9.1l9.1-7.6V370.9z M189.9,368l8.3-13.8v6.8L189.9,368z M200.1,347.5l2-3l2.2,1l-3.1,5.1l-1.2-0.7v-2.2
	C200,347.6,200.1,347.6,200.1,347.5z M193.7,337.9v-1.6c0-0.1,0-0.2,0-0.3c0,0,0-0.1,0-0.1c0-0.5,0.4-1,1-1c0.4,0,0.8,0.3,0.9,0.7
	v3.3L193.7,337.9z M193.9,333c0.1-0.1,0.1-0.1,0.1-0.2c0.1,0.1,0.3,0.2,0.5,0.2c0.2,0,0.4-0.1,0.6-0.2c0,0.1,0.1,0.2,0.2,0.3
	c0.1,0.1,0.2,0.2,0.3,0.2c0,0.1,0,0.1,0,0.2c0,0,0,0.1,0,0.1c-0.3-0.1-0.6-0.2-1-0.2c-0.5,0-1.1,0.2-1.5,0.5c0,0,0-0.1,0-0.1
	c0-0.2-0.1-0.3-0.1-0.5c0.1,0,0.2,0.1,0.3,0.1C193.5,333.2,193.8,333.1,193.9,333z M192.6,332.9c-0.1,0-0.2,0-0.3,0h-1.1v-1.3
	L192.6,332.9z M187.9,323.2v-0.9h2.4v0.9H187.9z M189.6,324.8v0.9l-1,1v-1.9H189.6z M187.5,337.8c0.4,0.5,1,0.8,1.6,0.8
	c0.6,0,1.1-0.2,1.5-0.6l1.2,0.7l-1,5.7L187.5,337.8z M186.5,373H200v3.4h-13.6V373z M184.8,378.1h16.7v1.9h-5.4
	c-0.1,0-0.2-0.1-0.3-0.1h-11.3v-1.8H184.8z"/>
<g opacity="0.15">
	<path fill="#72BAA6" d="M350.8,353.9c-0.4,0-0.7,0.3-0.7,0.7v30.1c0,0.4,0.3,0.7,0.7,0.7c0.4,0,0.7-0.3,0.7-0.7v-30.1
		C351.5,354.2,351.2,353.9,350.8,353.9z"/>
	<path fill="#72BAA6" d="M356.6,338.3h-11.6v11.6h11.6V338.3z M355.3,341.8c-0.5-0.9-1.2-1.7-2.1-2.1h2.1V341.8z M354.6,344.1
		c0,2-1.7,3.7-3.7,3.7s-3.7-1.7-3.7-3.7c0-2,1.7-3.7,3.7-3.7S354.6,342,354.6,344.1z M348.5,339.6c-0.9,0.5-1.7,1.2-2.1,2.1v-2.1
		H348.5z M346.4,346.4c0.5,0.9,1.2,1.7,2.1,2.1h-2.1V346.4z M353.2,348.5c0.9-0.5,1.7-1.2,2.1-2.1v2.1H353.2z"/>
	<path fill="#72BAA6" d="M351.5,343.9l0.5-0.5c0.2-0.2,0.2-0.6,0-0.8c-0.2-0.2-0.6-0.2-0.8,0l-0.5,0.5l-0.1-0.1
		c-0.2-0.2-0.6-0.2-0.8,0c-0.2,0.2-0.2,0.6,0,0.8l0.1,0.1l-1.3,1.3c-0.2,0.2-0.2,0.6,0,0.8c0.1,0.1,0.2,0.2,0.4,0.2
		c0.1,0,0.3-0.1,0.4-0.2l1.3-1.3l0.9,0.9c0.1,0.1,0.2,0.2,0.4,0.2c0.1,0,0.3-0.1,0.4-0.2c0.2-0.2,0.2-0.6,0-0.8L351.5,343.9z"/>
	<path fill="#72BAA6" d="M358.9,334.9c0-0.1,0-0.2,0-0.3v-4.4c0-0.4-0.3-0.7-0.7-0.7s-0.7,0.3-0.7,0.7v1.2l-1.9-4.3v-11
		c0-0.4-0.3-0.7-0.7-0.7c-0.4,0-0.7,0.3-0.7,0.7v1.5l-2.9-8.1c-0.1-0.3-0.3-0.4-0.6-0.4h0c-0.3,0-0.5,0.2-0.6,0.4l-2.8,8v-1.4
		c0-0.4-0.3-0.7-0.7-0.7c-0.4,0-0.7,0.3-0.7,0.7v10.9l-2,4.6v-1.4c0-0.4-0.3-0.7-0.7-0.7s-0.7,0.3-0.7,0.7v4.8c0,0.1,0,0.2,0,0.2
		v16.8c0,0.4,0.3,0.7,0.7,0.7h0.4v32c0,0.4,0.3,0.7,0.7,0.7c0.4,0,0.7-0.3,0.7-0.7v-32h11.1v32c0,0.4,0.3,0.7,0.7,0.7
		c0.4,0,0.7-0.3,0.7-0.7v-32h0.4c0.4,0,0.7-0.3,0.7-0.7v-16.9c0-0.1,0-0.1,0-0.2V334.9z M357.5,351.5h-13.3v-16h13.3V351.5z
		 M347.5,322h6.8v4.3h-6.8V322z M350.9,311.8l3.1,8.9h-6.2L350.9,311.8z M347.3,327.6h7.1l2.8,6.5h-12.7L347.3,327.6z"/>
	<path fill="#72BAA6" d="M347.3,353.9c-0.4,0-0.7,0.3-0.7,0.7v30.3c0,0.4,0.3,0.7,0.7,0.7c0.4,0,0.7-0.3,0.7-0.7v-30.3
		C348,354.2,347.7,353.9,347.3,353.9z"/>
	<path fill="#72BAA6" d="M354.5,353.9c-0.4,0-0.7,0.3-0.7,0.7v30.3c0,0.4,0.3,0.7,0.7,0.7s0.7-0.3,0.7-0.7v-30.3
		C355.1,354.2,354.8,353.9,354.5,353.9z"/>
</g>
<path opacity="0.15" fill="#3A6392" d="M58.7,380.4h-0.2c-0.1-0.2-0.2-0.4-0.3-0.5c0,0-4.3-3.2-8.5-11.7c-0.6-1.3-1.2-2.7-1.8-4.1
	h1.9v-4.2h-3.4c-1.7-5.2-2.8-10.7-3.5-16.1h2.8v-4.2h-3.3c-0.6-6-0.7-11.8-0.6-16.8c0,0,0,0,0,0h1.4v-3.7h-3.6v-5.7
	c0-0.5-0.4-0.9-0.9-0.9c-0.5,0-0.9,0.4-0.9,0.9v5.7h-4v3.7h1.6c0,0,0,0,0,0c0.1,4.9,0,10.7-0.6,16.8h-3.3v4.2h2.8
	c-0.7,5.4-1.8,10.8-3.5,16.1h-3.2v4.2h1.7c-0.6,1.4-1.2,2.8-1.8,4.1c-0.2,0.4-0.4,0.9-0.6,1.3c-0.1,0.1-0.1,0.2-0.1,0.3
	c-3.9,7.4-7.6,10.1-7.7,10.2c-0.2,0.1-0.3,0.3-0.3,0.5c-0.4,0.1-0.8,0.4-0.8,0.9c0,0.5,0.4,0.9,0.9,0.9h10.7c0.5,0,0.9-0.4,0.9-0.9
	c0-0.1,0-0.3-0.1-0.4c0-1.3,0.4-2.4,0.9-3.5c0.1-0.1,0.2-0.2,0.2-0.3l0.3-0.6c1.6-2.4,4.3-4,7.3-4c3.1,0,5.9,1.7,7.4,4.2l0.4,0.8
	c0,0,0.1,0.1,0.1,0.1c0.5,1.1,0.8,2.4,0.8,3.7c0,0.1,0,0.3,0.1,0.4c0.1,0.3,0.5,0.6,0.8,0.6h10.1c0.5,0,0.9-0.4,0.9-0.9
	C59.6,380.8,59.2,380.4,58.7,380.4z M39.6,322.8l-1.1,1.7l-1.3-1.7H39.6z M30.7,370.9l-1.2,0.7l-0.5-0.7H30.7z M30.2,369.1l1.7-1.3
	l0.6,1.3H30.2z M33.7,367.9l-0.5-1.1l1.6-1.3L33.7,367.9z M39.7,348.3l-0.9-1.3l1.3-1.2C39.9,346.6,39.8,347.4,39.7,348.3z
	 M37.9,345.7l-1.4-2H40L37.9,345.7z M37.6,348l1.2,1.7l-1.7,1.3l-1-1.5L37.6,348z M35.4,348.1c0.2-0.9,0.3-1.8,0.4-2.7l1,1.4
	L35.4,348.1z M39.1,351.4c-0.1,0.7-0.3,1.4-0.4,2l-0.8-1.2L39.1,351.4z M40.8,352.5l0.3,0.5l-0.5,0.3
	C40.7,353,40.7,352.7,40.8,352.5z M38,355l-2.1,1.5l-1.2-1.8l2.1-1.6L38,355z M37.9,356.9c-0.2,0.6-0.3,1.2-0.5,1.8l-0.7-1
	L37.9,356.9z M36.4,359.8h-2.7l1.8-1.3L36.4,359.8z M34.3,364l-1.8,1.4l-0.6-1.4H34.3z M44.4,367.2l-0.3,1l-1.1-2.2L44.4,367.2z
	 M43.5,364h2l-0.5,1.3L43.5,364z M48.9,370.9l-0.7,1.3l-2.3-1.3H48.9z M45.6,369.1l0.2-0.7l0.8,0.7H45.6z M47.6,373.6l-0.4,0.7
	l-0.7-1.4L47.6,373.6z M48.4,375.3l0.5-1l2.7,1.5l-0.7,1L48.4,375.3z M50.1,378.1l-0.8,1.2c-0.1-0.7-0.3-1.3-0.6-2L50.1,378.1z
	 M52.8,376.8c0.7,1,1.4,1.8,2,2.4l-2.6-1.5L52.8,376.8z M49.5,373l0.3-0.6c0.2,0.4,0.5,0.8,0.7,1.2L49.5,373z M46.5,366.6l0.2-0.6
	c0.2,0.4,0.4,0.8,0.5,1.2L46.5,366.6z M40.7,359.8l0.4-0.3l0.2,0.3H40.7z M39.3,359c0.1-0.5,0.3-1,0.4-1.5l0.6,0.8L39.3,359z
	 M40.1,355.5c0,0,0-0.1,0-0.1l1.8-1.2l1.4,2l-1.9,1.3L40.1,355.5z M42.4,352.1l-1.2-1.7c0.2-1,0.3-2,0.5-2.9
	c0.3,1.6,0.6,3.1,0.9,4.5L42.4,352.1z M39.6,331l0.4-0.7c0,0.4,0,0.9,0,1.3L39.6,331z M38.6,329.7l-1-1.3l1-1.5l1,1.2L38.6,329.7z
	 M37.1,330.2l0.6,0.8l-0.7,1.1C37,331.5,37.1,330.8,37.1,330.2z M37.1,326.5c0-0.5,0-1,0-1.4l0.5,0.6L37.1,326.5z M38.7,332.3l1,1.4
	c0,0,0,0,0,0l-1.1,1.7l-1-1.3L38.7,332.3z M40.3,335.6c0,0.7,0.1,1.4,0.2,2.1l-0.9-1.1L40.3,335.6z M37.6,339.5l1.1-1.6l1.2,1.6
	H37.6z M39.5,325.6l0.4-0.6c0,0.4,0,0.7,0,1.1L39.5,325.6z M36.8,335.6l0.9,1.1l-1.1,1.6C36.7,337.4,36.8,336.5,36.8,335.6z
	 M34.9,350.6C34.9,350.6,34.9,350.6,34.9,350.6L34.9,350.6l1,1.3l-1.5,1.1C34.6,352.2,34.8,351.4,34.9,350.6z M33.7,356l0.9,1.3
	l-1.6,1.1C33.3,357.6,33.5,356.8,33.7,356z M30.7,365.1l0.6,1.2l-1.6,1.3C30,366.8,30.4,365.9,30.7,365.1z M27.6,371.6l0.5,0.7
	l-1.3,0.7C27.1,372.5,27.4,372.1,27.6,371.6z M28.7,378.8l-0.9-1.3l1.8-1C29.2,377.2,28.9,378,28.7,378.8z M26.9,376.2l-0.8-1.2
	l2.9-1.6l0.8,1L26.9,376.2z M24.9,375.9l0.7,1.1l-3,1.8C23.3,378,24.1,377.1,24.9,375.9z M26.5,378.2l1.4,2.1H23L26.5,378.2z
	 M31,373.5l-0.6-0.8l1.3-0.7L31,373.5z M37.5,364h2.4c0,0,0,0,0,0l2.6,5h-7.4L37.5,364z M51.4,378.9l2.5,1.5h-3.5L51.4,378.9z
	 M43,359.8C43,359.8,43,359.8,43,359.8l-0.7-1.1l1.6-1c0.2,0.7,0.4,1.5,0.6,2.1H43z M34.3,370.9h2.6c-1.2,0.2-2.2,0.6-3.2,1.2
	L34.3,370.9z M40.9,370.9h2.5L44,372C43,371.4,42,371.1,40.9,370.9z"/>
<path opacity="0.15" fill="#E9B530" d="M687.4,236.8c0-6.6-2.4-12.9-6.9-17.7l2.2-2.2c0.5-0.5,0.5-1.3,0-1.8c-0.5-0.5-1.3-0.5-1.8,0
	l-6.5,6.5c-3.7-3.2-8.4-5-13.4-5c-5.4,0-10.5,2.1-14.4,5.9c-7.6,7.6-7.9,19.8-0.9,27.7l-6.9,6.9c-0.5,0.5-0.5,1.3,0,1.8
	c0.3,0.3,0.6,0.4,0.9,0.4c0.3,0,0.7-0.1,0.9-0.4l2.6-2.6c3.4,3.1,7.4,5.2,11.8,6.2c-3.3,1.4-6.2,3.8-8,7c-0.2,0.4-0.2,0.9,0,1.3
	c0.2,0.4,0.7,0.6,1.1,0.6h26.4c0.5,0,0.9-0.2,1.1-0.6c0.2-0.4,0.2-0.9,0-1.3c-1.9-3.3-4.9-5.8-8.3-7.1c4.6-1.1,8.7-3.5,12.2-6.9
	C684.7,250.4,687.4,243.8,687.4,236.8z M648.2,240.3l3.8,3.8l-4.2,4.2C646.7,246.3,646.9,243.4,648.2,240.3z M647.7,225.2l4.4,4.4
	c-1.9,2-3.5,4.2-4.7,6.3l-3-3c-0.1-0.1-0.3-0.2-0.5-0.3C644.6,229.9,645.8,227.4,647.7,225.2z M657.8,219.5l3.2,3.2
	c-2.4,1.3-4.9,3-7.1,5.1l-4.4-4.4C651.9,221.4,654.7,220,657.8,219.5C657.8,219.4,657.8,219.4,657.8,219.5z M674.4,232.5l-3.6-3.6
	l3.6-3.6C675.4,227.1,675.3,229.6,674.4,232.5z M649.6,250.1l4.2-4.2l3.9,3.9c-1.8,0.7-3.5,1-5,1
	C651.5,250.8,650.5,250.6,649.6,250.1z M655.6,244.1l5.5-5.5l5.4,5.4c-2,1.9-4.2,3.4-6.4,4.6L655.6,244.1z M662.9,236.8l6.1-6.1
	l4.3,4.3c-1.2,2.4-2.9,4.9-5,7.2L662.9,236.8z M672.5,223.5L669,227l-3.5-3.5c1.4-0.5,2.8-0.7,4-0.7
	C670.7,222.8,671.7,223.1,672.5,223.5z M667.2,228.9l-6.1,6.1l-5.4-5.4c2.3-2.1,4.8-3.8,7.2-5L667.2,228.9z M653.9,231.4l5.4,5.4
	l-5.5,5.5l-4.5-4.5C650.4,235.6,652,233.5,653.9,231.4z M659.6,251.7l2.8,2.8c-0.4,0-0.9,0.1-1.3,0.1c-2.3,0-4.6-0.4-6.7-1.3
	C656.1,253,657.9,252.5,659.6,251.7z M665.5,254c0,0-0.1-0.1-0.1-0.1l-3.4-3.4c2.2-1.2,4.3-2.8,6.3-4.6l4.4,4.4
	C670.6,252.1,668.2,253.3,665.5,254z M674.5,248.4l-4.4-4.4c2.1-2.3,3.9-4.7,5.1-7.1l3.2,3.2C677.9,243.2,676.6,246.1,674.5,248.4z
	 M678.8,236.9l-2.4-2.4c0.6-1.5,1-2.9,1.1-4.3C678.4,232.3,678.8,234.5,678.8,236.9C678.8,236.9,678.8,236.9,678.8,236.9z
	 M667.8,220.4c-1.4,0.2-2.8,0.6-4.3,1.2l-2.4-2.4c0,0,0.1,0,0.1,0C663.4,219.1,665.7,219.5,667.8,220.4z M643.4,235.5l2.7,2.7
	c-0.8,1.8-1.3,3.5-1.5,5.2C643.6,240.9,643.2,238.2,643.4,235.5z M672.3,268.8h-21.5c2.6-3.2,6.6-5.1,10.8-5.1
	S669.7,265.6,672.3,268.8z M661.1,260.5c-5.9,0-11.5-2.2-15.9-6.1l2.4-2.4c3.7,3.3,8.5,5.1,13.5,5.1c5.4,0,10.5-2.1,14.4-5.9
	c3.8-3.8,5.9-8.9,5.9-14.4c0-5-1.8-9.8-5.1-13.5l2.4-2.4c3.9,4.4,6.1,10,6.1,15.9c0,6.3-2.5,12.3-6.9,16.8
	C673.4,258.1,667.4,260.5,661.1,260.5z"/>
<g opacity="0.15">
	<path fill="#72BAA6" d="M543,255.1l-0.3-7.7c0-2.3-1.9-4.2-4.2-4.2h-7.2l-3.2-6.9c-0.7-1.7-1.9-3.9-4.4-3.9h-3.4
		c0.2-0.3,0.3-0.7,0.3-1.2v-6c0-1.3-1-2.3-2.3-2.3h-2.6v-1.6c0-0.4-0.3-0.7-0.7-0.7h-3.4c-0.4,0-0.7,0.3-0.7,0.7v1.6h-2.4
		c-1.3,0-2.3,1-2.3,2.3v6c0,0.4,0.1,0.8,0.3,1.2h-4.4c-2.3,0-4.2,1.9-4.2,4.2v6.6h-4.8c-2.3,0-4.2,1.9-4.2,4.2c0,0,0,0.1,0,0.1
		l0.9,7.7c0,2.3,1.9,4.1,4.2,4.1h2.8c0.3,3.3,3.1,6,6.6,6c3.4,0,6.2-2.6,6.6-5.9h10.8c0.4,3.3,3.2,5.9,6.6,5.9
		c3.4,0,6.2-2.6,6.6-5.9h4.9c0.1,0,0.2,0,0.3-0.1C541.2,259.2,543,257.4,543,255.1z M541.4,250.3h-3.1v-1.4h3L541.4,250.3z
		 M526.8,236.9l3.4,7.3c0.1,0.3,0.4,0.4,0.7,0.4h7.7c1.5,0,2.7,1.2,2.7,2.8l0,0h-3.7c-0.4,0-0.7,0.3-0.7,0.7v2.8
		c0,0.4,0.3,0.7,0.7,0.7h3.8l0.1,1.8h-10.1c-1.1-0.9-2.5-1.4-4.1-1.4c-1.5,0-3,0.5-4.1,1.4h-9.3v-9.1h12.4c0.2,0,0.5-0.1,0.6-0.3
		c0.1-0.2,0.2-0.4,0.1-0.7l-1.7-5c0,0,0,0,0,0c-0.5-1.2-1.2-2.8-3-2.8h-8.3v-1.7h9.9C525,233.9,525.9,234.8,526.8,236.9z M520.7,258
		h-6.8v-3h7.9C521.2,255.8,520.8,256.9,520.7,258z M508.7,254.9h3.7v3h-2.6C509.7,256.9,509.3,255.8,508.7,254.9z M503.1,241.5
		l4.4-4.4h4.9v5.9h-9.4V241.5z M503.1,239.4v-0.8c0-0.9,0.7-1.7,1.7-1.7h0.8L503.1,239.4z M513.9,237h7.7l-5.9,5.9h-1.8V237z
		 M525.3,242.9H522l2.5-2.5L525.3,242.9z M519.9,242.9h-2.3l5.5-5.5c0.3,0.3,0.5,0.8,0.8,1.5l0,0L519.9,242.9z M511.6,224.5h3.4h1.4
		v7.7h-6.3v-7.7H511.6z M519.2,225.4v6c0,0.5-0.4,0.9-0.9,0.9H518v-7.7h0.4C518.8,224.5,519.2,224.9,519.2,225.4z M512.4,222.2h2
		v0.8h-2V222.2z M507.6,225.4c0-0.5,0.4-0.9,0.9-0.9h0.3v7.7h-0.3c-0.5,0-0.9-0.4-0.9-0.9V225.4z M493.1,244.7h5.5
		c0.4,0,0.7-0.3,0.7-0.7v-7.3c0-1.5,1.2-2.7,2.7-2.7h10.4v1.7h-7.7c-1.7,0-3.1,1.4-3.1,3.1v5c0,0.4,0.3,0.7,0.7,0.7h10.1v9.1h-5.1
		c-1.1-0.9-2.5-1.4-4.1-1.4c-1.6,0-3,0.6-4.1,1.5c-0.1,0-0.2-0.1-0.3-0.1H491l-0.7-6.1C490.4,245.9,491.6,244.7,493.1,244.7z
		 M491.2,255.2C491.2,255.1,491.2,255.1,491.2,255.2l0-0.2h6.7c-0.6,0.9-1,1.9-1.1,3h-2.8C492.4,257.9,491.2,256.7,491.2,255.2z
		 M503.3,263.9c-2.8,0-5.2-2.3-5.2-5.2c0-2.8,2.3-5.2,5.2-5.2c2.9,0,5.2,2.3,5.2,5.2C508.5,261.5,506.1,263.9,503.3,263.9z
		 M527.3,263.9c-2.8,0-5.2-2.3-5.2-5.2c0-1.5,0.6-2.9,1.7-3.8c0.2-0.1,0.3-0.2,0.4-0.3c0.9-0.7,1.9-1,3.1-1c2.8,0,5.2,2.3,5.2,5.2
		C532.4,261.5,530.1,263.9,527.3,263.9z M538.8,257.9c-0.1,0-0.2,0-0.3,0.1h-4.7c-0.1-1.1-0.5-2.2-1.1-3h8.8l0,0.2
		C541.6,256.7,540.3,257.9,538.8,257.9z"/>
	<path fill="#72BAA6" d="M520.2,246.5h-3.1c-0.4,0-0.7,0.3-0.7,0.7c0,0.4,0.3,0.7,0.7,0.7h3.1c0.4,0,0.7-0.3,0.7-0.7
		C521,246.8,520.6,246.5,520.2,246.5z"/>
	<path fill="#72BAA6" d="M502,247.9h3.1c0.4,0,0.7-0.3,0.7-0.7c0-0.4-0.3-0.7-0.7-0.7H502c-0.4,0-0.7,0.3-0.7,0.7
		C501.3,247.6,501.6,247.9,502,247.9z"/>
	<path fill="#72BAA6" d="M478.6,245.3h6.4c0.4,0,0.7-0.3,0.7-0.7c0-0.4-0.3-0.7-0.7-0.7h-6.4c-0.4,0-0.7,0.3-0.7,0.7
		C477.9,245,478.2,245.3,478.6,245.3z"/>
	<path fill="#72BAA6" d="M486.4,248.6c0-0.4-0.3-0.7-0.7-0.7h-10c-0.4,0-0.7,0.3-0.7,0.7c0,0.4,0.3,0.7,0.7,0.7h10
		C486,249.4,486.4,249,486.4,248.6z"/>
	<path fill="#72BAA6" d="M486.5,256.3h-10c-0.4,0-0.7,0.3-0.7,0.7c0,0.4,0.3,0.7,0.7,0.7h10c0.4,0,0.7-0.3,0.7-0.7
		C487.2,256.6,486.9,256.3,486.5,256.3z"/>
	<path fill="#72BAA6" d="M480,252.1c-0.4,0-0.7,0.3-0.7,0.7c0,0.4,0.3,0.7,0.7,0.7h6.2c0.4,0,0.7-0.3,0.7-0.7c0-0.4-0.3-0.7-0.7-0.7
		H480z"/>
	<path fill="#72BAA6" d="M503.3,256c-1.5,0-2.7,1.2-2.7,2.7c0,1.5,1.2,2.7,2.7,2.7c1.5,0,2.7-1.2,2.7-2.7
		C506,257.2,504.8,256,503.3,256z M503.3,259.9c-0.7,0-1.2-0.5-1.2-1.2c0-0.7,0.5-1.2,1.2-1.2c0.7,0,1.2,0.5,1.2,1.2
		C504.5,259.4,504,259.9,503.3,259.9z"/>
	<path fill="#72BAA6" d="M527.4,256c-1.5,0-2.7,1.2-2.7,2.7c0,1.5,1.2,2.7,2.7,2.7c1.5,0,2.7-1.2,2.7-2.7
		C530,257.2,528.9,256,527.4,256z M527.4,259.9c-0.7,0-1.2-0.5-1.2-1.2c0-0.7,0.5-1.2,1.2-1.2c0.7,0,1.2,0.5,1.2,1.2
		C528.6,259.4,528.1,259.9,527.4,259.9z"/>
</g>
<path opacity="0.15" fill="#3A6392" d="M229.1,246.6c0-4.2-6.2-7.1-14.7-8.7c-2.3-8.9-10.4-15.6-20.1-15.6
	c-9.7,0-17.9,6.7-20.1,15.7c-1,0.2-2,0.4-2.9,0.7c-7.3,1.9-11,4.5-11,7.9c0,2.9,2.9,5.4,8.7,7.2c0.2,0.1,0.4,0.1,0.6,0.1
	c0.8,0,1.6-0.5,1.9-1.4c0.3-1-0.2-2.1-1.3-2.5c-4.8-1.5-5.9-3.1-5.9-3.5c0-0.5,1.5-2.4,8-4.1c0.4-0.1,0.9-0.2,1.3-0.3
	c0,0.3,0,0.6,0,0.8c0,11.4,9.3,20.7,20.7,20.7s20.7-9.3,20.7-20.7c0-0.3,0-0.7,0-1c0.7,0.2,1.5,0.3,2.2,0.5c6.6,1.7,8,3.6,8,4.1
	c0,0.3-0.5,1.1-2.7,2.2l0.1-0.2c0.4-1-0.1-2.1-1.2-2.5c-1-0.4-2.1,0.1-2.5,1.2l-1.7,4.7c-0.2,0.5-0.2,1,0.1,1.5
	c0.2,0.5,0.6,0.8,1.1,1l4.7,1.7c0.1,0.1,0.3,0.1,0.4,0.1c0.9,0.1,1.8-0.4,2.1-1.3c0.4-1-0.1-2.1-1.2-2.5l-0.3-0.1
	C227.4,250.8,229.1,248.8,229.1,246.6z M209.9,252.3c-0.1,0-0.1,0-0.2,0h-4.8c0.7-2.4,1.1-5.1,1.2-7.9h6.3
	C212.2,247.2,211.3,249.9,209.9,252.3z M178.9,252.4c-1.4-2.4-2.3-5.1-2.5-8h6.3c0.1,2.8,0.5,5.5,1.2,7.9h-4.3
	C179.2,252.2,179,252.3,178.9,252.4z M179.4,232.9C179.4,232.9,179.4,232.9,179.4,232.9l4.7,0c-0.8,2.6-1.3,5.6-1.4,8.8h-6.3
	C176.5,238.5,177.6,235.5,179.4,232.9z M195.7,230.3v-5.2c2,0.6,3.8,2.5,5.1,5.2H195.7z M201.9,232.9c0.9,2.6,1.5,5.6,1.6,8.8h-7.8
	v-8.8H201.9z M193,225.1v5.2h-5.1C189.3,227.6,191.1,225.7,193,225.1z M193,232.9v8.8h-7.8c0.1-3.2,0.7-6.2,1.6-8.8H193z
	 M185.2,244.3h7.8v7.9h-6.5C185.8,249.9,185.3,247.2,185.2,244.3z M193,254.9v6.1c-2.2-0.6-4.1-2.9-5.6-6.1H193z M195.7,260.9v-6.1
	h5.6C199.8,258,197.8,260.3,195.7,260.9z M195.7,252.2v-7.9h7.8c-0.1,2.8-0.6,5.5-1.3,7.9H195.7z M206.1,241.7
	c-0.1-3.2-0.6-6.2-1.4-8.8h4.7c1.7,2.6,2.8,5.6,3.1,8.8H206.1z M207.2,230.3h-3.5c-0.6-1.5-1.4-2.8-2.3-3.9
	C203.6,227.3,205.6,228.7,207.2,230.3z M187.3,226.4c-0.9,1.1-1.6,2.4-2.3,3.9h-3.5C183.1,228.7,185.1,227.3,187.3,226.4z
	 M180.7,254.9h4c0.7,1.9,1.6,3.5,2.6,4.8C184.7,258.6,182.5,256.9,180.7,254.9z M201.4,259.7c1-1.3,1.9-3,2.6-4.8h4
	C206.2,256.9,204,258.6,201.4,259.7z"/>
<path opacity="0.15" fill="#CE462A" d="M372,236.4c-1.8,0-3.5,0.4-5,1.1l-4.9-8.3c0-0.1-0.1-0.2-0.1-0.3c-0.9-1.8-2.7-3-4.7-3.3
	c0,0,0,0-0.1,0c-0.1,0-0.2,0-0.3,0h-5.3c-0.7,0-1.2,0.5-1.2,1.2c0,0.7,0.5,1.2,1.2,1.2h5.2c0,0,0.1,0,0.1,0c1.1,0.1,2.2,0.8,2.8,1.8
	c0,0.1,0.1,0.2,0.1,0.3l1.5,2.5h-18.4c-0.1,0-0.2,0-0.3,0l-1.5-2.5h1.9c0.7,0,1.2-0.5,1.2-1.2s-0.5-1.2-1.2-1.2h-9.9
	c-0.7,0-1.2,0.5-1.2,1.2s0.5,1.2,1.2,1.2h5.3l2.1,3.7l-4.1,4.8c-1.9-1.3-4.3-2.1-6.8-2.1c-6.7,0-12.1,5.4-12.1,12.1
	s5.4,12.1,12.1,12.1c6.3,0,11.4-4.8,12-10.9h8.9c0.1,0,0.2,0,0.2,0c0,0,0,0,0,0c0.1,0,0.1,0,0.2-0.1c0,0,0,0,0.1,0
	c0,0,0.1-0.1,0.1-0.1c0,0,0,0,0.1-0.1c0,0,0.1-0.1,0.1-0.1c0,0,0,0,0,0l11.6-13.6l1.8,3.1c-3,2.2-5,5.8-5,9.8
	c0,6.7,5.4,12.1,12.1,12.1c6.7,0,12.1-5.4,12.1-12.1S378.6,236.4,372,236.4z M350.8,246.5l-6.7-11.6h16.6L350.8,246.5z M348.5,247.3
	h-6.8c-0.3-2.8-1.5-5.4-3.4-7.3l3.5-4.1L348.5,247.3z M336.7,241.8c1.4,1.5,2.3,3.4,2.6,5.5H332L336.7,241.8z M329.7,258.2
	c-5.4,0-9.7-4.4-9.7-9.7c0-5.4,4.4-9.7,9.7-9.7c1.9,0,3.7,0.6,5.2,1.5l-6.3,7.4c-0.4,0.5-0.4,1.2,0.1,1.7c0.2,0.2,0.5,0.3,0.8,0.3
	c0,0,0.1,0,0.1,0c0,0,0.1,0,0.1,0h9.6C338.8,254.5,334.7,258.2,329.7,258.2z M372,258.2c-5.4,0-9.7-4.4-9.7-9.7c0-3.2,1.5-6,3.9-7.7
	l4.9,8.3c0.2,0.4,0.6,0.6,1,0.6c0.2,0,0.4-0.1,0.6-0.2c0.6-0.3,0.8-1.1,0.4-1.6l-4.9-8.3c1.2-0.5,2.5-0.8,3.8-0.8
	c5.4,0,9.7,4.4,9.7,9.7C381.7,253.8,377.3,258.2,372,258.2z"/>
<g opacity="0.15">
	<path fill="#E9B530" d="M65.5,245.6c-0.7-0.3-0.6-1.1-0.6-1.4c0.2-1-0.4-1.9-1.3-2.2l-11.9-3.1v-9.4c0-0.9-0.6-1.6-1.5-1.8
		c-0.8-0.1-0.9-0.9-0.9-1.2c0-1-0.8-1.7-1.8-1.7H15.6c-1,0-1.8,0.8-1.8,1.7c0,0.5-0.2,1.2-1.2,1.2c-1,0-1.8,0.8-1.8,1.8v11.2
		c0,0.9,0.7,1.7,1.7,1.8c0.2,0,0.8,0.1,1,0.8c0.2,0.8,0.9,1.3,1.7,1.3h9.8l-0.9,3.2c-0.2,0.9,0.2,1.9,1.1,2.2c0.2,0.1,0.7,0.3,0.7,1
		c0,0.8,0.6,1.5,1.3,1.7l31.5,8.6c0.2,0,0.3,0.1,0.5,0.1c0.7,0,1.4-0.4,1.7-1.1c0.1-0.3,0.4-0.7,1-0.7c0.8,0,1.5-0.6,1.7-1.3
		l2.8-10.4C66.8,246.8,66.3,246,65.5,245.6z M48.1,230.8v8.4c-0.7,0.4-1.2,1.1-1.6,1.8h-4.4v-12.5h4
		C46.5,229.4,47.2,230.3,48.1,230.8z M14.4,239.4v-8.3c1.2-0.5,2.1-1.4,2.6-2.6h21.4V241H16.3C15.8,240.3,15.2,239.8,14.4,239.4z
		 M27.9,247.4l0.8-2.8h3.2c-0.1,0.2-0.2,0.3-0.3,0.6c-0.3,1,0.3,2,1.3,2.2l11,3.1c0.2,0,0.3,0.1,0.5,0.1c0.8,0,1.5-0.5,1.8-1.3
		c0.3-1-0.3-2-1.3-2.2l-8.4-2.4h11.4c0.9,0,1.7-0.7,1.8-1.5c0-0.2,0.1-0.6,0.4-0.8l3.9,1l-3.3,12l-21.4-5.8
		C29,248.6,28.6,247.9,27.9,247.4z M60.5,256.1c-0.8,0.3-1.4,0.7-2,1.3l-4.2-1.2l3.3-12l3.8,1c0.1,1.1,0.6,2,1.3,2.8L60.5,256.1z"/>
	<path fill="#E9B530" d="M31,235.8H19.6c-1,0-1.8,0.8-1.8,1.8c0,1,0.8,1.8,1.8,1.8H31c1,0,1.8-0.8,1.8-1.8
		C32.8,236.6,32,235.8,31,235.8z"/>
	<path fill="#E9B530" d="M20.6,234.4h4.6c1,0,1.8-0.8,1.8-1.8c0-1-0.8-1.8-1.8-1.8h-4.6c-1,0-1.8,0.8-1.8,1.8
		C18.8,233.5,19.6,234.4,20.6,234.4z"/>
</g>
<g opacity="0.15">
	<polygon fill="#72BAA6" points="656.7,144.9 651.9,144.9 651.9,133.1 648.8,133.1 648.8,147.5 656.7,147.5 	"/>
	<path fill="#72BAA6" d="M660.6,144.7h3l0.6,2.9h3.1l-3.4-14.4h-3.5l-3.4,14.4h2.9L660.6,144.7z M662.2,137.1l1,5.3h-2.1
		L662.2,137.1z"/>
	<polygon fill="#72BAA6" points="670.6,147.5 672.7,142.6 674.7,147.5 678,147.5 674.6,140 677.9,133.1 674.9,133.1 672.9,137.9 
		671,133.1 667.8,133.1 671,140.2 667.6,147.5 	"/>
	<rect x="648" y="151" fill="#72BAA6" width="30.2" height="1.1"/>
	<rect x="648" y="158.4" fill="#72BAA6" width="30.2" height="1.1"/>
	<polygon fill="#72BAA6" points="648.1,154.1 648.1,156.4 649.7,156.4 649.7,155.9 648.6,155.9 648.6,154.1 	"/>
	<path fill="#72BAA6" d="M649.8,155.2L649.8,155.2c0,0.7,0.5,1.2,1.2,1.2c0.7,0,1.2-0.5,1.2-1.2v0c0-0.6-0.5-1.2-1.2-1.2
		C650.4,154,649.8,154.6,649.8,155.2z M651.7,155.2L651.7,155.2c0,0.4-0.3,0.7-0.7,0.7c-0.4,0-0.7-0.3-0.7-0.7v0
		c0-0.4,0.3-0.7,0.7-0.7S651.7,154.8,651.7,155.2z"/>
	<path fill="#72BAA6" d="M653.5,155.9c-0.3,0-0.5-0.1-0.7-0.3l-0.3,0.4c0.3,0.2,0.6,0.4,1,0.4c0.5,0,0.8-0.3,0.8-0.7v0
		c0-0.4-0.3-0.6-0.7-0.7c-0.4-0.1-0.5-0.2-0.5-0.3v0c0-0.1,0.1-0.2,0.3-0.2c0.2,0,0.4,0.1,0.6,0.2l0.3-0.4c-0.2-0.2-0.5-0.3-0.8-0.3
		c-0.5,0-0.8,0.3-0.8,0.7v0c0,0.5,0.3,0.6,0.8,0.7c0.4,0.1,0.5,0.2,0.5,0.3v0C653.9,155.9,653.7,155.9,653.5,155.9z"/>
	<path fill="#72BAA6" d="M655.6,156.4h0.5l0.2-0.5h1l0.2,0.5h0.5l-1-2.3h-0.5L655.6,156.4z M657.1,155.4h-0.6l0.3-0.7L657.1,155.4z"
		/>
	<polygon fill="#72BAA6" points="658.8,154.1 658.4,154.1 658.4,156.4 658.9,156.4 658.9,154.9 660,156.4 660.4,156.4 660.4,154.1 
		659.9,154.1 659.9,155.5 	"/>
	<path fill="#72BAA6" d="M662,154.5c0.3,0,0.4,0.1,0.6,0.2l0.3-0.4c-0.2-0.2-0.5-0.3-0.9-0.3c-0.7,0-1.2,0.5-1.2,1.2v0
		c0,0.7,0.5,1.2,1.2,1.2c0.4,0,0.7-0.2,1-0.4v-1h-1v0.4h0.5v0.3c-0.1,0.1-0.3,0.1-0.5,0.1c-0.4,0-0.7-0.3-0.7-0.7v0
		C661.4,154.8,661.7,154.5,662,154.5z"/>
	<polygon fill="#72BAA6" points="669.5,154.5 669.5,154.1 667.7,154.1 667.7,156.4 669.5,156.4 669.5,155.9 668.2,155.9 
		668.2,155.4 669.3,155.4 669.3,155 668.2,155 668.2,154.5 	"/>
	<polygon fill="#72BAA6" points="665.2,154.5 665.2,154.1 663.5,154.1 663.5,156.4 665.2,156.4 665.2,155.9 664,155.9 664,155.4 
		665.1,155.4 665.1,155 664,155 664,154.5 	"/>
	<polygon fill="#72BAA6" points="665.7,154.1 665.7,156.4 667.3,156.4 667.3,155.9 666.2,155.9 666.2,154.1 	"/>
	<path fill="#72BAA6" d="M670.6,155.9c-0.3,0-0.5-0.1-0.7-0.3l-0.3,0.4c0.3,0.2,0.6,0.4,1,0.4c0.5,0,0.8-0.3,0.8-0.7v0
		c0-0.4-0.3-0.6-0.7-0.7c-0.4-0.1-0.5-0.2-0.5-0.3v0c0-0.1,0.1-0.2,0.3-0.2c0.2,0,0.4,0.1,0.6,0.2l0.3-0.4c-0.2-0.2-0.5-0.3-0.8-0.3
		c-0.5,0-0.8,0.3-0.8,0.7v0c0,0.5,0.3,0.6,0.8,0.7c0.4,0.1,0.5,0.2,0.5,0.3v0C671,155.9,670.8,155.9,670.6,155.9z"/>
	<path fill="#72BAA6" d="M674.3,155.2L674.3,155.2c0,0.7,0.4,1.2,1,1.2c0.6,0,1-0.5,1-1.2v0c0-0.7-0.4-1.2-1-1.2
		C674.7,154,674.3,154.5,674.3,155.2z M675.8,155.2L675.8,155.2c0,0.4-0.2,0.7-0.5,0.7c-0.3,0-0.5-0.3-0.5-0.7v0
		c0-0.4,0.2-0.7,0.5-0.7C675.6,154.5,675.8,154.8,675.8,155.2z"/>
	<path fill="#72BAA6" d="M678.3,154.7L678.3,154.7c0-0.4-0.3-0.7-0.8-0.7c-0.4,0-0.6,0.2-0.9,0.5l0.4,0.3c0.2-0.2,0.3-0.3,0.5-0.3
		c0.2,0,0.3,0.1,0.3,0.3c0,0.2-0.1,0.3-0.4,0.5l-0.8,0.6v0.4h1.7v-0.4h-1l0.4-0.3C678.1,155.3,678.3,155.1,678.3,154.7z"/>
	<path fill="#72BAA6" d="M649,161.3c-0.6,0-1,0.5-1,1.2v0c0,0.7,0.4,1.2,1,1.2c0.6,0,1-0.5,1-1.2v0C650,161.8,649.6,161.3,649,161.3
		z M649.5,162.5c0,0.4-0.2,0.7-0.5,0.7c-0.3,0-0.5-0.3-0.5-0.7v0c0-0.4,0.2-0.7,0.5-0.7C649.3,161.7,649.5,162,649.5,162.5
		L649.5,162.5z"/>
	<polygon fill="#72BAA6" points="650.2,161.5 650.3,161.9 650.7,161.8 650.7,163.6 651.2,163.6 651.2,161.3 650.9,161.3 	"/>
	<rect x="651.7" y="163.1" fill="#72BAA6" width="0.5" height="0.5"/>
	<path fill="#72BAA6" d="M653.6,161.3c-0.6,0-1,0.5-1,1.2v0c0,0.7,0.4,1.2,1,1.2s1-0.5,1-1.2v0C654.6,161.8,654.2,161.3,653.6,161.3
		z M654.1,162.5c0,0.4-0.2,0.7-0.5,0.7c-0.3,0-0.5-0.3-0.5-0.7v0c0-0.4,0.2-0.7,0.5-0.7C653.9,161.7,654.1,162,654.1,162.5
		L654.1,162.5z"/>
	<path fill="#72BAA6" d="M656.6,161.3h-0.4l-1.3,1.5l0.1,0.4h1.1v0.5h0.5v-0.5h0.3v-0.4h-0.3V161.3z M656.1,162.7h-0.6l0.6-0.7
		V162.7z"/>
	<rect x="657.2" y="163.1" fill="#72BAA6" width="0.5" height="0.5"/>
	<polygon fill="#72BAA6" points="657.9,161.5 658,161.9 658.4,161.8 658.4,163.6 658.9,163.6 658.9,161.3 658.5,161.3 	"/>
	<path fill="#72BAA6" d="M660.4,162.2l0.6-0.6v-0.4h-1.5v0.4h0.9l-0.5,0.5l0.1,0.3h0.2c0.3,0,0.4,0.1,0.4,0.3v0
		c0,0.2-0.1,0.3-0.3,0.3c-0.2,0-0.4-0.1-0.6-0.3l-0.3,0.3c0.2,0.2,0.5,0.4,0.9,0.4c0.5,0,0.8-0.3,0.8-0.7v0
		C661,162.5,660.7,162.3,660.4,162.2z"/>
	<path fill="#72BAA6" d="M683.2,116.7l-9.4-8.3c-0.2-0.2-0.6-0.3-0.9-0.3h-19.2c-0.3,0-0.6,0.1-0.8,0.3l-10.2,8
		c-0.3,0.3-0.5,0.6-0.5,1v9.6v41.1c0,0.7,0.6,1.3,1.3,1.3h38.7c0.7,0,1.3-0.6,1.3-1.3V127v-9.3C683.7,117.3,683.5,116.9,683.2,116.7
		z M654.3,110.7h18.2l8.6,7.6v7.4H645V118L654.3,110.7z M681,166.8H645v-38.5H681V166.8z"/>
	<path fill="#72BAA6" d="M663,122.7c2.5,0,4.5-2,4.5-4.5s-2-4.5-4.5-4.5c-2.5,0-4.5,2-4.5,4.5S660.5,122.7,663,122.7z M663,116.1
		c1.2,0,2.2,1,2.2,2.2c0,1.2-1,2.2-2.2,2.2c-1.2,0-2.2-1-2.2-2.2C660.8,117.1,661.8,116.1,663,116.1z"/>
</g>
<g opacity="0.15">
	<path fill="#CE462A" d="M497.1,144.8h3.1l0.6,2.9h3.2l-3.4-14.8h-3.5l-3.5,14.8h3L497.1,144.8z M498.6,137.1l1,5.4h-2.2
		L498.6,137.1z"/>
	<polygon fill="#CE462A" points="507.6,147.7 510.8,147.7 510.8,135.6 514,135.6 514,133 504.4,133 504.4,135.6 507.6,135.6 	"/>
	<polygon fill="#CE462A" points="524.2,145 519.3,145 519.3,133 516.2,133 516.2,147.7 524.2,147.7 	"/>
	<path fill="#CE462A" d="M519.6,151.3h-1.2l1.1,4l-2.7,0.1l-0.5-0.9h-1.1l0.6,1.5l-0.6,1.5h1.1l0.5-0.9l2.6,0.1l-1,3.9h1.2l2.1-3.9
		h2.6c0.4,0,0.8-0.3,0.8-0.7v0c0-0.4-0.3-0.8-0.8-0.8h-2.6L519.6,151.3z"/>
	<rect x="495.7" y="155.5" fill="#CE462A" width="16.8" height="1.1"/>
	<rect x="495.7" y="160.2" fill="#CE462A" width="20.6" height="1.1"/>
	<rect x="495.7" y="150.8" fill="#CE462A" width="20.6" height="1.1"/>
	<path fill="#CE462A" d="M530.1,117.2c0-0.4-0.2-0.8-0.5-1l-9.6-8.5c-0.2-0.2-0.6-0.3-0.9-0.3h-19.6c-0.3,0-0.6,0.1-0.8,0.3
		l-10.4,8.2c-0.3,0.3-0.5,0.6-0.5,1.1v9.8c0,0,0,0,0,0v42.1c0,0.7,0.6,1.4,1.4,1.4h39.6c0.7,0,1.4-0.6,1.4-1.4v-42.1c0,0,0,0,0,0
		V117.2z M500,110h18.6l8.8,7.7v7.6h-36.9v-7.8L500,110z M527.4,167.5h-36.9v-39.4h36.9V167.5z"/>
	<path fill="#CE462A" d="M509,122.3c2.5,0,4.6-2.1,4.6-4.6c0-2.5-2.1-4.6-4.6-4.6s-4.6,2.1-4.6,4.6
		C504.4,120.2,506.4,122.3,509,122.3z M509,115.6c1.3,0,2.3,1,2.3,2.3c0,1.3-1,2.3-2.3,2.3c-1.3,0-2.3-1-2.3-2.3
		C506.7,116.6,507.7,115.6,509,115.6z"/>
</g>
<g opacity="0.15">
	<path fill="#E9B530" d="M180.6,129.5c-0.1,0-0.2,0-0.3,0l-1,0.2c-0.1,0-0.2,0.1-0.3,0.2c-0.1,0.1-0.1,0.2-0.1,0.3l0.5,2.5
		c0.1,0.2,0.3,0.4,0.4,0.4c0,0,0.1,0,0.1,0c0.2-0.1,0.4-0.3,0.3-0.5l-0.1-0.5l0.6-0.1c0.3-0.1,0.6-0.2,0.8-0.5
		c0.2-0.3,0.3-0.6,0.2-1C181.6,129.9,181.2,129.5,180.6,129.5z M180.9,130.7c0,0.1,0,0.2-0.1,0.3c-0.1,0.1-0.2,0.2-0.3,0.2l-0.6,0.1
		l-0.2-0.9l0.6-0.1C180.7,130.3,180.9,130.5,180.9,130.7z"/>
	<path fill="#E9B530" d="M183.9,129.1c-0.1-0.1-0.2-0.2-0.4-0.2c-0.2,0-0.4,0.1-0.4,0.3l-0.8,2.8c-0.1,0.3,0.1,0.5,0.3,0.6l0,0l0,0
		c0.3,0,0.4-0.1,0.5-0.3l0.1-0.4l1.5-0.3l0.2,0.3c0.2,0.3,0.6,0.2,0.7-0.1c0.1-0.2,0-0.3-0.1-0.4L183.9,129.1z M184.1,130.8
		l-0.7,0.1l0.2-0.8L184.1,130.8z"/>
	<path fill="#E9B530" d="M187,130.3c0.4,0,0.7,0.1,0.7,0.2c0,0.1,0,0.2-0.1,0.3c-0.1,0.1-0.3,0.2-0.6,0.2c-0.2,0-0.4,0-0.5-0.1
		c-0.2-0.1-0.4-0.1-0.6,0.2c-0.1,0.2,0,0.5,0.2,0.6c0.2,0.1,0.5,0.2,0.8,0.2c0.4,0,1.1-0.1,1.4-0.6c0.2-0.2,0.3-0.5,0.2-0.9
		c-0.1-0.8-0.9-0.8-1.4-0.9c-0.5,0-0.7-0.1-0.7-0.3c0-0.1,0-0.1,0.1-0.2c0.1-0.1,0.3-0.2,0.5-0.2c0.1,0,0.3,0,0.4,0.1
		c0.2,0.1,0.5,0,0.5-0.3c0-0.2,0-0.4-0.2-0.5c-0.2-0.1-0.4-0.1-0.6-0.1c-0.5,0-0.9,0.2-1.2,0.5c-0.2,0.2-0.3,0.5-0.3,0.8
		C185.6,130.2,186.4,130.2,187,130.3z"/>
	<path fill="#E9B530" d="M190,129.6c0.4,0,0.7,0.1,0.7,0.2c0,0.1,0,0.2-0.1,0.3c-0.1,0.1-0.3,0.2-0.6,0.2l0,0c-0.2,0-0.4,0-0.5-0.1
		c-0.2-0.1-0.4-0.1-0.6,0.2c-0.1,0.2,0,0.5,0.2,0.6c0.2,0.1,0.5,0.2,0.8,0.2c0.4,0,1-0.1,1.4-0.6c0.2-0.2,0.3-0.5,0.2-0.9
		c-0.1-0.8-0.9-0.8-1.4-0.9c-0.5,0-0.7-0.1-0.7-0.3c0-0.1,0-0.1,0.1-0.2c0.1-0.1,0.3-0.2,0.5-0.2c0.1,0,0.3,0,0.4,0.1
		c0.2,0.1,0.5,0,0.5-0.3c0-0.2,0-0.4-0.2-0.5c-0.2-0.1-0.4-0.1-0.6-0.1c-0.5,0-0.9,0.2-1.2,0.5c-0.2,0.2-0.3,0.5-0.3,0.8
		C188.7,129.5,189.4,129.6,190,129.6z"/>
	<path fill="#E9B530" d="M192.1,130.2c0.1,0.2,0.3,0.4,0.4,0.4c0,0,0.1,0,0.1,0c0.1,0,0.2-0.1,0.3-0.2c0.1-0.1,0.1-0.2,0.1-0.3
		l-0.1-0.5l0.6-0.1c0.6-0.1,1.2-0.7,1-1.5c-0.1-0.6-0.6-1-1.2-1c-0.1,0-0.2,0-0.3,0l-1,0.2c-0.1,0-0.2,0.1-0.3,0.2
		c-0.1,0.1-0.1,0.2-0.1,0.3L192.1,130.2z M192.5,127.8l0.6-0.1c0.2-0.1,0.5,0.1,0.5,0.4c0,0.2-0.1,0.5-0.3,0.5l-0.6,0.1L192.5,127.8
		z"/>
	<path fill="#E9B530" d="M196.6,129.7c0.2,0,0.3,0,0.5-0.1c0.4-0.1,0.8-0.3,1.1-0.7c0.2-0.3,0.4-0.8,0.3-1.4
		c-0.2-1.1-1.1-1.4-1.8-1.4c-0.1,0-0.2,0-0.3,0c-0.5,0.1-0.9,0.3-1.2,0.7c-0.3,0.4-0.4,0.9-0.3,1.5
		C195.1,129.2,195.7,129.7,196.6,129.7z M196.5,127c0.1,0,0.1,0,0.2,0c0.4,0,0.8,0.2,0.9,0.8c0.1,0.6-0.3,1-0.8,1.1
		c-0.1,0-0.1,0-0.2,0c-0.4,0-0.8-0.2-0.9-0.8C195.6,127.5,196,127.1,196.5,127z"/>
	<path fill="#E9B530" d="M199.2,128.8c0,0.2,0.2,0.3,0.4,0.3c0.1,0,0.3-0.1,0.4-0.2c0.1-0.1,0.1-0.2,0.1-0.4l-0.1-0.7l0.5-0.1
		l0.8,0.8c0.2,0.2,0.6,0.1,0.7-0.1c0.1-0.2,0-0.3-0.1-0.5l-0.6-0.5c0.3-0.3,0.4-0.7,0.3-1.2c-0.2-0.6-0.7-0.9-1.4-0.8l-1.2,0.2
		c-0.1,0-0.2,0.1-0.3,0.2c-0.1,0.1-0.1,0.2-0.1,0.3L199.2,128.8z M199.6,126.4l0.7-0.2c0.2-0.1,0.4,0.1,0.4,0.3c0,0.1,0,0.3-0.3,0.4
		l-0.7,0.2L199.6,126.4z"/>
	<path fill="#E9B530" d="M204.1,124.6l-2.1,0.4c-0.2,0-0.4,0.2-0.3,0.5c0,0.2,0.2,0.4,0.5,0.4l0.7-0.1l0.4,2.2
		c0,0.2,0.2,0.3,0.4,0.3c0.1,0,0.3-0.1,0.4-0.2c0.1-0.1,0.1-0.2,0.1-0.4l-0.4-2.2l0.6-0.1c0.3-0.1,0.4-0.3,0.3-0.5
		C204.6,124.8,204.4,124.6,204.1,124.6z"/>
	<path fill="#E9B530" d="M195.6,156.2c0-0.2-0.2-0.4-0.4-0.4c-0.1,0-0.3,0.1-0.4,0.2c-0.1,0.1-0.1,0.3-0.1,0.4l0.4,1.8
		c0,0.2,0,0.4-0.1,0.5c-0.1,0.2-0.4,0.3-0.7,0.3c-0.3,0-0.6-0.1-0.7-0.5l-0.4-1.8c0-0.2-0.2-0.4-0.5-0.4c-0.1,0-0.3,0.1-0.4,0.2
		c-0.1,0.1-0.1,0.3-0.1,0.4l0.4,1.8c0.2,0.9,0.9,1.3,1.6,1.3c0.6,0,1.1-0.2,1.5-0.7c0.3-0.4,0.4-0.8,0.3-1.3L195.6,156.2z"/>
	<path fill="#E9B530" d="M198,156.7c-0.6,0-0.8-0.1-0.8-0.3c0-0.1,0-0.2,0.1-0.2c0.1-0.1,0.3-0.2,0.6-0.2c0.2,0,0.3,0,0.4,0.1
		c0.2,0.1,0.5,0,0.6-0.3c0-0.2-0.1-0.4-0.3-0.5c-0.2-0.1-0.4-0.1-0.7-0.1c-0.5,0-1.1,0.2-1.4,0.5c-0.2,0.2-0.3,0.5-0.3,0.8
		c0.1,1,0.9,1,1.6,1.1c0.5,0,0.8,0.1,0.8,0.3c0,0.1,0,0.2-0.1,0.3c-0.1,0.1-0.4,0.2-0.7,0.2c-0.2,0-0.4,0-0.6-0.1
		c-0.2-0.1-0.4-0.1-0.6,0.2c-0.1,0.2,0,0.5,0.2,0.6c0.2,0.1,0.5,0.2,0.8,0.2c0.5,0,1.2-0.2,1.6-0.6c0.2-0.3,0.3-0.6,0.2-1
		C199.4,156.8,198.6,156.8,198,156.7z"/>
	<path fill="#E9B530" d="M201.7,154.7c-0.1-0.1-0.2-0.2-0.4-0.2c-0.2,0-0.4,0.2-0.5,0.4l-0.9,3.2c-0.1,0.3,0.1,0.5,0.3,0.6l0,0h0
		c0.3,0,0.5-0.1,0.5-0.4l0.1-0.4l1.7-0.4l0.3,0.3c0.1,0.1,0.2,0.2,0.3,0.2c0.2,0,0.4-0.1,0.4-0.3c0.1-0.2,0.1-0.3-0.1-0.5
		L201.7,154.7z M202.1,156.7l-0.8,0.2l0.2-0.9L202.1,156.7z"/>
	<path fill="#E9B530" d="M217.9,160.4l-8.6-41.7c-0.3-1.5-1.7-2.6-3.2-2.6c-0.2,0-0.4,0-0.7,0.1l-18.6,3.8l16.7-7.5
		c0.6-0.3,0.9-1,0.6-1.7c-0.3-0.6-1-0.9-1.7-0.6l-20.9,9.4l13.7-10.5c0.6-0.4,0.7-1.2,0.2-1.8c-0.4-0.6-1.2-0.7-1.8-0.2L172,123.8
		c-0.6,0.4-0.7,1.2-0.2,1.8c0,0.3,0,0.6,0.1,0.9l8.6,41.7c0.3,1.5,1.7,2.6,3.2,2.6c0.2,0,0.4,0,0.7-0.1l31.1-6.4
		C217.2,163.9,218.3,162.2,217.9,160.4z M214.9,161.8l-31.1,6.4c-0.4,0.1-0.8-0.2-0.9-0.6l-8.6-41.7c0-0.2,0-0.4,0.1-0.6
		c0.1-0.2,0.3-0.3,0.5-0.3l1.3-0.3c0,0,0,0,0,0l29.8-6.1c0,0,0.1,0,0.1,0c0.3,0,0.6,0.2,0.7,0.6l8.6,41.7
		C215.5,161.3,215.3,161.7,214.9,161.8z"/>
	<path fill="#E9B530" d="M202.8,140.9c-0.8-4-4.4-6.9-8.4-6.9c-0.6,0-1.2,0.1-1.7,0.2c-4.6,1-7.7,5.5-6.7,10.2
		c0.8,4,4.4,6.9,8.4,6.9c0.6,0,1.2-0.1,1.7-0.2C200.8,150.1,203.8,145.6,202.8,140.9z M199.5,146.8c0.3-1.3,0.3-2.7,0.1-4.2l1.4-0.3
		C201,144,200.5,145.6,199.5,146.8z M197.3,147.1c-0.2,0.6-0.4,1.1-0.7,1.5l-1-5l2-0.4C197.8,144.5,197.7,145.9,197.3,147.1z
		 M195.2,141.5l-1-5.1c1.1,0.6,2.3,2.2,3,4.6L195.2,141.5z M192.2,136.8l1,5.1l-2,0.4C190.9,139.8,191.3,137.8,192.2,136.8z
		 M193.6,143.9l1,5.1c-1.1-0.6-2.3-2.2-3-4.6L193.6,143.9z M200.6,140.4l-1.4,0.3c-0.4-1.5-1-2.8-1.7-3.8
		C198.8,137.6,200,138.8,200.6,140.4z M189.3,138.5c-0.3,1.3-0.3,2.7-0.1,4.2l-1.4,0.3C187.7,141.3,188.3,139.7,189.3,138.5z
		 M188.2,145l1.4-0.3c0.4,1.5,1,2.8,1.7,3.8C189.9,147.8,188.8,146.5,188.2,145z"/>
</g>
<g opacity="0.15">
	<path fill="#3A6392" d="M372.3,115.4l-9.9-8.8c-0.3-0.2-0.6-0.4-0.9-0.4h-20.3c-0.3,0-0.6,0.1-0.9,0.3l-10.8,8.5
		c-0.3,0.3-0.5,0.7-0.5,1.1v10.2v43.6c0,0.8,0.6,1.4,1.4,1.4h41c0.8,0,1.4-0.6,1.4-1.4v-43.6v-9.9
		C372.7,116,372.6,115.6,372.3,115.4z M341.6,109h19.3l9.1,8v7.9h-38.2v-8.1L341.6,109z M369.9,168.5h-38.2v-40.8h38.2V168.5z"/>
	<path fill="#3A6392" d="M339.4,148.4c0.8,0,1.5-0.1,2.1-0.3c0.6-0.2,1.1-0.5,1.5-1c0.4-0.4,0.7-0.9,0.9-1.5
		c0.2-0.6,0.3-1.2,0.3-1.9v-11h-3.3V144c0,0.6-0.1,1-0.4,1.3c-0.3,0.3-0.6,0.4-1.1,0.4c-0.5,0-0.9-0.1-1.1-0.4
		c-0.3-0.3-0.4-0.7-0.4-1.3v-2h-3.1v2c0,1.4,0.4,2.4,1.2,3.2C336.7,148,337.9,148.4,339.4,148.4z"/>
	<polygon fill="#3A6392" points="349.6,141.7 353.3,141.7 353.3,139.1 349.6,139.1 349.6,135.4 354.7,135.4 354.7,132.8 
		346.3,132.8 346.3,148 349.6,148 	"/>
	<polygon fill="#3A6392" points="359.3,143.7 360.5,141.8 363,148 366.5,148 362.7,139.2 366.3,132.8 363,132.8 359.3,139.6 
		359.3,132.8 356.1,132.8 356.1,148 359.3,148 	"/>
	<rect x="335.5" y="151.8" fill="#3A6392" width="32" height="1.1"/>
	<polygon fill="#3A6392" points="337.3,158 337.7,158 337.7,155.5 337.2,155.5 337.2,157 336.1,155.5 335.6,155.5 335.6,158 
		336.1,158 336.1,156.4 	"/>
	<polygon fill="#3A6392" points="338.8,157 340,157 340,156.5 338.8,156.5 338.8,156 340.1,156 340.1,155.5 338.3,155.5 338.3,158 
		340.2,158 340.2,157.5 338.8,157.5 	"/>
	<polygon fill="#3A6392" points="343.6,155.5 343.1,157.2 342.5,155.5 342.1,155.5 341.5,157.2 341,155.5 340.4,155.5 341.3,158 
		341.7,158 342.3,156.4 342.8,158 343.3,158 344.1,155.5 	"/>
	<polygon fill="#3A6392" points="346.5,156.5 345.9,155.5 345.3,155.5 346.2,157 346.2,158 346.8,158 346.8,157 347.7,155.5 
		347.1,155.5 	"/>
	<path fill="#3A6392" d="M349,155.5c-0.7,0-1.3,0.6-1.3,1.3v0c0,0.7,0.5,1.2,1.3,1.2c0.7,0,1.3-0.6,1.3-1.3v0
		C350.3,156.1,349.8,155.5,349,155.5z M349.7,156.8c0,0.4-0.3,0.8-0.7,0.8c-0.4,0-0.7-0.3-0.7-0.8v0c0-0.4,0.3-0.8,0.7-0.8
		C349.4,156,349.7,156.3,349.7,156.8L349.7,156.8z"/>
	<path fill="#3A6392" d="M352.8,156.3L352.8,156.3c0-0.2-0.1-0.4-0.2-0.6c-0.2-0.2-0.4-0.2-0.7-0.2h-1.1v2.4h0.5v-0.8h0.4h0l0.5,0.8
		h0.6l-0.6-0.9C352.6,157,352.8,156.7,352.8,156.3z M352.2,156.4c0,0.2-0.1,0.3-0.4,0.3h-0.5V156h0.5
		C352.1,156,352.2,156.1,352.2,156.4L352.2,156.4z"/>
	<polygon fill="#3A6392" points="355.4,155.5 354.8,155.5 353.8,156.6 353.8,155.5 353.3,155.5 353.3,158 353.8,158 353.8,157.2 
		354.1,156.9 354.8,158 355.5,158 354.4,156.6 	"/>
	<path fill="#3A6392" d="M364.1,156.8L364.1,156.8c0-0.7-0.4-1.3-1.1-1.3c-0.6,0-1.1,0.5-1.1,1.3v0c0,0.7,0.4,1.2,1.1,1.2
		S364.1,157.5,364.1,156.8z M362.5,156.8L362.5,156.8c0-0.4,0.2-0.8,0.5-0.8c0.3,0,0.5,0.3,0.5,0.8v0c0,0.4-0.2,0.8-0.5,0.8
		C362.7,157.5,362.5,157.2,362.5,156.8z"/>
	<polygon fill="#3A6392" points="365.4,158 365.4,155.5 365,155.5 364.3,155.7 364.4,156.2 364.9,156.1 364.9,158 	"/>
	<path fill="#3A6392" d="M336.9,160.1l-2.1,5h1.1l0.5-1.1h2.1l0.5,1.1h1.1l-2.1-5H336.9z M336.8,163l0.7-1.6l0.7,1.6H336.8z"/>
	<polygon fill="#3A6392" points="340.4,160.5 340.6,161.4 341.5,161.2 341.5,165.1 342.6,165.1 342.6,160.1 341.8,160.1 	"/>
	<path fill="#3A6392" d="M345.9,162.1l1.3-1.2v-0.8h-3.3v0.9h1.9l-1.2,1.2l0.2,0.7h0.5c0.6,0,1,0.2,1,0.6v0c0,0.4-0.3,0.6-0.7,0.6
		c-0.5,0-0.9-0.2-1.2-0.6l-0.8,0.7c0.4,0.5,1,0.9,1.9,0.9c1.1,0,1.8-0.7,1.8-1.6v0C347.2,162.6,346.6,162.3,345.9,162.1z"/>
	<path fill="#3A6392" d="M366.7,159.7c-0.2-0.2-0.5-0.2-0.7,0l-1.2,1.2l-2.9-0.9l-0.6,0.6l2.4,1.4l-1.2,1.3l-0.7-0.2l-0.5,0.5l1,0.4
		l0.4,1l0.5-0.5L363,164l1.3-1.2l1.4,2.4l0.6-0.6l-0.9-2.9l1.3-1.3C366.9,160.2,366.9,159.9,366.7,159.7L366.7,159.7z"/>
	<path fill="#3A6392" d="M350.8,121.7c2.6,0,4.8-2.1,4.8-4.8c0-2.6-2.1-4.8-4.8-4.8c-2.6,0-4.8,2.1-4.8,4.8
		C346.1,119.6,348.2,121.7,350.8,121.7z M350.8,114.8c1.3,0,2.3,1,2.3,2.3c0,1.3-1.1,2.3-2.3,2.3c-1.3,0-2.3-1.1-2.3-2.3
		C348.5,115.8,349.5,114.8,350.8,114.8z"/>
</g>
<g opacity="0.15">
	<g>
		<path fill="#72BAA6" d="M23.4,171.6c-0.1,0-0.2,0-0.3,0c-0.5-0.1-0.9-0.4-1.1-0.9l-4.7-10.6l-10.6-4.7c-0.5-0.2-0.8-0.6-0.9-1.1
			c-0.1-0.5,0.1-1,0.4-1.4l6.1-6.1c0.4-0.4,0.9-0.5,1.4-0.4l6.7,1.7l11.7-12.8L6.8,120.5c-0.4-0.2-0.7-0.6-0.7-1.1
			c-0.1-0.5,0.1-0.9,0.4-1.3l6.2-6.2c0.4-0.4,1-0.5,1.5-0.4l31.8,9.7l13.1-13.1c1.4-1.4,3.2-2.2,5.2-2.2c2,0,3.8,0.8,5.2,2.2
			l0.1,0.1c2.8,2.8,2.6,7.1-0.3,10.1L56,131.5l9.5,31.2c0.2,0.5,0,1.1-0.4,1.5l-6.2,6.2c-0.3,0.3-0.8,0.5-1.3,0.4
			c-0.5-0.1-0.9-0.3-1.1-0.7L42,145.4l-12.7,11.5l1.7,6.8c0.1,0.5,0,1.1-0.4,1.4l-6.1,6.1C24.2,171.5,23.8,171.6,23.4,171.6z
			 M9.9,153.5l9.1,4c0.4,0.2,0.6,0.4,0.8,0.8l4,9.1l3.9-3.9l-1.7-6.8c-0.1-0.5,0-1.1,0.5-1.5l14.8-13.4c0.3-0.3,0.8-0.4,1.3-0.4
			c0.5,0.1,0.9,0.3,1.1,0.7l14.4,24.7l4.2-4.2l-9.5-31.2c-0.2-0.5,0-1.1,0.4-1.5l14-14c1.5-1.5,2.2-3.9,0.3-5.8l-0.1-0.1
			c-0.8-0.8-1.9-1.3-3.1-1.3c-1.2,0-2.2,0.4-3.1,1.3L47.6,124c-0.4,0.4-1,0.5-1.5,0.4l-31.8-9.7l-4.2,4.2l25.2,14.7
			c0.4,0.2,0.7,0.6,0.7,1.1c0.1,0.5-0.1,0.9-0.4,1.3l-13.5,14.9c-0.4,0.4-0.9,0.6-1.5,0.5l-6.8-1.7L9.9,153.5z"/>
	</g>
</g>
<g opacity="0.15">
	<path fill="#CE462A" d="M669.5,38.1h-2.9c0.7-0.8,1.1-1.9,1.1-3V20.7c0-2.6-2.1-4.6-4.6-4.6h-0.9h-2.8H656v-0.7v-1.2V12
		c0-0.4-0.4-0.8-0.8-0.8h-8.3c-0.4,0-0.8,0.4-0.8,0.8v2.1v1.2V16h-3h-2.8h-1c-2.6,0-4.6,2.1-4.6,4.6v14.4c0,2.6,2.1,4.6,4.6,4.6h1
		h1.9c-0.7,0.8-1.1,1.9-1.1,3v5.8c0,2.6,2.1,4.6,4.6,4.6h9.9c0.1,0.4,0.4,0.7,0.8,0.7h8.3c0.4,0,0.7-0.3,0.8-0.7h4c0,0,0,0,0,0
		c0,0,0,0,0,0c2.6,0,4.6-2.1,4.6-4.6v-5.8C674.1,40.2,672,38.1,669.5,38.1z M672.5,42.8v2.1h-25v-2.1c0-1.7,1.4-3,3-3h8.8h2.8h0.9
		h6.4C671.2,39.7,672.5,41.1,672.5,42.8z M639.2,31.6l1.4-3.2l6.8,2.9l-1.4,3.2L639.2,31.6z M646.1,36.3c0.1,0,0.2,0.1,0.3,0.1
		c0.3,0,0.6-0.2,0.7-0.5l2-4.7c0.1-0.2,0.1-0.4,0-0.6c-0.1-0.2-0.2-0.4-0.4-0.4l-4.9-2.1V17.6h3h8.3h3.4v9c-0.7,0-1.4,0.2-2.1,0.4
		c-2.2,0.8-3.4,2.4-2.9,3.7c0.3,0.8,1.2,1.3,2.5,1.3c0.7,0,1.5-0.1,2.2-0.4c0.1,0,0.2-0.1,0.3-0.1v6.6h-13h-1.8v-2.8L646.1,36.3z
		 M654.4,15.3V16h-6.7v-0.7v-0.4h6.7V15.3z M658.7,28.2c0.7,0,0.9,0.2,1,0.3c0.1,0.2-0.5,1.1-2,1.7c-0.6,0.2-1.1,0.3-1.6,0.3
		c-0.7,0-0.9-0.2-1-0.3c-0.1-0.2,0.5-1.1,2-1.7C657.6,28.4,658.2,28.2,658.7,28.2z M645.6,39.7h1.4c-0.7,0.8-1.1,1.9-1.1,3v2.1h-3.3
		v-2.1C642.6,41.1,643.9,39.7,645.6,39.7z M666.1,20.7v14.4c0,1.7-1.4,3-3,3H663V17.6h0.1C664.7,17.6,666.1,19,666.1,20.7z
		 M661.4,17.6v20.5h-1.2v-7.6c0.9-0.8,1.3-1.8,1-2.6c-0.2-0.5-0.5-0.8-1-1v-9.3H661.4z M654.4,12.8v0.5h-6.7v-0.5H654.4z
		 M642.2,17.6v9.8l-1.2-0.5v-9.2H642.2z M636.2,35.1V20.7c0-1.7,1.4-3,3-3h0.2v9.6l-2,4.6c-0.1,0.2-0.1,0.4,0,0.6
		c0.1,0.2,0.2,0.4,0.4,0.4l1.5,0.7v4.7h-0.2C637.5,38.1,636.2,36.8,636.2,35.1z M641,34.1l1.2,0.5v3.5H641V34.1z M642.6,48.5v-2.1
		h3.3v2.1c0,1.2,0.4,2.2,1.1,3h-1.4C643.9,51.6,642.6,50.2,642.6,48.5z M657.1,52.2v-0.5h6.7v0.5H657.1z M669.5,51.6
		C669.5,51.6,669.5,51.6,669.5,51.6C669.4,51.6,669.4,51.6,669.5,51.6h-4v-0.7v-1.2v-1.5c0-0.4-0.4-0.8-0.8-0.8
		c-0.4,0-0.8,0.4-0.8,0.8v1.5v0.4h-6.7v-0.4v-1.5c0-0.4-0.4-0.8-0.8-0.8c-0.4,0-0.8,0.4-0.8,0.8v1.5v1.2v0.7h-5c-1.7,0-3-1.4-3-3
		v-2.1h25v2.1C672.5,50.2,671.2,51.6,669.5,51.6z"/>
	<path fill="#CE462A" d="M686.1,19.8h-1v-1.3c0-1.1-0.9-1.9-1.9-1.9c-1.1,0-1.9,0.9-1.9,1.9v1.3h-1c-2.6,0-4.6,2.1-4.6,4.6V44v4.3
		c0,0,0,0,0,0c0,0,0,0,0,0c0,2.6,2.1,4.6,4.6,4.6h5.8c2.6,0,4.6-2.1,4.6-4.6V24.4C690.7,21.9,688.6,19.8,686.1,19.8z M686.1,21.4
		c1.7,0,3,1.4,3,3v1.4c-0.8-0.7-1.9-1.1-3-1.1H684v-0.2c0.7-0.3,1.1-1,1.1-1.7v-1.4H686.1z M680.3,21.4h1v1.4c0,0.8,0.5,1.4,1.1,1.7
		v0.2h-2.1c-1.2,0-2.2,0.4-3,1.1v-1.4C677.3,22.8,678.6,21.4,680.3,21.4z M677.3,48.3C677.3,48.3,677.3,48.3,677.3,48.3
		C677.3,48.3,677.3,48.2,677.3,48.3V44V29.4c0-1.7,1.4-3,3-3h2.1v25h-2.1C678.6,51.3,677.3,50,677.3,48.3z M689.1,48.3
		c0,1.7-1.4,3-3,3H684v-25h2.1c1.7,0,3,1.4,3,3V48.3z"/>
	<path fill="#CE462A" d="M654.7,23.5c0.1-0.3,0-0.6-0.3-0.8l-4.5-3.6c-0.2-0.2-0.4-0.2-0.7-0.2c-0.2,0.1-0.4,0.2-0.5,0.4l-2.5,5.2
		c-0.1,0.3-0.1,0.6,0.1,0.8c0.2,0.2,0.4,0.3,0.6,0.3c0.1,0,0.1,0,0.2,0l7-1.6C654.4,24,654.7,23.8,654.7,23.5z M648.3,23.8l1.3-2.8
		l2.5,1.9L648.3,23.8z"/>
</g>
<g opacity="0.15">
	<path fill="#72BAA6" d="M181.3,30.4c-1.4,0-2.6,1.2-2.6,2.6c0,1.4,1.2,2.6,2.6,2.6c1.4,0,2.6-1.2,2.6-2.6
		C183.9,31.6,182.8,30.4,181.3,30.4z M181.3,33.8c-0.4,0-0.8-0.3-0.8-0.8c0-0.4,0.3-0.8,0.8-0.8c0.4,0,0.8,0.3,0.8,0.8
		C182.1,33.4,181.8,33.8,181.3,33.8z"/>
	<path fill="#72BAA6" d="M188.3,30.4c-1.4,0-2.6,1.2-2.6,2.6c0,1.4,1.2,2.6,2.6,2.6c1.4,0,2.6-1.2,2.6-2.6
		C190.9,31.6,189.7,30.4,188.3,30.4z M188.3,33.8c-0.4,0-0.8-0.3-0.8-0.8c0-0.4,0.3-0.8,0.8-0.8c0.4,0,0.8,0.3,0.8,0.8
		C189.1,33.4,188.7,33.8,188.3,33.8z"/>
	<path fill="#72BAA6" d="M190.8,56.7c-0.5,0-0.9,0.4-0.9,0.9c0,1.5-1.2,2.7-2.7,2.7c-1.5,0-2.7-1.2-2.7-2.7c0-0.5-0.4-0.9-0.9-0.9
		c-0.5,0-0.9,0.4-0.9,0.9c0,1.5-1.2,2.7-2.7,2.7s-2.7-1.2-2.7-2.7c0-0.5-0.4-0.9-0.9-0.9c-0.5,0-0.9,0.4-0.9,0.9
		c0,1.5-1.2,2.7-2.7,2.7c-1.5,0-2.7-1.2-2.7-2.7c0-0.5-0.4-0.9-0.9-0.9c-0.5,0-0.9,0.4-0.9,0.9c0,2.5,2,4.5,4.5,4.5
		c1.5,0,2.8-0.7,3.6-1.8c0.8,1.1,2.1,1.8,3.6,1.8c1.5,0,2.8-0.7,3.6-1.8c0.8,1.1,2.1,1.8,3.6,1.8c2.5,0,4.5-2,4.5-4.5
		C191.7,57.1,191.3,56.7,190.8,56.7z"/>
	<path fill="#72BAA6" d="M222.6,56.7c-0.5,0-0.9,0.4-0.9,0.9c0,1.5-1.2,2.7-2.7,2.7c-1.5,0-2.7-1.2-2.7-2.7c0-0.5-0.4-0.9-0.9-0.9
		c-0.5,0-0.9,0.4-0.9,0.9c0,1.5-1.2,2.7-2.7,2.7c-1.5,0-2.7-1.2-2.7-2.7c0-0.5-0.4-0.9-0.9-0.9s-0.9,0.4-0.9,0.9
		c0,1.5-1.2,2.7-2.7,2.7s-2.7-1.2-2.7-2.7c0-0.5-0.4-0.9-0.9-0.9c-0.5,0-0.9,0.4-0.9,0.9c0,2.5,2,4.5,4.5,4.5c1.5,0,2.8-0.7,3.6-1.8
		c0.8,1.1,2.1,1.8,3.6,1.8c1.5,0,2.8-0.7,3.6-1.8c0.8,1.1,2.1,1.8,3.6,1.8c2.5,0,4.5-2,4.5-4.5C223.5,57.1,223.1,56.7,222.6,56.7z"
		/>
	<path fill="#72BAA6" d="M227.5,46.2c-0.5,0-0.9,0.4-0.9,0.9c0,1.5-1.2,2.7-2.7,2.7c-1.5,0-2.7-1.2-2.7-2.7c0-0.5-0.4-0.9-0.9-0.9
		c-0.5,0-0.9,0.4-0.9,0.9c0,1.5-1.2,2.7-2.7,2.7c-0.1,0-0.2,0-0.3,0c2.4-2.5,3.8-5.7,3.8-9.2v-3.3c0-0.5-0.4-0.9-0.9-0.9h-23.5V3.7
		c0-0.5-0.4-0.9-0.9-0.9c-0.5,0-0.9,0.4-0.9,0.9V28h-17.7c-0.5,0-0.9,0.4-0.9,0.9v7.6h-5c-0.5,0-0.9,0.4-0.9,0.9v3.3
		c0,3.5,1.4,6.8,3.8,9.2c-0.1,0-0.2,0-0.3,0c-1.5,0-2.7-1.2-2.7-2.7c0-0.5-0.4-0.9-0.9-0.9c-0.5,0-0.9,0.4-0.9,0.9
		c0,1.5-1.2,2.7-2.7,2.7c-1.5,0-2.7-1.2-2.7-2.7c0-0.5-0.4-0.9-0.9-0.9s-0.9,0.4-0.9,0.9c0,2.5,2,4.5,4.5,4.5c1.5,0,2.8-0.7,3.6-1.8
		c0.8,1.1,2.1,1.8,3.6,1.8c1.5,0,2.8-0.7,3.6-1.8c0.8,1.1,2.1,1.8,3.6,1.8c1.5,0,2.8-0.7,3.6-1.8c0.8,1.1,2.1,1.8,3.6,1.8
		c1.5,0,2.8-0.7,3.6-1.8c0.8,1.1,2.1,1.8,3.6,1.8c1.5,0,2.8-0.7,3.6-1.8c0.8,1.1,2.1,1.8,3.6,1.8s2.8-0.7,3.6-1.8
		c0.8,1.1,2.1,1.8,3.6,1.8c1.5,0,2.8-0.7,3.6-1.8c0.8,1.1,2.2,1.8,3.6,1.8c1.5,0,2.8-0.7,3.6-1.8c0.8,1.1,2.1,1.8,3.6,1.8
		c2.5,0,4.5-2,4.5-4.5C228.4,46.6,228,46.2,227.5,46.2z M177.1,29.8h16.8v6.7h-16.8V29.8z M209.3,49.9c-1.5,0-2.7-1.2-2.7-2.7
		c0-0.5-0.4-0.9-0.9-0.9c-0.5,0-0.9,0.4-0.9,0.9c0,1.5-1.2,2.7-2.7,2.7c-1.5,0-2.7-1.2-2.7-2.7c0-0.5-0.4-0.9-0.9-0.9
		c-0.5,0-0.9,0.4-0.9,0.9c0,1.5-1.2,2.7-2.7,2.7c-1.5,0-2.7-1.2-2.7-2.7c0-0.5-0.4-0.9-0.9-0.9c-0.5,0-0.9,0.4-0.9,0.9
		c0,1.5-1.2,2.7-2.7,2.7c-1.5,0-2.7-1.2-2.7-2.7c0-0.5-0.4-0.9-0.9-0.9l0,0l0,0c-0.5,0-0.9,0.4-0.9,0.9c0,1.5-1.2,2.7-2.7,2.7
		c-1.5,0-2.7-1.2-2.7-2.7c0-0.5-0.4-0.9-0.9-0.9c-0.5,0-0.9,0.4-0.9,0.9c0,0.7-0.3,1.4-0.7,1.8c0,0,0,0-0.1,0
		c-2.3-2.1-3.6-5.2-3.6-8.3v-2.4h5h18.6h23.5v2.4c0,3.1-1.2,6-3.4,8.1c-0.1,0-0.3,0-0.4,0c-0.4-0.5-0.6-1-0.6-1.7
		c0-0.5-0.4-0.9-0.9-0.9l0,0c0,0,0,0,0,0c-0.5,0-0.9,0.4-0.9,0.9C212,48.6,210.8,49.9,209.3,49.9z"/>
	<path fill="#72BAA6" d="M198,34.7h20.2c0.3,0,0.6-0.2,0.8-0.5c0.2-0.3,0.1-0.6,0-0.9l-20.2-30c-0.2-0.3-0.6-0.5-1-0.4
		c-0.4,0.1-0.6,0.5-0.6,0.9v30C197.1,34.3,197.5,34.7,198,34.7z M198.9,6.7l17.6,26.2h-17.6V6.7z"/>
</g>
<path opacity="0.15" fill="#E9B530" d="M375.6,35.8L375.6,35.8C375.6,35.8,375.6,35.8,375.6,35.8c0-0.2,0-0.3-0.1-0.5
	c0-0.1,0-0.2-0.1-0.2c0-0.1,0-0.2-0.1-0.3c0-0.1-0.1-0.2-0.1-0.3c0-0.1-0.1-0.1-0.1-0.2c-0.2-0.3-0.4-0.5-0.7-0.7
	c-0.1,0-0.1-0.1-0.2-0.1c-0.1,0-0.2-0.1-0.2-0.1c-0.1,0-0.2-0.1-0.3-0.1c-0.1,0-0.1,0-0.2-0.1c-0.2,0-0.3-0.1-0.5-0.1l0,0
	c0,0,0,0,0,0c-0.2,0-0.3,0-0.5,0.1c-0.1,0-0.2,0-0.2,0.1c-0.1,0-0.2,0-0.3,0.1c-0.1,0-0.2,0.1-0.3,0.1c-0.1,0-0.1,0.1-0.2,0.1
	c-0.1,0.1-0.3,0.2-0.4,0.3l-5.7,5.7c-1,1-1,2.7,0,3.7c0.5,0.5,1.2,0.8,1.8,0.8c0.5,0,1-0.1,1.4-0.4c-2.7,6.1-8.4,10.6-15.3,11.5v-35
	h9.1c1.4,0,2.6-1.2,2.6-2.6c0-1.4-1.2-2.6-2.6-2.6h-9.1V7c0-1.4-1.2-2.6-2.6-2.6c-1.4,0-2.6,1.2-2.6,2.6v8h-9.1
	c-1.4,0-2.6,1.2-2.6,2.6c0,1.4,1.2,2.6,2.6,2.6h9.1v35c-7-0.9-12.8-5.6-15.4-11.8c0.3,0.1,0.7,0.2,1,0.2c0.7,0,1.3-0.3,1.8-0.8
	c1-1,1-2.7,0-3.7l-5.1-5.1c-0.1-0.1-0.3-0.2-0.4-0.3c-0.1,0-0.1-0.1-0.2-0.1c-0.1,0-0.2-0.1-0.2-0.1c-0.1,0-0.2-0.1-0.3-0.1
	c-0.1,0-0.1,0-0.2-0.1c-0.3-0.1-0.7-0.1-1,0c-0.1,0-0.1,0-0.2,0.1c-0.1,0-0.2,0-0.3,0.1c-0.1,0-0.2,0.1-0.2,0.1
	c-0.1,0-0.1,0.1-0.2,0.1c-0.3,0.2-0.5,0.4-0.7,0.7c0,0.1-0.1,0.1-0.1,0.2c0,0.1-0.1,0.2-0.1,0.3c0,0.1-0.1,0.2-0.1,0.3
	c0,0.1-0.1,0.1-0.1,0.2c0,0.2-0.1,0.3-0.1,0.5c0,13.7,11.1,24.8,24.8,24.8C364.5,60.6,375.6,49.5,375.6,35.8L375.6,35.8z"/>
<g opacity="0.15">
	<path fill="#CE462A" d="M4.3,25l7.9,4c0.1,0.1,0.2,0.1,0.4,0.1c0.1,0,0.3,0,0.4-0.1c0.2-0.1,0.4-0.4,0.4-0.7v-7.9
		c0-0.3-0.1-0.5-0.4-0.7c-0.2-0.1-0.5-0.2-0.8,0l-7.9,4C4,23.7,3.9,24,3.9,24.3C3.9,24.6,4,24.9,4.3,25z M11.8,21.6V27l-5.3-2.7
		L11.8,21.6z"/>
	<path fill="#CE462A" d="M25.1,28.7c-1.3,0-2.3,1-2.3,2.3s1,2.3,2.3,2.3c1.3,0,2.3-1,2.3-2.3S26.4,28.7,25.1,28.7z M25.1,31.7
		c-0.4,0-0.7-0.3-0.7-0.7c0-0.4,0.3-0.7,0.7-0.7c0.4,0,0.7,0.3,0.7,0.7C25.8,31.4,25.5,31.7,25.1,31.7z"/>
	<path fill="#CE462A" d="M31.8,28.7c-1.3,0-2.3,1-2.3,2.3s1,2.3,2.3,2.3c1.3,0,2.3-1,2.3-2.3S33,28.7,31.8,28.7z M31.8,31.7
		c-0.4,0-0.7-0.3-0.7-0.7c0-0.4,0.3-0.7,0.7-0.7c0.4,0,0.7,0.3,0.7,0.7C32.5,31.4,32.2,31.7,31.8,31.7z"/>
	<path fill="#CE462A" d="M38.4,28.7c-1.3,0-2.3,1-2.3,2.3s1,2.3,2.3,2.3c1.3,0,2.3-1,2.3-2.3S39.7,28.7,38.4,28.7z M38.4,31.7
		c-0.4,0-0.7-0.3-0.7-0.7c0-0.4,0.3-0.7,0.7-0.7c0.4,0,0.7,0.3,0.7,0.7C39.1,31.4,38.8,31.7,38.4,31.7z"/>
	<path fill="#CE462A" d="M33.5,53.4c-0.4,0-0.8,0.4-0.8,0.8c0,1.5-1.2,2.6-2.6,2.6c-1.5,0-2.6-1.2-2.6-2.6c0-0.4-0.4-0.8-0.8-0.8
		c-0.4,0-0.8,0.4-0.8,0.8c0,1.5-1.2,2.6-2.6,2.6c-1.5,0-2.6-1.2-2.6-2.6c0-0.4-0.4-0.8-0.8-0.8c-0.4,0-0.8,0.4-0.8,0.8
		c0,1.5-1.2,2.6-2.6,2.6c-1.5,0-2.6-1.2-2.6-2.6c0-0.4-0.4-0.8-0.8-0.8c-0.4,0-0.8,0.4-0.8,0.8c0,2.3,1.9,4.2,4.2,4.2
		c1.4,0,2.7-0.7,3.4-1.8c0.8,1.1,2,1.8,3.4,1.8c1.4,0,2.7-0.7,3.4-1.8c0.8,1.1,2,1.8,3.4,1.8c2.3,0,4.2-1.9,4.2-4.2
		C34.3,53.7,33.9,53.4,33.5,53.4z"/>
	<path fill="#CE462A" d="M63.6,53.4c-0.4,0-0.8,0.4-0.8,0.8c0,1.5-1.2,2.6-2.6,2.6c-1.5,0-2.6-1.2-2.6-2.6c0-0.4-0.4-0.8-0.8-0.8
		c-0.4,0-0.8,0.4-0.8,0.8c0,1.5-1.2,2.6-2.6,2.6c-1.5,0-2.6-1.2-2.6-2.6c0-0.4-0.4-0.8-0.8-0.8c-0.4,0-0.8,0.4-0.8,0.8
		c0,1.5-1.2,2.6-2.6,2.6s-2.6-1.2-2.6-2.6c0-0.4-0.4-0.8-0.8-0.8c-0.4,0-0.8,0.4-0.8,0.8c0,2.3,1.9,4.2,4.2,4.2
		c1.4,0,2.7-0.7,3.4-1.8c0.8,1.1,2,1.8,3.4,1.8c1.4,0,2.7-0.7,3.4-1.8c0.8,1.1,2,1.8,3.4,1.8c2.3,0,4.2-1.9,4.2-4.2
		C64.4,53.7,64,53.4,63.6,53.4z"/>
	<path fill="#CE462A" d="M76.6,43.5c-0.4,0-0.8,0.4-0.8,0.8c0,1.5-1.2,2.6-2.6,2.6c-1.5,0-2.6-1.2-2.6-2.6c0-0.3-0.1-0.5-0.3-0.7
		c0.8-1.7,1.3-3.6,1.3-5.5V35c0-0.4-0.4-0.8-0.8-0.8h-9V18.5c0-0.4-0.4-0.8-0.8-0.8H42.7c0,0-0.1,0-0.1,0c0,0-0.1,0-0.1,0
		c-0.4,0-0.8,0.4-0.8,0.8c0,3.4-2.3,6.2-5.4,7V7.4c0-0.4-0.4-0.8-0.8-0.8h-7.8c-0.4,0-0.8,0.4-0.8,0.8v18.3h-7.1
		c-0.4,0-0.8,0.4-0.8,0.8v7.7h-3.1V20.4c0-0.4-0.4-0.8-0.8-0.8c-0.4,0-0.8,0.4-0.8,0.8v13.7H8.4c-0.4,0-0.8,0.4-0.8,0.8v3.1
		c0,3.3,1.3,6.5,3.7,8.8c0,0-0.1,0-0.1,0c-1.5,0-2.6-1.2-2.6-2.6c0-0.4-0.4-0.8-0.8-0.8c-0.4,0-0.8,0.4-0.8,0.8
		c0,1.5-1.2,2.6-2.6,2.6c-1.5,0-2.6-1.2-2.6-2.6c0-0.4-0.4-0.8-0.8-0.8c-0.4,0-0.8,0.4-0.8,0.8c0,2.3,1.9,4.2,4.2,4.2
		c1.4,0,2.7-0.7,3.4-1.8c0.8,1.1,2,1.8,3.4,1.8s2.7-0.7,3.4-1.8c0.8,1.1,2,1.8,3.4,1.8c1.4,0,2.7-0.7,3.5-1.8c0.8,1.1,2,1.8,3.5,1.8
		c1.4,0,2.7-0.7,3.4-1.8c0.8,1.1,2,1.8,3.4,1.8c1.4,0,2.7-0.7,3.4-1.8c0.8,1.1,2,1.8,3.4,1.8c1.4,0,2.7-0.7,3.4-1.8
		c0.8,1.1,2,1.8,3.4,1.8c1.4,0,2.7-0.7,3.5-1.8c0.8,1.1,2,1.8,3.5,1.8c1.4,0,2.7-0.7,3.4-1.8c0.8,1.1,2,1.8,3.4,1.8
		c1.4,0,2.7-0.7,3.4-1.8c0.8,1.1,2,1.8,3.4,1.8s2.7-0.7,3.4-1.8c0.8,1.1,2,1.8,3.4,1.8c2.3,0,4.2-1.9,4.2-4.2
		C77.4,43.8,77,43.5,76.6,43.5z M60,25.7h-3.3v-4.1H60V25.7z M43.2,19.3H60V20h-4.1c-0.4,0-0.8,0.4-0.8,0.8v4.9h-1v-4.9
		c0-0.4-0.4-0.8-0.8-0.8h-7.7c-0.4,0-0.8,0.4-0.8,0.8v4.9h-5.3C41.5,24.2,42.9,21.9,43.2,19.3z M52.5,25.7h-6.1v-4.1h6.1V25.7z
		 M34.4,25.7h-6.1V14.1h6.2v11.6C34.5,25.7,34.5,25.7,34.4,25.7z M34.6,8.2v4.3h-6.2V8.2H34.6z M20.5,27.3h7.1h7.8H60v6.9H20.5V27.3
		z M63.6,44.3c0-0.4-0.4-0.8-0.8-0.8c-0.4,0-0.8,0.4-0.8,0.8c0,1.5-1.2,2.6-2.6,2.6c-1.5,0-2.6-1.2-2.6-2.6c0-0.4-0.4-0.8-0.8-0.8
		c-0.4,0-0.8,0.4-0.8,0.8c0,1.5-1.2,2.6-2.6,2.6s-2.6-1.2-2.6-2.6c0-0.4-0.4-0.8-0.8-0.8l0,0c0,0,0,0,0,0c-0.4,0-0.8,0.4-0.8,0.8
		c0,1.5-1.2,2.6-2.6,2.6c-1.5,0-2.6-1.2-2.6-2.6c0-0.4-0.4-0.8-0.8-0.8c-0.4,0-0.8,0.4-0.8,0.8c0,1.5-1.2,2.6-2.6,2.6
		c-1.5,0-2.6-1.2-2.6-2.6c0-0.4-0.4-0.8-0.8-0.8c-0.4,0-0.8,0.4-0.8,0.8c0,1.5-1.2,2.6-2.6,2.6c-1.5,0-2.6-1.2-2.6-2.6
		c0-0.4-0.4-0.8-0.8-0.8c-0.4,0-0.8,0.4-0.8,0.8c0,1.5-1.2,2.6-2.6,2.6c-1.5,0-2.6-1.2-2.6-2.6c0-0.4-0.4-0.8-0.8-0.8l0,0
		c0,0,0,0,0,0c-0.4,0-0.8,0.4-0.8,0.8c0,1.5-1.2,2.6-2.6,2.6c-1.5,0-2.6-1.2-2.6-2.6c0-0.4-0.4-0.8-0.8-0.8c-0.4,0-0.8,0.4-0.8,0.8
		c0,0.7-0.3,1.4-0.8,1.9c-0.1-0.1-0.2-0.1-0.3-0.1c-2.2-2-3.5-4.9-3.5-7.9v-2.3h10.5h41.1h9v2.3c0,3.3-1.6,6.5-4.2,8.6
		c-0.1,0-0.1,0.1-0.2,0.1C64.4,46.4,63.6,45.4,63.6,44.3z"/>
</g>
<g opacity="0.15">
	<path fill="#3A6392" d="M535.9,28.9h-21.6v-5.1H526c0.3,0,0.6-0.1,0.8-0.3l5.9-6.1c0.4-0.4,0.4-1.1,0-1.5l-5.9-6.1
		c-0.2-0.2-0.5-0.3-0.8-0.3h-11.7V1.1c0-0.6-0.5-1.1-1.1-1.1h-13.3c-0.6,0-1.1,0.5-1.1,1.1v8.2H485c-0.6,0-1.1,0.5-1.1,1.1v12.2
		c0,0.6,0.5,1.1,1.1,1.1h13.8v5.1H479c-0.3,0-0.6,0.1-0.8,0.3l-5.9,6.1c-0.4,0.4-0.4,1.1,0,1.5l5.9,6.1c0.2,0.2,0.5,0.3,0.8,0.3
		h19.8v24.5c0,0.6,0.5,1.1,1.1,1.1h13.3c0.6,0,1.1-0.5,1.1-1.1V43.4h21.6c0.6,0,1.1-0.5,1.1-1.1V30
		C537.1,29.4,536.6,28.9,535.9,28.9z M501,2.2h11.1v7.1H501V2.2z M486.1,11.6h39.5l4.8,5l-4.8,5h-39.5V11.6z M501,23.8h11.1v5.1H501
		V23.8z M512.1,66.8H501V43.4h11.1V66.8z M534.8,41.2h-55.4l-4.8-5l4.8-5h55.4V41.2z"/>
	<path fill="#3A6392" d="M493,14.4h-2.7c-0.3,0-0.5,0.2-0.5,0.5c0,0.2,0.2,0.5,0.5,0.5h0.9v2.8c0,0.3,0.2,0.5,0.5,0.5
		c0.2,0,0.5-0.2,0.5-0.5v-2.8h0.8c0.2,0,0.3-0.1,0.4-0.2c0.1-0.1,0.1-0.2,0.1-0.3C493.5,14.7,493.3,14.4,493,14.4z"/>
	<path fill="#3A6392" d="M497.7,14.4c-0.3,0-0.5,0.2-0.5,0.5V16h-1.7v-1.1c0-0.3-0.2-0.5-0.5-0.5c-0.3,0-0.5,0.2-0.5,0.5v3.3
		c0,0.3,0.2,0.5,0.5,0.5c0.3,0,0.5-0.2,0.5-0.5V17h1.7v1.1c0,0.3,0.2,0.5,0.5,0.5c0.3,0,0.5-0.2,0.5-0.5v-3.3
		C498.1,14.6,497.9,14.4,497.7,14.4z"/>
	<path fill="#3A6392" d="M499.5,14.9v3.3c0,0.3,0.2,0.5,0.5,0.5c0.2,0,0.5-0.2,0.5-0.5v-3.3C500.4,14.3,499.5,14.3,499.5,14.9z"/>
	<path fill="#3A6392" d="M503.5,16c-0.5-0.2-0.9-0.3-0.8-0.6c0.1-0.3,0.3-0.3,0.6-0.3c0.3,0,0.6,0.1,0.8,0.2
		c0.2,0.2,0.6,0.1,0.7-0.2c0.1-0.2,0-0.4-0.2-0.5c-0.3-0.2-0.7-0.4-1.2-0.4c-0.7,0-1.5,0.4-1.6,1.1c-0.1,1.1,0.7,1.3,1.4,1.5
		c0.4,0.1,0.8,0.2,0.9,0.5c0,0.3-0.2,0.5-0.6,0.5c-0.4,0-0.8-0.1-1-0.3c-0.2-0.2-0.4-0.2-0.7,0.1c-0.1,0.2-0.1,0.5,0.1,0.7
		c0.3,0.3,0.9,0.4,1.4,0.4c0.8,0,1.7-0.4,1.7-1.4C505,16.5,504.1,16.2,503.5,16z"/>
	<path fill="#3A6392" d="M513.8,14.4c-0.2,0-0.4,0.1-0.5,0.3l-0.8,2.1l-0.9-2.1c-0.1-0.2-0.2-0.3-0.4-0.3c-0.2,0-0.4,0.1-0.4,0.3
		l-0.9,2.1l-0.8-2.1c-0.1-0.2-0.2-0.3-0.5-0.3c-0.2,0-0.3,0.1-0.4,0.2c-0.1,0.1-0.1,0.3-0.1,0.5l1.1,3.1c0.1,0.2,0.2,0.5,0.5,0.5
		c0.3,0,0.4-0.2,0.5-0.4l0.9-2l0.9,2l0,0c0.1,0.2,0.2,0.4,0.5,0.4c0.3,0,0.4-0.2,0.5-0.5l1.1-3.1c0.1-0.2,0-0.3-0.1-0.5
		S513.9,14.4,513.8,14.4z"/>
	<path fill="#3A6392" d="M517.3,14.7c-0.1-0.2-0.3-0.3-0.4-0.3c-0.2,0-0.4,0.1-0.5,0.3l-1.7,3.2c-0.1,0.3,0,0.6,0.2,0.7l0,0
		c0.1,0,0.1,0,0.2,0c0.2,0,0.4-0.1,0.5-0.3l0.2-0.4h2l0.2,0.4c0.1,0.2,0.2,0.3,0.4,0.3c0.2,0,0.4-0.1,0.5-0.3c0.1-0.1,0.1-0.3,0-0.5
		L517.3,14.7z M517.3,17h-1l0.5-1.1L517.3,17z"/>
	<path fill="#3A6392" d="M522.4,14.4c-0.2,0-0.3,0.1-0.4,0.2l-0.9,1.4l-0.9-1.4c-0.1-0.2-0.2-0.2-0.4-0.2c-0.2,0-0.4,0.1-0.5,0.3
		c-0.1,0.2-0.1,0.3,0,0.5l1.2,1.9v1.2c0,0.3,0.2,0.5,0.5,0.5c0.2,0,0.5-0.2,0.5-0.5V17l1.3-1.8c0.1-0.1,0.1-0.3,0.1-0.5
		C522.8,14.5,522.6,14.4,522.4,14.4z"/>
	<path fill="#3A6392" d="M484,38.3c0.3,0,0.5-0.2,0.5-0.5v-1.9l1.7,2.2c0.2,0.2,0.3,0.2,0.5,0.2h0l0,0c0.3-0.1,0.4-0.3,0.4-0.5v-3.2
		c0-0.3-0.3-0.5-0.5-0.5c-0.3,0-0.5,0.3-0.5,0.5v1.9l-1.7-2.1l0,0c-0.1-0.1-0.2-0.2-0.5-0.2c-0.3,0-0.5,0.2-0.5,0.5v3.2
		C483.5,38.1,483.7,38.3,484,38.3z"/>
	<path fill="#3A6392" d="M490.4,38.3C490.5,38.3,490.5,38.3,490.4,38.3c1.2,0,2.3-0.8,2.3-2.2c0-1.4-1.1-2.2-2.2-2.2
		c-1.1,0-2.3,0.8-2.3,2.2C488.3,37.6,489.4,38.3,490.4,38.3z M490.5,34.9c0.6,0,1.3,0.4,1.3,1.3c0,0.8-0.6,1.3-1.3,1.3
		c-0.6,0-1.2-0.4-1.2-1.3C489.2,35.3,489.9,34.9,490.5,34.9z"/>
	<path fill="#3A6392" d="M494.1,38.9c0.2,0,0.4-0.1,0.5-0.3c0.1-0.2,0.2-0.5,0.2-0.8c0-0.3-0.2-0.5-0.5-0.5c-0.3,0-0.5,0.2-0.5,0.5
		c0,0,0,0.1,0,0.2c0,0.1,0,0.2,0,0.2v0c-0.1,0.2,0,0.4,0,0.4C493.8,38.8,493.9,38.9,494.1,38.9z"/>
	<path fill="#3A6392" d="M498.3,35h0.9v2.8c0,0.3,0.2,0.5,0.5,0.5c0.2,0,0.5-0.2,0.5-0.5V35h0.8c0.2,0,0.3-0.1,0.4-0.2
		c0.1-0.1,0.1-0.2,0.1-0.3c0-0.2-0.2-0.5-0.5-0.5h-2.7c-0.3,0-0.5,0.2-0.5,0.5C497.9,34.8,498,35,498.3,35z"/>
	<path fill="#3A6392" d="M503.1,38.3c0.3,0,0.5-0.2,0.5-0.5v-1.1h1.7v1.1c0,0.3,0.2,0.5,0.5,0.5c0.3,0,0.5-0.2,0.5-0.5v-3.3
		c0-0.3-0.2-0.5-0.5-0.5c-0.3,0-0.5,0.2-0.5,0.5v1.1h-1.7v-1.1c0-0.3-0.2-0.5-0.5-0.5c-0.3,0-0.5,0.2-0.5,0.5v3.3
		C502.6,38.1,502.8,38.3,503.1,38.3z"/>
	<path fill="#3A6392" d="M508,38.3c0.2,0,0.5-0.2,0.5-0.5v-3.3c0-0.6-1-0.6-1,0v3.3C507.5,38.1,507.7,38.3,508,38.3z"/>
	<path fill="#3A6392" d="M511.4,37.4c-0.4,0-0.8-0.1-1-0.3c-0.2-0.2-0.4-0.2-0.7,0.1c-0.1,0.2-0.1,0.5,0.1,0.7
		c0.3,0.3,0.9,0.4,1.4,0.4c0.8,0,1.7-0.4,1.7-1.4c0-0.9-0.8-1.2-1.5-1.4c-0.5-0.2-0.9-0.3-0.8-0.6c0.1-0.3,0.3-0.3,0.6-0.3
		c0.3,0,0.6,0.1,0.8,0.2c0.2,0.2,0.6,0.1,0.7-0.2c0.1-0.2,0-0.4-0.2-0.5c-0.3-0.2-0.7-0.4-1.2-0.4c-0.7,0-1.5,0.4-1.6,1.1
		c-0.1,1.1,0.7,1.3,1.4,1.5c0.4,0.1,0.8,0.2,0.9,0.5C512,37.3,511.8,37.4,511.4,37.4z"/>
	<path fill="#3A6392" d="M517.4,37.8c0.1,0.2,0.2,0.5,0.5,0.5c0.3,0,0.4-0.2,0.5-0.4l0.9-2l0.9,2l0,0c0.1,0.2,0.2,0.4,0.5,0.4
		c0.3,0,0.4-0.2,0.5-0.5l1.1-3.1c0.1-0.2,0-0.3-0.1-0.5c-0.1-0.1-0.2-0.2-0.4-0.2c-0.2,0-0.4,0.1-0.5,0.3l-0.8,2.1l-0.9-2.1
		c-0.1-0.2-0.2-0.3-0.4-0.3c-0.2,0-0.4,0.1-0.4,0.3l-0.9,2.1l-0.8-2.1c-0.1-0.2-0.2-0.3-0.5-0.3c-0.2,0-0.3,0.1-0.4,0.2
		c-0.1,0.1-0.1,0.3-0.1,0.5L517.4,37.8z"/>
	<path fill="#3A6392" d="M523,38.2L523,38.2c0.1,0,0.1,0,0.2,0c0.2,0,0.4-0.1,0.5-0.3l0.2-0.4h2l0.2,0.4c0.1,0.2,0.2,0.3,0.4,0.3
		c0.2,0,0.4-0.1,0.5-0.3c0.1-0.1,0.1-0.3,0-0.5l-1.6-3.2c-0.1-0.2-0.3-0.3-0.4-0.3c-0.2,0-0.4,0.1-0.5,0.3l-1.7,3.2
		C522.7,37.9,522.8,38.1,523,38.2z M524.4,36.6l0.5-1.1l0.5,1.1H524.4z"/>
	<path fill="#3A6392" d="M528.8,36.6v1.2c0,0.3,0.3,0.5,0.5,0.5c0.1,0,0.3-0.1,0.4-0.2c0.1-0.1,0.1-0.2,0.1-0.3v-1.2l1.3-1.9
		c0.1-0.1,0.1-0.3,0.1-0.5c-0.1-0.2-0.3-0.3-0.5-0.3c-0.2,0-0.3,0.1-0.4,0.2l-1,1.4l-1-1.4c-0.1-0.1-0.2-0.2-0.4-0.2
		c-0.2,0-0.4,0.1-0.5,0.3c-0.1,0.2,0,0.3,0.1,0.5L528.8,36.6z"/>
</g>
<g opacity="0.15">
	<path fill="#CE462A" d="M692.4,450.8l-28.7-28.7c-0.4-0.4-1.1-0.4-1.5,0l-28.7,28.7c-0.4,0.4-0.4,1.1,0,1.5l28.7,28.7
		c0.2,0.2,0.5,0.3,0.7,0.3c0.3,0,0.5-0.1,0.7-0.3l28.7-28.7C692.8,451.9,692.8,451.3,692.4,450.8z M663,478.8l-27.2-27.2l27.2-27.2
		l27.2,27.2L663,478.8z"/>
	<path fill="#CE462A" d="M660.9,434.8l-6,6c-0.2,0.2-0.2,0.4-0.1,0.7c0.1,0.2,0.3,0.4,0.6,0.4h3v25.5c0,0.3,0.3,0.6,0.6,0.6h4.8
		c0.3,0,0.6-0.3,0.6-0.6v-4.7c0.3-5.6,4.9-10.2,10.5-10.5v3.7c0,0.3,0.2,0.5,0.4,0.6c0.1,0,0.2,0,0.2,0c0.2,0,0.3-0.1,0.4-0.2l6-6
		c0.1-0.1,0.2-0.3,0.2-0.4c0-0.2-0.1-0.3-0.2-0.4l-6-6c-0.2-0.2-0.4-0.2-0.7-0.1c-0.2,0.1-0.4,0.3-0.4,0.6v2.9
		c-4,0.2-7.7,1.8-10.5,4.3v-9.3h3h0c0.3,0,0.6-0.3,0.6-0.6c0-0.2-0.1-0.4-0.2-0.5l-6-6C661.5,434.6,661.1,434.6,660.9,434.8z"/>
</g>
<g opacity="0.15">
	<path fill="#CE462A" d="M64.5,442.2c-0.3-0.2-0.7-0.3-1.1-0.1l-12.6,4.5l-7.3-2.6c1.6-3.5,3-7.1,3-9.1c0-4.8-3.9-8.7-8.7-8.7
		c-4.8,0-8.7,3.9-8.7,8.7c0,2,1.4,5.5,3,9l-7.7,2.7l-12.7-4.6c-0.4-0.1-0.8-0.1-1.1,0.1c-0.3,0.2-0.5,0.6-0.5,1v27.9
		c0,0.5,0.3,1,0.8,1.1l13,4.6c0.1,0,0.3,0.1,0.4,0.1c0.1,0,0.1,0,0.2,0c0.1,0,0.1,0,0.2,0c0.1,0,0.3,0,0.4-0.1l12.7-4.5l12.7,4.5
		c0,0,0,0,0,0c0,0,0.1,0,0.1,0c0,0,0,0,0.1,0c0.1,0,0.1,0,0.2,0c0.1,0,0.1,0,0.2,0c0,0,0,0,0.1,0c0,0,0.1,0,0.1,0c0,0,0,0,0,0
		l13-4.6c0.5-0.2,0.8-0.6,0.8-1.1v-27.9C65,442.8,64.8,442.5,64.5,442.2z M37.8,428.6c3.5,0,6.3,2.8,6.3,6.3c0,2.7-3.9,10.5-6.3,15
		c-2.4-4.5-6.3-12.3-6.3-15C31.5,431.4,34.4,428.6,37.8,428.6z M23.1,474.1l-10.6-3.8v-25.4l10.6,3.8V474.1z M25.8,474.1v-25.4
		l7.3-2.6c1.3,2.7,2.6,5,3.2,6.2v18L25.8,474.1z M39,452.7c0.5-1,2-3.5,3.4-6.5l7.2,2.6v25.4L39,470.3V452.7z M62.6,470.3L52,474.1
		v-25.4l10.6-3.8V470.3z"/>
	<circle fill="#CE462A" cx="37.8" cy="435.1" r="2.8"/>
</g>
<g opacity="0.15">
	<path fill="#72BAA6" d="M217.1,422.6h-0.4c-0.5,0-1,0.3-1.2,0.7c-1.8,3.3-5.3,5.3-9,5.3c-4.1,0-8.5-2.3-10.1-5.3
		c-0.2-0.4-0.7-0.7-1.2-0.7h-0.4c-0.5,0-1,0.3-1.2,0.7c-1.7,3-6.1,5.3-10.1,5.3c-3.8,0-7.2-2-9-5.3c-0.2-0.4-0.7-0.7-1.2-0.7h-0.7
		c-0.8,0-1.4,0.6-1.4,1.4v30.7c0,7.8,4.1,14.7,11.8,20.1c5.7,4,11.3,5.7,11.6,5.8c0.1,0,0.3,0.1,0.4,0.1c0.1,0,0.3,0,0.4-0.1
		c0.2-0.1,5.9-1.8,11.6-5.8c7.7-5.4,11.8-12.3,11.8-20.1v-30.7C218.5,423.2,217.9,422.6,217.1,422.6z M183.4,431.4
		c4.4,0,9-2.1,11.5-5.3c2.5,3.1,7.1,5.3,11.5,5.3c3.5,0,6.8-1.4,9.3-3.8v14.6h-41.9v-15C176.2,429.8,179.7,431.4,183.4,431.4z
		 M194.8,477.8c-2.9-1-21-7.8-21-23.1v-9.8h41.9v9.8C215.7,470,197.7,476.8,194.8,477.8z"/>
	<path fill="#72BAA6" d="M181,438.5v-1.2h0.9l1,1.5c0.1,0.2,0.3,0.3,0.5,0.3c0.2,0,0.4-0.1,0.5-0.3c0.1-0.2,0.1-0.4-0.1-0.7l-0.8-1
		c0.7-0.4,1-1.2,0.8-1.8c-0.1-0.6-0.6-1.4-1.7-1.4h-1.9c-0.3,0-0.6,0.2-0.6,0.6v4.1C179.7,439.3,181,439.3,181,438.5z M181,436.3
		V435h1.2c0.2,0,0.3,0.1,0.4,0.2c0.1,0.1,0.1,0.3,0.1,0.4c0,0.3-0.2,0.6-0.6,0.6H181z"/>
	<path fill="#72BAA6" d="M188.2,439.2c0,0,0.1,0,0.1,0c1.3,0,2.7-0.9,2.7-2.7c0-1.8-1.4-2.7-2.7-2.8c-1.4,0-2.8,0.9-2.8,2.8
		C185.5,438.3,186.9,439.2,188.2,439.2z M188.3,434.9c0.8,0,1.6,0.5,1.6,1.6c0,1-0.8,1.6-1.6,1.6c-0.8,0-1.5-0.5-1.5-1.6
		C186.7,435.5,187.5,434.9,188.3,434.9z"/>
	<path fill="#72BAA6" d="M195.1,439.2c1.1,0,2.3-0.7,2.3-2.1v-2.6c0-0.4-0.3-0.6-0.6-0.6c-0.3,0-0.6,0.2-0.6,0.6v2.6
		c0,0.3-0.1,0.5-0.3,0.7c-0.2,0.2-0.5,0.2-0.7,0.2c-0.6,0-1.1-0.3-1.1-0.9v-2.6c0-0.4-0.3-0.6-0.6-0.6c-0.3,0-0.6,0.2-0.6,0.6v2.6
		C192.8,438.6,194,439.2,195.1,439.2z"/>
	<path fill="#72BAA6" d="M199.4,435.1h1.1v3.5c0,0.4,0.3,0.6,0.6,0.6c0.3,0,0.6-0.2,0.6-0.6v-3.5h1c0.2,0,0.4-0.1,0.5-0.2
		c0.1-0.1,0.2-0.3,0.2-0.4c0-0.3-0.2-0.6-0.6-0.6h-3.4c-0.4,0-0.6,0.3-0.6,0.6C198.8,434.8,199.1,435.1,199.4,435.1z"/>
	<path fill="#72BAA6" d="M205.6,439.1h2.7c0.2,0,0.4-0.1,0.5-0.2c0.1-0.1,0.2-0.3,0.2-0.4c0-0.3-0.2-0.6-0.6-0.6h-2v-0.8h1.7
		c0.4,0,0.6-0.3,0.6-0.6c0-0.3-0.2-0.6-0.6-0.6h-1.7v-0.8h1.9c0.2,0,0.4-0.1,0.5-0.2c0.1-0.1,0.2-0.3,0.2-0.4c0-0.3-0.2-0.6-0.6-0.6
		h-2.6c-0.3,0-0.6,0.2-0.6,0.6v4.1C205,438.9,205.2,439.1,205.6,439.1z"/>
	<path fill="#72BAA6" d="M188.3,454.7c-1.7,0-2.7,0.5-3.6,1.1c0.2-2.3,1.3-4,3.5-4c1.5,0,2.4,0.5,3.5,1.4l2-2.9
		c-1.5-1.2-3.1-1.9-5.4-1.9c-5.2,0-7.6,4.1-7.6,9.4v0.1c0,3.4,0.8,5.3,2.1,6.5c1.2,1.2,2.7,1.9,5,1.9c3.8,0,6.6-2.4,6.6-6v-0.1
		C194.4,456.6,191.7,454.7,188.3,454.7z M190.6,460.5c0,1.5-1.1,2.5-3,2.5c-1.9,0-3-1.1-3-2.6v-0.1c0-1.5,1.1-2.5,3-2.5
		C189.5,457.9,190.6,459,190.6,460.5L190.6,460.5z"/>
	<path fill="#72BAA6" d="M203.7,454.7c-1.7,0-2.7,0.5-3.6,1.1c0.2-2.3,1.3-4,3.5-4c1.5,0,2.4,0.5,3.5,1.4l2-2.9
		c-1.5-1.2-3.1-1.9-5.4-1.9c-5.2,0-7.6,4.1-7.6,9.4v0.1c0,3.4,0.8,5.3,2,6.5c1.2,1.2,2.7,1.9,5,1.9c3.8,0,6.6-2.4,6.6-6v-0.1
		C209.7,456.6,207.1,454.7,203.7,454.7z M206,460.5c0,1.5-1.1,2.5-3,2.5c-1.9,0-3-1.1-3-2.6v-0.1c0-1.5,1.1-2.5,3-2.5
		C204.8,457.9,206,459,206,460.5L206,460.5z"/>
</g>
<path opacity="0.15" fill="#3A6392" d="M542.6,442.9c-0.2-0.1-0.3-0.2-0.5-0.2h-16.9c0,0,0,0,0,0c-1.4-0.4-3-0.4-5-0.4
	c-0.4,0-0.8,0-1.2,0c-0.4,0-0.9,0-1.4,0c-1.8,0-3.4,0-4.7,0.1c0.2-0.2,0.3-0.4,0.3-0.7c0-0.5-0.4-1-1-1h-16.7c-0.5,0-1,0.4-1,1
	c0,0.2,0.1,0.5,0.2,0.6c-1.2-0.1-2.7-0.1-4.3-0.1c-0.5,0-0.9,0-1.4,0c-0.4,0-0.8,0-1.2,0c-5.9,0-9.2,0.4-9.2,8.3c0,4.2,2.3,8,5.7,10
	c0,0,0.1,0,0.1,0c1.8,1,3.8,1.6,6,1.6c6.4,0,11.2-6.2,11.7-12.1h4c0.5,5.9,5.3,12.1,11.7,12.1c6.5,0,11.7-5.3,11.7-11.7
	c0-2.2-0.3-3.9-0.8-5.1c0-0.1-0.1-0.2-0.2-0.3c-0.1-0.2-0.2-0.4-0.3-0.5h13.5c0.1,0.1,0.3,0.1,0.5,0.1c2,0,3.6,1.6,3.6,3.6
	c0,2-1.6,3.6-3.6,3.6c-0.5,0-1,0.4-1,1c0,0.5,0.4,1,1,1c3.1,0,5.6-2.5,5.6-5.6C547.7,445.6,545.5,443.2,542.6,442.9z M510.2,442.8
	c-2.7,0.6-4,2-4.2,5.5H502c-0.1-2.1-0.7-4.1-2.9-5.1c-0.4-0.2-0.8-0.3-1.3-0.4H510.2z M487.8,444.3c0.4,0,0.8,0,1.2,0
	c0.4,0,0.9,0,1.4,0c0.5,0,0.9,0,1.4,0l-10.3,10.3c-0.5-1.2-0.8-2.5-0.8-4C480.6,444.6,482.1,444.3,487.8,444.3z M482.4,456.4l12-12
	c0,0,0,0,0,0c1.7,0.1,3,0.2,3.9,0.6l-13.6,13.6C483.8,458,483.1,457.2,482.4,456.4z M490.3,460.4c-1.4,0-2.7-0.3-3.8-0.8l13.2-13.2
	c0.2,0.6,0.4,1.5,0.4,2.8C500.1,454.4,495.8,460.4,490.3,460.4z M517.6,444.3c0.5,0,0.9,0,1.4,0c0.4,0,0.8,0,1.2,0c0,0,0.1,0,0.1,0
	L509.5,455c-1-1.8-1.6-3.9-1.6-5.8C507.9,444.3,509.4,444.3,517.6,444.3z M510.6,456.7c0.1,0,0.1-0.1,0.2-0.2l12.1-12.1c0,0,0,0,0,0
	c1.6,0.1,2.7,0.4,3.4,1.3L513,458.9C512.1,458.3,511.3,457.5,510.6,456.7z M517.6,460.4c-1,0-1.9-0.2-2.8-0.5l12.4-12.2
	c0.1,0.8,0.2,1.8,0.2,3C527.4,456,523,460.4,517.6,460.4z"/>
<g opacity="0.15">
	<path fill="#E9B530" d="M381.4,462.8c0-0.5-0.3-1-0.8-1.2l-4.3-6.7c-0.7-1-1-1.6-1.2-2c-0.2-0.3-0.3-0.6-0.6-0.8
		c0.2-0.5,0.4-1.1,0.4-1.6v-17c0-2.1-1.7-3.8-3.8-3.8h-30.6v-2.9c0-1.9-1.5-3.4-3.4-3.4h-4c-1.9,0-3.4,1.5-3.4,3.4v2.9h-0.7
		c-2.1,0-3.8,1.7-3.8,3.8v17c0,0.6,0.2,1.2,0.4,1.8c-0.3,0.3-0.6,0.6-0.9,1.2c-0.2,0.4-0.5,0.8-0.9,1.5l-4.9,7.2c0,0,0,0,0,0
		c-0.1,0.1-0.1,0.2-0.1,0.3c0,0,0,0.1,0,0.1c0,0.1,0,0.1,0,0.2c0,0,0,0.1,0,0.1c0,0,0,0,0,0.1c0,0.1,0,0.2,0,0.2c0,0,0,0,0,0
		c0,0.1,0.1,0.2,0.1,0.3c0,0,0,0,0,0l4.9,9.9c0.1,0.2,0.2,0.4,0.3,0.6c0.8,1.6,1.3,2.6,3.4,2.6h2.9l-1.7,8c-0.1,0.4,0,0.8,0.3,1
		c0.2,0.3,0.6,0.5,1,0.5h41.7c0.4,0,0.8-0.2,1-0.5c0.2-0.3,0.3-0.7,0.2-1.1l-2.1-8h2.2c2.2,0,2.8-1.3,3.7-3.2l4.9-9.5
		c0.1-0.2,0.2-0.5,0.1-0.8C381.4,462.9,381.4,462.9,381.4,462.8z M377.6,461.5h-23.1v-7.3H371h1.6c0.1,0,0.2,0,0.3,0
		c0.2,0.4,0.6,1.1,1.2,2L377.6,461.5z M347.9,454.3h4v6.2h-4V454.3z M350,447.4c-3,0-5.5-2.5-5.5-5.5c0-3,2.5-5.5,5.5-5.5
		c3,0,5.5,2.5,5.5,5.5C355.4,444.9,353,447.4,350,447.4z M350,449.9c0.7,0,1.4-0.1,2-0.3v2.1h-4v-2.1
		C348.6,449.8,349.3,449.9,350,449.9z M332.1,426.6c0-0.5,0.4-0.9,0.9-0.9h4c0.5,0,0.9,0.4,0.9,0.9v2.9h-5.8V426.6z M327.6,433.4
		c0-0.7,0.6-1.3,1.3-1.3H371c0.7,0,1.3,0.6,1.3,1.3v17c0,0.7-0.6,1.3-1.3,1.3h-16.5v-3.3c2.1-1.4,3.4-3.8,3.4-6.6c0-4.4-3.6-8-8-8
		c-4.4,0-8,3.6-8,8c0,2.7,1.4,5.1,3.5,6.6c0,0.1,0,0.1,0,0.2v3.1h-16.5c-0.7,0-1.3-0.6-1.3-1.3V433.4z M325.7,456.3
		c0.5-0.7,0.8-1.3,1-1.7c0.1-0.1,0.2-0.3,0.2-0.4c0.1,0,0.2,0,0.3,0h1.6h16.5v7.3h-23.3L325.7,456.3z M331.3,483.5l2.8-13.5
		c0-0.1,0-0.2,0-0.3h3.3l-1.7,9.2c-0.1,0.4,0,0.7,0.3,1c0.2,0.3,0.6,0.5,1,0.5h26.8c0.4,0,0.7-0.2,1-0.4c0.2-0.3,0.3-0.7,0.3-1
		l-1.7-9.3h2.9c0,0.1,0,0.2,0,0.3l3.5,13.5H331.3z M360.8,469.8c0,0.1,0,0.1,0,0.2l1.4,8h-23.8l1.5-8c0-0.1,0-0.2,0-0.2H360.8z
		 M374.1,472.1C374.1,472.1,374.1,472.1,374.1,472.1l-0.1,0.1c-0.8,1.8-0.8,1.8-1.4,1.8h-2.8l-0.9-3.4h0.8c0.9,0,1.6-0.7,1.6-1.6
		s-0.7-1.6-1.6-1.6h-39.3c-0.9,0-1.6,0.7-1.6,1.6s0.7,1.6,1.6,1.6h1l-0.7,3.4h-3.5c-0.3,0-0.4,0-0.4,0c-0.1-0.1-0.4-0.7-0.7-1.2
		c-0.1-0.2-0.2-0.4-0.3-0.6l-4-8h56.5L374.1,472.1z"/>
	<path fill="#E9B530" d="M366.1,449.2c2.1,0,3.8-1.7,3.8-3.8c0-2.1-1.7-3.8-3.8-3.8c-2.1,0-3.8,1.7-3.8,3.8
		C362.3,447.5,364,449.2,366.1,449.2z M366.1,444.1c0.7,0,1.3,0.6,1.3,1.3c0,0.7-0.6,1.3-1.3,1.3c-0.7,0-1.3-0.6-1.3-1.3
		C364.8,444.6,365.4,444.1,366.1,444.1z"/>
	<path fill="#E9B530" d="M333.8,449.2c2.1,0,3.8-1.7,3.8-3.8c0-2.1-1.7-3.8-3.8-3.8c-2.1,0-3.8,1.7-3.8,3.8
		C330,447.5,331.7,449.2,333.8,449.2z M333.8,444.1c0.7,0,1.3,0.6,1.3,1.3c0,0.7-0.6,1.3-1.3,1.3c-0.7,0-1.3-0.6-1.3-1.3
		C332.5,444.6,333.1,444.1,333.8,444.1z"/>
	<path fill="#E9B530" d="M352.1,441.9c-1.8,0-2.2-2.2-1.1-3.1c-0.3-0.1-0.7-0.2-1.1-0.2c-1.8,0-3.3,1.5-3.3,3.3
		c0,1.8,1.5,3.3,3.3,3.3c1.8,0,3.3-1.5,3.3-3.3c0-0.1,0-0.3,0-0.4C353,441.8,352.6,441.9,352.1,441.9z"/>
	<path fill="#E9B530" d="M363.7,440.2h4.5c0.7,0,1.3-0.6,1.3-1.3V436c0-0.7-0.6-1.3-1.3-1.3h-4.5c-0.7,0-1.3,0.6-1.3,1.3v2.9
		C362.5,439.6,363,440.2,363.7,440.2z M365,437.3h2v0.4h-2V437.3z"/>
	<path fill="#E9B530" d="M361.7,425.7c0.2,0.2,0.6,0.4,0.9,0.4c0.3,0,0.6-0.1,0.9-0.4c0.5-0.5,0.5-1.3,0-1.8l-3-3
		c-0.5-0.5-1.3-0.5-1.8,0c-0.5,0.5-0.5,1.3,0,1.8L361.7,425.7z"/>
	<path fill="#E9B530" d="M366.6,424.5c0.7,0,1.3-0.6,1.3-1.3v-4.8c0-0.7-0.6-1.3-1.3-1.3c-0.7,0-1.3,0.6-1.3,1.3v4.8
		C365.4,423.9,365.9,424.5,366.6,424.5z"/>
	<path fill="#E9B530" d="M370.4,426.6c0.3,0,0.6-0.1,0.9-0.4l4.1-4.1c0.5-0.5,0.5-1.3,0-1.8c-0.5-0.5-1.3-0.5-1.8,0l-4.1,4.1
		c-0.5,0.5-0.5,1.3,0,1.8C369.8,426.5,370.1,426.6,370.4,426.6z"/>
</g>
</svg>
